<svg width="178" height="73" viewBox="0 0 178 73" fill="none" xmlns="http://www.w3.org/2000/svg">
<g clip-path="url(#clip0_93_4883)">
<path d="M172.071 24.1104H166.828V29.4194H172.071V24.1104Z" fill="white"/>
<path d="M172.071 18.113H166.828V23.4221H172.071V18.113Z" fill="white"/>
<path d="M178 24.1104H172.758V29.4194H178V24.1104Z" fill="white"/>
<path d="M178 36.1245H172.758V41.4336H178V36.1245Z" fill="white"/>
<path d="M172.071 36.1245H166.828V41.4336H172.071V36.1245Z" fill="white"/>
<path d="M178 42.1416H172.758V47.4507H178V42.1416Z" fill="white"/>
<path d="M178 48.1584H172.758V53.4675H178V48.1584Z" fill="white"/>
<path d="M172.071 48.1584H166.828V53.4675H172.071V48.1584Z" fill="white"/>
<path d="M172.071 42.1416H166.828V47.4507H172.071V42.1416Z" fill="white"/>
<path d="M178 54.1558H172.758V59.4648H178V54.1558Z" fill="white"/>
<path d="M172.071 54.1558H166.828V59.4648H172.071V54.1558Z" fill="white"/>
<path d="M178 60.1726H172.758V65.4817H178V60.1726Z" fill="white"/>
<path d="M172.071 60.1726H166.828V65.4817H172.071V60.1726Z" fill="white"/>
<path d="M172.071 66.1699H166.828V71.479H172.071V66.1699Z" fill="white"/>
<path d="M166.122 60.1726H160.879V65.4817H166.122V60.1726Z" fill="white"/>
<path d="M160.173 60.1726H154.931V65.4817H160.173V60.1726Z" fill="white"/>
<path d="M166.122 66.1699H160.879V71.479H166.122V66.1699Z" fill="white"/>
<path d="M160.173 66.1699H154.931V71.479H160.173V66.1699Z" fill="white"/>
<path d="M154.224 60.1726H148.982V65.4817H154.224V60.1726Z" fill="white"/>
<path d="M154.224 66.1699H148.982V71.479H154.224V66.1699Z" fill="white"/>
<path d="M166.122 48.1584H160.879V53.4675H166.122V48.1584Z" fill="white"/>
<path d="M166.122 42.1416H160.879V47.4507H166.122V42.1416Z" fill="white"/>
<path d="M160.173 48.1584H154.931V53.4675H160.173V48.1584Z" fill="white"/>
<path d="M160.173 42.1416H154.931V47.4507H160.173V42.1416Z" fill="white"/>
<path d="M154.224 48.1584H148.982V53.4675H154.224V48.1584Z" fill="white"/>
<path d="M154.224 42.1416H148.982V47.4507H154.224V42.1416Z" fill="white"/>
<path d="M148.275 48.1584H143.033V53.4675H148.275V48.1584Z" fill="white"/>
<path d="M148.275 42.1416H143.033V47.4507H148.275V42.1416Z" fill="white"/>
<path d="M142.345 42.1416H137.103V47.4507H142.345V42.1416Z" fill="white"/>
<path d="M148.275 36.1245H143.033V41.4336H148.275V36.1245Z" fill="white"/>
<path d="M142.345 36.1245H137.103V41.4336H142.345V36.1245Z" fill="white"/>
<path d="M178 30.1272H172.758V35.4363H178V30.1272Z" fill="white"/>
<path d="M172.071 30.1272H166.828V35.4363H172.071V30.1272Z" fill="white"/>
<path d="M148.275 30.1272H143.033V35.4363H148.275V30.1272Z" fill="white"/>
<path d="M142.345 30.1272H137.103V35.4363H142.345V30.1272Z" fill="white"/>
<path d="M142.345 24.1104H137.103V29.4194H142.345V24.1104Z" fill="white"/>
<path d="M148.275 24.1104H143.033V29.4194H148.275V24.1104Z" fill="white"/>
<path d="M148.275 18.113H143.033V23.4221H148.275V18.113Z" fill="white"/>
<path d="M154.224 24.1104H148.982V29.4194H154.224V24.1104Z" fill="white"/>
<path d="M154.224 18.113H148.982V23.4221H154.224V18.113Z" fill="white"/>
<path d="M160.173 24.1104H154.931V29.4194H160.173V24.1104Z" fill="white"/>
<path d="M160.173 18.113H154.931V23.4221H160.173V18.113Z" fill="white"/>
<path d="M166.122 24.1104H160.879V29.4194H166.122V24.1104Z" fill="white"/>
<path d="M166.122 18.113H160.879V23.4221H166.122V18.113Z" fill="white"/>
<path d="M112.62 30.1272H107.378V35.4363H112.62V30.1272Z" fill="white"/>
<path d="M118.569 24.1104H113.327V29.4194H118.569V24.1104Z" fill="white"/>
<path d="M118.569 18.113H113.327V23.4221H118.569V18.113Z" fill="white"/>
<path d="M124.498 24.1104H119.256V29.4194H124.498V24.1104Z" fill="white"/>
<path d="M124.498 18.113H119.256V23.4221H124.498V18.113Z" fill="white"/>
<path d="M130.447 24.1104H125.205V29.4194H130.447V24.1104Z" fill="white"/>
<path d="M130.447 18.113H125.205V23.4221H130.447V18.113Z" fill="white"/>
<path d="M106.671 24.1104H101.429V29.4194H106.671V24.1104Z" fill="white"/>
<path d="M112.62 24.1104H107.378V29.4194H112.62V24.1104Z" fill="white"/>
<path d="M106.671 30.1272H101.429V35.4363H106.671V30.1272Z" fill="white"/>
<path d="M106.671 36.1245H101.429V41.4336H106.671V36.1245Z" fill="white"/>
<path d="M106.671 42.1416H101.429V47.4507H106.671V42.1416Z" fill="white"/>
<path d="M106.671 48.1584H101.429V53.4675H106.671V48.1584Z" fill="white"/>
<path d="M100.722 48.1584H95.4802V53.4675H100.722V48.1584Z" fill="white"/>
<path d="M100.722 42.1416H95.4802V47.4507H100.722V42.1416Z" fill="white"/>
<path d="M100.722 36.1245H95.4802V41.4336H100.722V36.1245Z" fill="white"/>
<path d="M100.722 30.1272H95.4802V35.4363H100.722V30.1272Z" fill="white"/>
<path d="M100.722 24.1104H95.4802V29.4194H100.722V24.1104Z" fill="white"/>
<path d="M106.671 18.113H101.429V23.4221H106.671V18.113Z" fill="white"/>
<path d="M100.722 18.113H95.4802V23.4221H100.722V18.113Z" fill="white"/>
<path d="M65.0678 5.74463H59.8257V11.0537H65.0678V5.74463Z" fill="white"/>
<path d="M65.0678 -0.272217H59.8257V5.03687H65.0678V-0.272217Z" fill="white"/>
<path d="M70.9973 -0.272217H65.7551V5.03687H70.9973V-0.272217Z" fill="white"/>
<path d="M76.9462 -0.272217H71.7041V5.03687H76.9462V-0.272217Z" fill="white"/>
<path d="M76.9462 5.74463H71.7041V11.0537H76.9462V5.74463Z" fill="white"/>
<path d="M70.9973 5.74463H65.7551V11.0537H70.9973V5.74463Z" fill="white"/>
<path d="M82.8952 -0.272217H77.6531V5.03687H82.8952V-0.272217Z" fill="white"/>
<path d="M88.8442 5.74463H83.6021V11.0537H88.8442V5.74463Z" fill="white"/>
<path d="M82.8952 5.74463H77.6531V11.0537H82.8952V5.74463Z" fill="white"/>
<path d="M82.8952 11.7419H77.6531V17.051H82.8952V11.7419Z" fill="white"/>
<path d="M88.8442 11.7419H83.6021V17.051H88.8442V11.7419Z" fill="white"/>
<path d="M88.8442 17.759H83.6021V23.0681H88.8442V17.759Z" fill="white"/>
<path d="M82.8952 17.759H77.6531V23.0681H82.8952V17.759Z" fill="white"/>
<path d="M82.8952 23.7563H77.6531V29.0654H82.8952V23.7563Z" fill="white"/>
<path d="M88.8442 23.7563H83.6021V29.0654H88.8442V23.7563Z" fill="white"/>
<path d="M88.8442 29.7732H83.6021V35.0823H88.8442V29.7732Z" fill="white"/>
<path d="M82.8952 29.7732H77.6531V35.0823H82.8952V29.7732Z" fill="white"/>
<path d="M82.8952 35.7705H77.6531V41.0796H82.8952V35.7705Z" fill="white"/>
<path d="M88.8442 35.7705H83.6021V41.0796H88.8442V35.7705Z" fill="white"/>
<path d="M88.8442 41.7876H83.6021V47.0967H88.8442V41.7876Z" fill="white"/>
<path d="M82.8952 41.7876H77.6531V47.0967H82.8952V41.7876Z" fill="white"/>
<path d="M82.8952 47.8044H77.6531V53.1135H82.8952V47.8044Z" fill="white"/>
<path d="M76.9462 47.8044H71.7041V53.1135H76.9462V47.8044Z" fill="white"/>
<path d="M76.9462 41.7876H71.7041V47.0967H76.9462V41.7876Z" fill="white"/>
<path d="M70.9973 47.8044H65.7551V53.1135H70.9973V47.8044Z" fill="white"/>
<path d="M70.9973 41.7876H65.7551V47.0967H70.9973V41.7876Z" fill="white"/>
<path d="M65.0678 47.8044H59.8257V53.1135H65.0678V47.8044Z" fill="white"/>
<path d="M65.0678 41.7876H59.8257V47.0967H65.0678V41.7876Z" fill="white"/>
<path d="M59.1191 47.8044H53.877V53.1135H59.1191V47.8044Z" fill="white"/>
<path d="M59.1191 41.7876H53.877V47.0967H59.1191V41.7876Z" fill="white"/>
<path d="M59.1191 35.7705H53.877V41.0796H59.1191V35.7705Z" fill="white"/>
<path d="M59.1191 29.7732H53.877V35.0823H59.1191V29.7732Z" fill="white"/>
<path d="M59.1191 23.7563H53.877V29.0654H59.1191V23.7563Z" fill="white"/>
<path d="M59.1191 17.759H53.877V23.0681H59.1191V17.759Z" fill="white"/>
<path d="M59.1191 11.7419H53.877V17.051H59.1191V11.7419Z" fill="white"/>
<path d="M59.1191 5.74463H53.877V11.0537H59.1191V5.74463Z" fill="white"/>
<path d="M59.1191 -0.272217H53.877V5.03687H59.1191V-0.272217Z" fill="white"/>
<path d="M53.1701 5.74463H47.928V11.0537H53.1701V5.74463Z" fill="white"/>
<path d="M53.1701 11.7419H47.928V17.051H53.1701V11.7419Z" fill="white"/>
<path d="M53.1701 17.759H47.928V23.0681H53.1701V17.759Z" fill="white"/>
<path d="M53.1701 23.7563H47.928V29.0654H53.1701V23.7563Z" fill="white"/>
<path d="M53.1701 29.7732H47.928V35.0823H53.1701V29.7732Z" fill="white"/>
<path d="M53.1701 35.7705H47.928V41.0796H53.1701V35.7705Z" fill="white"/>
<path d="M53.1701 41.7876H47.928V47.0967H53.1701V41.7876Z" fill="white"/>
<path d="M11.5666 47.8044H6.32446V53.1135H11.5666V47.8044Z" fill="white"/>
<path d="M17.4958 47.8044H12.2537V53.1135H17.4958V47.8044Z" fill="white"/>
<path d="M23.4448 47.8044H18.2026V53.1135H23.4448V47.8044Z" fill="white"/>
<path d="M29.3938 47.8044H24.1516V53.1135H29.3938V47.8044Z" fill="white"/>
<path d="M35.3427 47.8044H30.1006V53.1135H35.3427V47.8044Z" fill="white"/>
<path d="M41.2722 41.7876H36.03V47.0967H41.2722V41.7876Z" fill="white"/>
<path d="M35.3427 41.7876H30.1006V47.0967H35.3427V41.7876Z" fill="white"/>
<path d="M29.3938 41.7876H24.1516V47.0967H29.3938V41.7876Z" fill="white"/>
<path d="M23.4448 41.7876H18.2026V47.0967H23.4448V41.7876Z" fill="white"/>
<path d="M17.4958 41.7876H12.2537V47.0967H17.4958V41.7876Z" fill="white"/>
<path d="M11.5666 41.7876H6.32446V47.0967H11.5666V41.7876Z" fill="white"/>
<path d="M5.61764 41.7876H0.375488V47.0967H5.61764V41.7876Z" fill="white"/>
<path d="M5.61764 35.7705H0.375488V41.0796H5.61764V35.7705Z" fill="white"/>
<path d="M11.5666 35.7705H6.32446V41.0796H11.5666V35.7705Z" fill="white"/>
<path d="M35.3427 35.7705H30.1006V41.0796H35.3427V35.7705Z" fill="white"/>
<path d="M41.2722 35.7705H36.03V41.0796H41.2722V35.7705Z" fill="white"/>
<path d="M41.2722 29.7732H36.03V35.0823H41.2722V29.7732Z" fill="white"/>
<path d="M35.3427 29.7732H30.1006V35.0823H35.3427V29.7732Z" fill="white"/>
<path d="M11.5666 29.7732H6.32446V35.0823H11.5666V29.7732Z" fill="white"/>
<path d="M5.61764 29.7732H0.375488V35.0823H5.61764V29.7732Z" fill="white"/>
<path d="M5.61764 23.7563H0.375488V29.0654H5.61764V23.7563Z" fill="white"/>
<path d="M11.5666 23.7563H6.32446V29.0654H11.5666V23.7563Z" fill="white"/>
<path d="M17.4958 23.7563H12.2537V29.0654H17.4958V23.7563Z" fill="white"/>
<path d="M23.4448 23.7563H18.2026V29.0654H23.4448V23.7563Z" fill="white"/>
<path d="M29.3938 23.7563H24.1516V29.0654H29.3938V23.7563Z" fill="white"/>
<path d="M35.3427 23.7563H30.1006V29.0654H35.3427V23.7563Z" fill="white"/>
<path d="M41.2722 23.7563H36.03V29.0654H41.2722V23.7563Z" fill="white"/>
<path d="M41.2722 17.759H36.03V23.0681H41.2722V17.759Z" fill="white"/>
<path d="M41.2722 11.7419H36.03V17.051H41.2722V11.7419Z" fill="white"/>
<path d="M41.2722 5.74463H36.03V11.0537H41.2722V5.74463Z" fill="white"/>
<path d="M41.2722 -0.272217H36.03V5.03687H41.2722V-0.272217Z" fill="white"/>
<path d="M35.3427 -0.272217H30.1006V5.03687H35.3427V-0.272217Z" fill="white"/>
<path d="M35.3427 5.74463H30.1006V11.0537H35.3427V5.74463Z" fill="white"/>
<path d="M35.3427 11.7419H30.1006V17.051H35.3427V11.7419Z" fill="white"/>
<path d="M35.3427 17.759H30.1006V23.0681H35.3427V17.759Z" fill="white"/>
<path d="M29.3938 17.759H24.1516V23.0681H29.3938V17.759Z" fill="white"/>
<path d="M23.4448 17.759H18.2026V23.0681H23.4448V17.759Z" fill="white"/>
<path d="M17.4958 17.759H12.2537V23.0681H17.4958V17.759Z" fill="white"/>
<path d="M11.5666 17.759H6.32446V23.0681H11.5666V17.759Z" fill="white"/>
</g>
<defs>
<clipPath id="clip0_93_4883">
<rect width="178" height="71" fill="white" transform="translate(0 0.103516)"/>
</clipPath>
</defs>
</svg>
