<svg width="165" height="65" viewBox="0 0 165 65" fill="none" xmlns="http://www.w3.org/2000/svg">
<path d="M7.99757 26.4125C8.62733 27.7542 10.188 30.4102 10.188 30.4102L28.1226 0.756592L10.5988 12.9685C9.55829 13.653 8.70948 14.6114 8.1071 15.7066C6.49162 19.0745 6.46424 22.9899 7.99757 26.4125Z" fill="white"/>
<path d="M0.878525 36.1603C1.28924 41.9103 4.13686 47.1949 8.70948 50.6722L28.0678 64.1711C28.0678 64.1711 15.9654 46.702 5.72495 29.3425C4.68448 27.5079 3.99995 25.5091 3.67138 23.4282C3.53448 22.4972 3.53448 21.5389 3.67138 20.5806C3.39757 21.0734 2.87733 22.0865 2.87733 22.0865C1.83686 24.1949 1.12495 26.4675 0.796382 28.7949C0.632096 31.2318 0.632096 33.7234 0.878525 36.1603Z" fill="white"/>
<path d="M50.2737 38.515C49.644 37.1733 48.0833 34.5173 48.0833 34.5173L30.1487 64.1709L47.6452 51.959C48.6857 51.2745 49.5345 50.3162 50.1368 49.2209C51.7797 45.8257 51.8071 41.9102 50.2737 38.515Z" fill="white"/>
<path d="M57.3928 28.74C56.9821 22.99 54.1345 17.7054 49.5619 14.2281L30.2036 0.729248C30.2036 0.729248 42.3059 18.1983 52.5464 35.5578C53.5869 37.3924 54.2714 39.3912 54.6 41.4721C54.7369 42.4031 54.7369 43.3614 54.6 44.3197C54.8738 43.8269 55.394 42.8138 55.394 42.8138C56.4345 40.7054 57.1464 38.4328 57.475 36.1054C57.6393 33.6685 57.6393 31.2043 57.3928 28.74Z" fill="white"/>
<path d="M75.9297 49.1662V16.3638C75.9297 16.2817 76.0119 16.1995 76.094 16.1995H96.9309C97.0131 16.1995 97.0952 16.2817 97.0952 16.3638V20.5531C97.0952 20.6352 97.0131 20.7174 96.9309 20.7174H80.9678V30.3828H94.5762C94.6583 30.3828 94.7405 30.465 94.7405 30.5471V34.6817C94.7405 34.7638 94.6583 34.8459 94.5762 34.8459H80.9678V44.8126H96.9583C97.0405 44.8126 97.1226 44.8948 97.1226 44.9769V49.1662C97.1226 49.2483 97.0405 49.3305 96.9583 49.3305H76.1214C76.0119 49.3305 75.9297 49.2757 75.9297 49.1662ZM127.789 49.2483L112.538 26.0293V49.1662C112.538 49.2483 112.456 49.3305 112.374 49.3305H107.664C107.582 49.3305 107.5 49.2483 107.5 49.1662V16.3912C107.5 16.309 107.582 16.2269 107.664 16.2269H112.018C112.073 16.2269 112.127 16.2543 112.155 16.309L127.433 39.5007V16.4186C127.433 16.3364 127.515 16.2543 127.598 16.2543H132.307C132.389 16.2543 132.471 16.3364 132.471 16.4186V49.1936C132.471 49.2757 132.389 49.3579 132.307 49.3579H127.954C127.871 49.3305 127.817 49.3031 127.789 49.2483ZM147.86 42.9781V44.5388C149.886 44.9769 151.939 45.2233 153.993 45.2507C156.019 45.196 158.045 44.9769 160.044 44.5388V37.1186L142.986 31.1495C142.931 31.1221 142.876 31.0674 142.876 30.9852V17.3495C142.876 17.2674 142.904 17.2126 142.986 17.1852C146.545 16.1995 150.214 15.6519 153.911 15.6245C157.607 15.6793 161.304 16.1995 164.89 17.1852C164.973 17.2126 165 17.2674 165 17.3495V22.4971C165 22.5793 164.918 22.6614 164.836 22.6614H160.208C160.126 22.6614 160.044 22.5793 160.044 22.4971V20.9364C158.018 20.4983 155.964 20.2519 153.911 20.2245C151.885 20.2519 149.858 20.4983 147.86 20.9364L147.887 27.9459L164.89 33.8876C164.945 33.915 165 33.9698 165 34.0519V48.1257C165 48.2079 164.973 48.2626 164.89 48.29C161.331 49.2757 157.662 49.8233 153.965 49.8507C150.269 49.796 146.573 49.2757 142.986 48.29C142.904 48.2626 142.876 48.2079 142.876 48.1257V42.9781C142.876 42.8959 142.958 42.8138 143.04 42.8138H147.64C147.723 42.7864 147.832 42.8412 147.86 42.9233C147.86 42.9507 147.86 42.9507 147.86 42.9781Z" fill="white"/>
</svg>
