<svg width="198" height="59" viewBox="0 0 198 59" fill="none" xmlns="http://www.w3.org/2000/svg">
<g clip-path="url(#clip0_93_4859)">
<path d="M16.7681 33.8992C18.4075 33.8992 20.007 33.3409 21.2999 32.3195L10.9033 21.6968C8.39741 25.0062 8.99722 29.7727 12.2362 32.3331C13.5424 33.3409 15.1286 33.8992 16.7681 33.8992Z" fill="white"/>
<path d="M47.6923 26.314C47.6923 24.6389 47.1459 23.0046 46.1462 21.6836L35.7495 32.3063C38.9885 34.8666 43.6403 34.2538 46.1462 30.9444C47.1459 29.6234 47.6923 27.9891 47.6923 26.314Z" fill="white"/>
<path d="M52.9297 14.751L48.3312 19.4495C52.0367 23.9845 51.4502 30.7395 47.0116 34.5255C43.1195 37.8485 37.468 37.8485 33.5759 34.5255L28.5242 39.687L23.4858 34.5391C19.0472 38.3252 12.436 37.7259 8.73054 33.1909C5.47825 29.2142 5.47825 23.4398 8.73054 19.4631L6.37129 17.0526L4.13201 14.751C1.42621 19.2997 0 24.5293 0 29.8543C0 45.9517 12.7692 58.9985 28.5242 58.9985C44.2792 58.9985 57.0484 45.9517 57.0484 29.8543C57.0617 24.5293 55.6222 19.2997 52.9297 14.751Z" fill="white"/>
<path d="M49.1568 9.74047C38.2936 -1.90363 20.246 -2.33943 8.84968 8.75992C8.51645 9.08677 8.19655 9.41362 7.88998 9.74047C7.18354 10.5031 6.51709 11.293 5.89062 12.1238L28.5234 35.2622L51.1561 12.1238C50.543 11.293 49.8632 10.5031 49.1568 9.74047ZM28.5234 4.52446C35.1879 4.52446 41.3992 7.15289 46.0644 11.9467L28.5234 29.8691L10.9823 11.9467C15.6475 7.15289 21.8588 4.52446 28.5234 4.52446Z" fill="white"/>
</g>
<path d="M82.0459 53.166C87.2085 53.166 92.3253 51.4681 95.3081 49.1277V34.1216H81.3576V40.7528H87.7592V44.5387C85.8318 45.5941 84.0192 46.0301 82.0459 46.0301C76.4014 46.0301 73.0515 41.6017 73.0515 36.2096C73.0515 29.9686 77.0439 26.3662 81.7247 26.3662C85.2812 26.3662 87.9198 27.9494 89.6866 29.6703L95.2393 24.9436C91.8434 20.9971 86.5431 18.9779 81.7476 18.9779C71.1011 18.9779 64.8601 26.5039 64.8601 36.2096C64.8601 47.0626 72.432 53.1889 82.0459 53.1889V53.166Z" fill="white"/>
<path d="M112.534 29.395C109.873 29.395 107.395 30.4963 105.582 32.6073H105.536V29.8309H98.1936V52.7989H105.536V41.2575C105.536 37.6781 107.28 35.9343 109.781 35.9343C112.213 35.9343 113.429 37.0357 113.429 40.8216V52.7989H120.771V39.0089C120.771 31.7583 117.33 29.372 112.534 29.372V29.395Z" fill="white"/>
<path d="M135.091 53.2578C142.364 53.2578 147.458 48.3934 147.458 41.3264C147.458 34.2593 142.364 29.372 135.091 29.372C127.679 29.372 122.677 34.3511 122.677 41.3264C122.677 48.3017 127.679 53.2578 135.091 53.2578ZM136.331 46.7185C133.417 46.7185 130.066 44.401 130.066 41.3264C130.066 38.2059 132.108 35.9343 135.068 35.9343C137.936 35.9343 140.047 38.137 140.047 41.3264C140.047 44.4698 137.867 46.7185 135.068 46.7185H136.331Z" fill="white"/>
<path d="M158.32 53.2578C164.584 53.2578 167.566 50.1143 167.566 45.8465C167.543 41.2805 164.79 40.0873 159.719 38.2517C157.562 37.4487 156.713 36.875 156.713 36.3014C156.713 35.3836 157.7 35.1312 158.342 35.1312C159.903 35.1312 161.899 35.9343 163.528 37.5405L167.016 32.286C164.354 30.3128 161.761 29.372 158.365 29.372C153.524 29.372 149.738 32.1484 149.738 36.6227C149.738 41.1658 153.088 43.0931 156.92 44.2863C159.742 45.1811 160.453 45.64 160.453 46.2596C160.453 47.0626 159.719 47.5215 158.388 47.5215C156.232 47.5215 154.281 46.7185 152.354 44.9287L148.866 49.8619C151.482 52.1335 154.717 53.2578 158.32 53.2578Z" fill="white"/>
<path d="M173.66 27.1005C176.207 27.1005 178.249 25.3567 178.249 22.8098C178.249 20.2858 176.207 18.542 173.66 18.542C171.113 18.542 169.071 20.2858 169.071 22.8098C169.071 25.3567 171.113 27.1005 173.66 27.1005ZM169.988 52.7989H177.308V29.8309H169.988V52.7989Z" fill="white"/>
<path d="M188.679 53.2578C194.942 53.2578 197.925 50.1143 197.925 45.8465C197.902 41.2805 195.149 40.0873 190.078 38.2517C187.921 37.4487 187.072 36.875 187.072 36.3014C187.072 35.3836 188.059 35.1312 188.701 35.1312C190.262 35.1312 192.258 35.9343 193.887 37.5405L197.375 32.286C194.713 30.3128 192.12 29.372 188.724 29.372C183.883 29.372 180.097 32.1484 180.097 36.6227C180.097 41.1658 183.447 43.0931 187.279 44.2863C190.101 45.1811 190.812 45.64 190.812 46.2596C190.812 47.0626 190.078 47.5215 188.747 47.5215C186.591 47.5215 184.64 46.7185 182.713 44.9287L179.225 49.8619C181.841 52.1335 185.076 53.2578 188.679 53.2578Z" fill="white"/>
<defs>
<clipPath id="clip0_93_4859">
<rect width="57.0484" height="58.2886" fill="white" transform="translate(0 0.711182)"/>
</clipPath>
</defs>
</svg>
