<svg width="169" height="67" viewBox="0 0 169 67" fill="none" xmlns="http://www.w3.org/2000/svg">
<path d="M71.5474 15.7145H77.6333V51.6143H71.5474V15.7145ZM83.7191 15.7145H96.1302C98.8312 15.7145 101.088 16.0222 102.831 16.6035C104.575 17.1847 105.977 18.0053 106.969 19.031C107.952 20.0005 108.681 21.1986 109.088 22.5184C109.5 23.8586 109.708 25.2533 109.704 26.6554C109.71 28.1474 109.503 29.6327 109.088 31.0659C108.684 32.4473 107.958 33.7129 106.969 34.7585C105.803 35.9019 104.386 36.7567 102.831 37.2544C101.088 37.8698 98.8996 38.1775 96.2328 38.1775H89.7024V51.6143H83.7191V15.7145ZM96.096 33.1515C97.376 33.1894 98.6546 33.0397 99.8911 32.7071C100.756 32.4782 101.554 32.0443 102.216 31.442C102.779 30.895 103.191 30.212 103.413 29.459C103.638 28.6112 103.753 27.7378 103.755 26.8605C103.775 25.9707 103.659 25.083 103.413 24.2279C103.185 23.4987 102.759 22.8475 102.182 22.3474C101.494 21.7863 100.687 21.3888 99.8227 21.185C98.6041 20.8843 97.3509 20.7463 96.096 20.7747H89.7708V33.1515H96.096V33.1515ZM137.09 15.7145V20.9456H120.269V31.1001H136.099V36.3654H120.269V51.6143H114.183V15.7145H137.09ZM146.048 40.6392C146.321 42.9983 147.176 44.7078 148.578 45.7677C149.98 46.8276 152.134 47.3747 154.937 47.3747C156.105 47.4083 157.27 47.2583 158.391 46.9302C159.21 46.6728 159.975 46.2672 160.647 45.7336C161.197 45.2574 161.609 44.6438 161.844 43.9557C162.082 43.2511 162.197 42.511 162.186 41.7675C162.193 41.2001 162.112 40.635 161.946 40.0922C161.758 39.5242 161.455 39.0007 161.057 38.5536C160.559 38.0367 159.968 37.619 159.314 37.3228C158.416 36.9358 157.475 36.6602 156.51 36.5022L151.929 35.6474C150.29 35.3572 148.678 34.9341 147.108 34.3824C145.814 33.939 144.609 33.2674 143.552 32.3994C142.598 31.5887 141.858 30.5553 141.398 29.3906C140.885 28.0019 140.642 26.5283 140.68 25.0485C140.626 23.5496 140.951 22.0614 141.627 20.7223C142.302 19.3832 143.306 18.2368 144.544 17.3898C145.844 16.4826 147.307 15.8327 148.852 15.4752C150.621 15.0527 152.435 14.8461 154.254 14.8598C156.715 14.8598 158.801 15.1333 160.476 15.7145C161.966 16.1785 163.349 16.934 164.545 17.9369C165.543 18.8222 166.346 19.905 166.904 21.1166C167.438 22.3145 167.806 23.5799 167.998 24.8775L162.254 25.7665C161.775 23.7492 160.989 22.2791 159.827 21.2875C158.664 20.296 156.852 19.8174 154.322 19.8174C153.115 19.7978 151.909 19.9241 150.732 20.1934C149.896 20.3933 149.106 20.7532 148.407 21.2533C147.857 21.6601 147.421 22.2018 147.142 22.8261C146.896 23.4107 146.768 24.0382 146.766 24.6724C146.766 26.2451 147.176 27.4076 148.031 28.194C148.886 28.9803 150.39 29.5616 152.544 30.006L157.502 30.9634C161.297 31.6814 164.066 32.878 165.844 34.5533C167.622 36.2287 168.511 38.6904 168.511 41.8701C168.523 43.3128 168.244 44.7431 167.69 46.0755C167.135 47.3834 166.266 48.5342 165.16 49.4261C163.906 50.4451 162.466 51.2114 160.921 51.6826C159.004 52.2638 157.008 52.5407 155.006 52.5032C150.424 52.5032 146.8 51.5459 144.202 49.597C141.603 47.6482 140.133 44.6736 139.894 40.6392H146.048V40.6392Z" fill="white"/>
<path d="M28.9122 0.568359L0.192383 17.1506V50.3151L28.9122 66.8974L57.632 50.3151V17.1506L28.9122 0.568359Z" fill="white" fill-opacity="0.2"/>
<path fill-rule="evenodd" clip-rule="evenodd" d="M57.5294 50.306L57.632 50.2468V50.1981L57.5294 50.2574V17.2532L57.3905 17.173L57.5898 17.0579L28.9122 0.5L0.192431 17.0823V17.194L0.0898438 17.2532V50.4177L28.8096 67L57.5294 50.4177V50.306ZM33.5646 30.9296C33.6904 31.1436 33.8013 31.3667 33.8963 31.5973C34.162 32.2427 34.2979 32.9343 34.2961 33.6324V34.0385C34.2979 34.7367 34.162 35.4283 33.8963 36.0736C33.6305 36.719 33.2401 37.3053 32.7475 37.799C32.255 38.2927 31.6699 38.6839 31.026 38.9503C30.6427 39.1088 30.243 39.2213 29.8353 39.2859V61.2412C30.468 61.3413 31.0794 61.5562 31.6389 61.8776L51.6841 50.2935V50.0776C51.6824 49.3794 51.8183 48.6878 52.084 48.0425C52.3498 47.3971 52.7402 46.8108 53.2327 46.3171C53.6031 45.9459 54.0258 45.6326 54.4865 45.3868V22.318C54.0258 22.0722 53.6031 21.7589 53.2327 21.3877C52.8579 21.0121 52.5423 20.5827 52.2957 20.1146L33.5646 30.9296ZM51.6841 17.4116V17.6272C51.6837 17.814 51.6931 18.0004 51.7121 18.1855L32.2517 29.4336C31.8777 29.1425 31.4656 28.9025 31.026 28.7207C30.382 28.4543 29.692 28.3181 28.9953 28.3199H28.5902C27.8936 28.3181 27.2035 28.4543 26.5595 28.7207C26.1543 28.8883 25.7724 29.1054 25.4222 29.3663L5.91596 18.0918C5.92911 17.9375 5.93553 17.7825 5.93513 17.6272V17.3812L25.9743 5.82731C26.7708 6.28338 27.672 6.52515 28.5902 6.52841H28.9953C29.9228 6.53121 30.8344 6.28931 31.6386 5.82738L51.6841 17.4116ZM3.13277 22.318V45.3867C3.59346 45.6326 4.01614 45.9459 4.38654 46.3171C4.87912 46.8108 5.2695 47.3971 5.53526 48.0425C5.80102 48.6878 5.93691 49.3794 5.93513 50.0776V50.2935L25.9636 61.8679C26.5284 61.5462 27.1457 61.3327 27.7839 61.2359V39.2912C27.3646 39.2274 26.9534 39.1132 26.5595 38.9503C25.9156 38.6839 25.3305 38.2927 24.838 37.799C24.3454 37.3053 23.955 36.719 23.6892 36.0736C23.4235 35.4283 23.2876 34.7367 23.2894 34.0385V33.6324C23.2876 32.9343 23.4235 32.2427 23.6892 31.5973C23.7714 31.3978 23.8655 31.2039 23.9708 31.0166L5.26775 20.2178C5.02999 20.6459 4.73363 21.0398 4.38654 21.3877C4.01614 21.7589 3.59346 22.0722 3.13277 22.318Z" fill="white"/>
</svg>
