<svg width="253" height="41" viewBox="0 0 253 41" fill="none" xmlns="http://www.w3.org/2000/svg">
	<path d="M5.25 0.75H0.75V40.25H5.25V39.2435H1.67105V1.75649H5.25V0.75Z" fill="white" />
	<path d="M246.75 0.75H252.25V40.25H246.75V39.2435H251.224V1.75649H246.75V0.75Z" fill="white" />
	<path fill-rule="evenodd" clip-rule="evenodd" d="M16.847 26.9091C16.6395 26.4675 16.4968 26.1169 16.419 25.8571H16.3412V39.4545H19.3368V40H10V39.4545H12.9955V12.9221H10V12.3766H16.2634V15.6493H16.3412C16.7303 14.5584 17.3657 13.6623 18.2475 12.961C18.3609 12.8701 18.4785 12.7849 18.6 12.7054C19.451 12.1485 20.5006 11.8701 21.7488 11.8701C22.864 11.8701 23.9144 12.1169 24.8999 12.6104C25.8855 13.0779 26.7543 13.7143 27.5064 14.5195C28.2586 15.2987 28.8551 16.2208 29.296 17.2857C29.7369 18.3506 29.9573 19.4675 29.9573 20.6364C29.9573 21.8312 29.7239 22.974 29.2571 24.0649C28.8162 25.1299 28.2067 26.0779 27.4286 26.9091C26.6506 27.7403 25.7428 28.4026 24.7054 28.8961C23.6939 29.3896 22.6176 29.6364 21.4764 29.6364C20.5946 29.6364 19.8425 29.4805 19.2201 29.1688C18.6235 28.8831 18.1308 28.5455 17.7417 28.1558C17.3527 27.7403 17.0544 27.3247 16.847 26.9091ZM26.067 20.1688C26.067 18.974 26.0022 17.9091 25.8725 16.974C25.7428 16.013 25.5094 15.1948 25.1722 14.5195C25.1528 14.4773 25.1328 14.4357 25.1122 14.3947C24.8037 13.7798 24.3699 13.3019 23.8106 12.961C23.2401 12.5974 22.5009 12.4156 21.5932 12.4156C21.5332 12.4156 21.4739 12.4162 21.4152 12.4176C20.5353 12.4373 19.8036 12.6055 19.2201 12.9221C18.5976 13.2597 18.0919 13.6883 17.7028 14.2078C17.4175 14.5714 17.1841 14.961 17.0026 15.3766C16.9831 15.4286 16.9641 15.4817 16.9454 15.5361C16.8149 15.9168 16.7043 16.3571 16.6135 16.8571C16.6006 16.9286 16.588 17.0014 16.5759 17.0757C16.4908 17.5956 16.4255 18.1851 16.3801 18.8442C16.3542 19.5714 16.3412 20.4416 16.3412 21.4545C16.3412 22.3117 16.4061 23.1948 16.5357 24.1039C16.6654 25.013 16.9118 25.8442 17.2749 26.5974C17.638 27.3247 18.1437 27.9221 18.7921 28.3896C19.4664 28.8571 20.3482 29.0909 21.4375 29.0909C22.5009 29.0909 23.3438 28.8831 23.9662 28.4675C24.5887 28.0519 25.0555 27.4545 25.3668 26.6753C25.678 25.8961 25.8725 24.961 25.9503 23.8701C26.0281 22.7532 26.067 21.5195 26.067 20.1688Z" fill="white" />
	<path d="M35.784 28.5455H38.7795V1.54545H35.784V1H42.1252V28.5455H45.1208V29.0909H35.784V28.5455Z" fill="white" />
	<path fill-rule="evenodd" clip-rule="evenodd" d="M66.3191 29.3247C66.7859 29.1429 67.1879 28.9221 67.525 28.6623L67.2138 28.2338C66.9285 28.4416 66.6303 28.5974 66.3191 28.7013C66.0078 28.8052 65.7096 28.8571 65.4243 28.8571C64.9834 28.8571 64.6462 28.7273 64.4128 28.4675C64.1794 28.2078 64.0627 27.7013 64.0627 26.9481V17.2468C64.0627 16.5455 63.9589 15.8831 63.7514 15.2597C63.544 14.6104 63.1938 14.039 62.7011 13.5455C62.2083 13.026 61.5599 12.6234 60.7559 12.3377C59.9519 12.026 58.9534 11.8701 57.7603 11.8701C56.7748 11.8701 55.893 11.987 55.1149 12.2208C54.3628 12.4545 53.7274 12.7792 53.2087 13.1948C52.7159 13.5844 52.3398 14.039 52.0805 14.5584C51.8211 15.0779 51.6915 15.6234 51.6915 16.1948C51.6915 16.6883 51.7952 17.0909 52.0027 17.4026C52.2102 17.7143 52.7418 17.8701 53.5977 17.8701C54.0905 17.8701 54.4665 17.7532 54.7259 17.5195C54.9853 17.2597 55.1149 16.948 55.1149 16.5844C55.1149 16.3766 55.076 16.0649 54.9982 15.6493C54.9204 15.2078 54.8815 14.7662 54.8815 14.3247C54.8815 13.6494 55.1538 13.1688 55.6985 12.8831C56.2691 12.5714 56.9823 12.4156 57.8382 12.4156C58.4865 12.4156 59.0053 12.5065 59.3943 12.6883C59.7833 12.8701 60.0816 13.1429 60.2891 13.5065C60.4965 13.8442 60.6392 14.2597 60.717 14.7532C60.7948 15.2468 60.8337 15.8052 60.8337 16.4286C60.8337 17.2078 60.7689 17.8312 60.6392 18.2987C60.5354 18.7403 60.328 19.1169 60.0167 19.4286C59.7055 19.7143 59.2646 19.961 58.694 20.1688C58.1494 20.3766 57.4491 20.6234 56.5933 20.9091C55.8671 21.1429 55.1409 21.3636 54.4147 21.5714C53.7144 21.7792 53.066 22.0519 52.4695 22.3896C51.8989 22.7013 51.4321 23.1299 51.069 23.6753C50.7059 24.2208 50.5244 24.948 50.5244 25.8571C50.5244 26.2467 50.5762 26.6753 50.68 27.1429C50.8096 27.5844 51.056 27.987 51.4191 28.3506C51.7822 28.7143 52.288 29.013 52.9364 29.2468C53.5847 29.5065 54.4536 29.6364 55.5429 29.6364C56.5025 29.6364 57.2935 29.5195 57.916 29.2857C58.5384 29.0779 59.0312 28.8182 59.3943 28.5065C59.7833 28.1688 60.0686 27.8312 60.2502 27.4935C60.4317 27.1299 60.5743 26.8312 60.6781 26.5974H60.7559C60.9634 27.5584 61.3394 28.3117 61.8841 28.8571C62.4547 29.3766 63.3624 29.6364 64.6073 29.6364C65.2816 29.6364 65.8522 29.5325 66.3191 29.3247ZM60.6392 19.5455H60.717V23.4416C60.717 23.961 60.6651 24.5455 60.5614 25.1948C60.4836 25.8182 60.302 26.4026 60.0167 26.9481C59.7574 27.4935 59.3554 27.948 58.8107 28.3117C58.292 28.6753 57.6047 28.8571 56.7489 28.8571C56.1524 28.8571 55.6596 28.7532 55.2705 28.5455C54.9075 28.3377 54.6222 28.0779 54.4147 27.7662C54.2072 27.4286 54.0645 27.0519 53.9867 26.6364C53.9089 26.2208 53.87 25.8182 53.87 25.4286C53.87 24.5195 54.0905 23.7662 54.5314 23.1688C54.9723 22.5455 55.6077 22.0649 56.4376 21.7273L59.3554 20.5584C60.1594 20.2208 60.5873 19.8831 60.6392 19.5455Z" fill="white" />
	<path d="M87.7331 24.8052C87.6553 25.0909 87.4997 25.5065 87.2663 26.0519C87.0588 26.5714 86.7087 27.1039 86.2159 27.6493C85.7491 28.1688 85.1007 28.6364 84.2708 29.0519C83.4668 29.4416 82.4164 29.6364 81.1196 29.6364C80.134 29.6364 79.1096 29.4805 78.0462 29.1688C76.9829 28.8571 76.0103 28.3636 75.1285 27.6883C74.2467 26.987 73.5205 26.0779 72.9499 24.961C72.4053 23.8442 72.1329 22.4675 72.1329 20.8312C72.1329 19.5584 72.3664 18.3766 72.8332 17.2857C73.326 16.1948 73.9744 15.2468 74.7784 14.4416C75.6083 13.6364 76.5679 13.013 77.6572 12.5714C78.7724 12.1039 79.9525 11.8701 81.1974 11.8701C81.8977 11.8701 82.6109 11.961 83.3371 12.1429C84.0892 12.2987 84.7635 12.5584 85.36 12.9221C85.9825 13.2597 86.4882 13.7143 86.8773 14.2857C87.2922 14.8312 87.4997 15.5065 87.4997 16.3117C87.4997 16.8571 87.3182 17.3117 86.9551 17.6753C86.6179 18.013 86.1251 18.1818 85.4767 18.1818C85.0358 18.1818 84.6079 18.0909 84.1929 17.9091C83.8039 17.7013 83.6094 17.3636 83.6094 16.8961C83.6094 16.5325 83.7002 16.0909 83.8817 15.5714C84.0633 15.0519 84.154 14.6234 84.154 14.2857C84.154 13.6883 83.8558 13.2338 83.2593 12.9221C82.6628 12.5844 81.9755 12.4156 81.1974 12.4156C80.6268 12.4156 80.0303 12.4935 79.4079 12.6493C78.8113 12.7792 78.2537 13.1299 77.735 13.7013C77.2422 14.2727 76.8273 15.1299 76.4901 16.2727C76.1789 17.4156 76.0233 18.974 76.0233 20.948C76.0233 22.0649 76.0881 23.1169 76.2178 24.1039C76.3734 25.0909 76.6328 25.961 76.9958 26.7143C77.3849 27.4416 77.9036 28.026 78.552 28.4675C79.2263 28.8831 80.0951 29.0909 81.1585 29.0909C82.2997 29.0909 83.2333 28.9221 83.9595 28.5844C84.7116 28.2467 85.2952 27.8442 85.7102 27.3766C86.1511 26.8831 86.4753 26.3896 86.6827 25.8961C86.8902 25.4026 87.0458 25 87.1496 24.6883L87.7331 24.8052Z" fill="white" />
	<path fill-rule="evenodd" clip-rule="evenodd" d="M97.4762 20.2468C97.5022 19.961 97.5152 19.6883 97.5152 19.4286H109.497C109.497 18 109.251 16.8052 108.758 15.8442C108.291 14.8831 107.695 14.1169 106.969 13.5455C106.268 12.9481 105.503 12.5195 104.673 12.2597C103.843 12 103.065 11.8701 102.339 11.8701C101.12 11.8701 99.979 12.1299 98.9157 12.6493C97.8523 13.1429 96.9186 13.8052 96.1146 14.6364C95.3366 15.4675 94.7141 16.4286 94.2473 17.5195C93.8064 18.5844 93.5859 19.6883 93.5859 20.8312C93.5859 22.1558 93.8064 23.3636 94.2473 24.4545C94.6882 25.5195 95.3106 26.4416 96.1146 27.2208C96.9186 28 97.8653 28.5974 98.9546 29.013C100.07 29.4286 101.276 29.6364 102.573 29.6364C103.869 29.6364 104.92 29.4416 105.724 29.0519C106.554 28.6364 107.202 28.1688 107.669 27.6493C108.162 27.1039 108.512 26.5714 108.719 26.0519C108.953 25.5065 109.108 25.0909 109.186 24.8052L108.603 24.6883C108.499 25 108.343 25.4026 108.136 25.8961C107.928 26.3896 107.604 26.8831 107.163 27.3766C106.748 27.8442 106.165 28.2467 105.412 28.5844C104.686 28.9221 103.753 29.0909 102.611 29.0909C101.47 29.0909 100.55 28.8442 99.8493 28.3506C99.175 27.8571 98.6563 27.2338 98.2932 26.4805C97.956 25.7273 97.7356 24.8831 97.6319 23.9481C97.5281 23.013 97.4762 22.1169 97.4762 21.2597V20.2468ZM105.607 17.8701C105.607 18.1818 105.581 18.5195 105.529 18.8831H97.554C97.6059 18.026 97.7097 17.2078 97.8653 16.4286C98.0468 15.6493 98.3062 14.961 98.6433 14.3636C98.9805 13.7662 99.4344 13.2987 100.005 12.961C100.576 12.5974 101.302 12.4156 102.184 12.4156C102.676 12.4156 103.13 12.4935 103.545 12.6493C103.986 12.7792 104.349 13.013 104.634 13.3506C104.946 13.6883 105.179 14.1429 105.335 14.7143C105.516 15.2857 105.607 16.013 105.607 16.8961V17.8701Z" fill="white" />
	<path d="M114.983 28.5455H117.978V1.54545H114.983V1H121.324V16.3117H121.402C121.531 15.974 121.752 15.5584 122.063 15.0649C122.374 14.5455 122.789 14.0649 123.308 13.6234C123.853 13.1558 124.501 12.7662 125.253 12.4545C126.031 12.1169 126.952 11.9481 128.015 11.9481C129.727 11.9481 131.115 12.3636 132.178 13.1948C133.267 14.026 133.812 15.3506 133.812 17.1688V28.5455H136.807V29.0909H127.471V28.5455H130.466V15.961C130.466 14.948 130.22 14.1169 129.727 13.4675C129.26 12.8182 128.521 12.4935 127.509 12.4935C126.68 12.4935 125.889 12.6753 125.136 13.039C124.384 13.4026 123.723 13.9091 123.152 14.5584C122.582 15.2078 122.128 15.974 121.791 16.8571C121.48 17.7403 121.324 18.7013 121.324 19.7403V28.5455H124.319V29.0909H114.983V28.5455Z" fill="white" />
	<path fill-rule="evenodd" clip-rule="evenodd" d="M143.084 17.2078C142.539 18.2987 142.267 19.4805 142.267 20.7532C142.267 21.974 142.526 23.1299 143.045 24.2208C143.563 25.2857 144.238 26.2208 145.068 27.026C145.923 27.8312 146.896 28.4675 147.985 28.9351C149.075 29.4026 150.19 29.6364 151.331 29.6364C152.472 29.6364 153.587 29.4026 154.677 28.9351C155.766 28.4675 156.726 27.8312 157.556 27.026C158.411 26.2208 159.099 25.2857 159.617 24.2208C160.136 23.1299 160.395 21.974 160.395 20.7532C160.395 19.4805 160.11 18.2987 159.54 17.2078C158.995 16.1169 158.282 15.1818 157.4 14.4026C156.544 13.5974 155.571 12.974 154.482 12.5325C153.419 12.0909 152.368 11.8701 151.331 11.8701C150.294 11.8701 149.23 12.0909 148.141 12.5325C147.078 12.974 146.105 13.5974 145.223 14.4026C144.367 15.1818 143.654 16.1169 143.084 17.2078ZM146.585 25.1558C146.3 24.0649 146.157 22.5974 146.157 20.7532C146.157 19.1948 146.261 17.8961 146.468 16.8571C146.676 15.7922 146.987 14.9351 147.402 14.2857C147.843 13.6104 148.387 13.1299 149.036 12.8442C149.684 12.5584 150.449 12.4156 151.331 12.4156C152.213 12.4156 152.978 12.5584 153.626 12.8442C154.275 13.1299 154.806 13.6104 155.221 14.2857C155.662 14.9351 155.986 15.7922 156.194 16.8571C156.401 17.8961 156.505 19.1948 156.505 20.7532C156.505 22.5974 156.363 24.0649 156.077 25.1558C155.792 26.2468 155.416 27.0909 154.949 27.6883C154.482 28.2597 153.938 28.6364 153.315 28.8182C152.693 29 152.031 29.0909 151.331 29.0909C150.631 29.0909 149.969 29 149.347 28.8182C148.725 28.6364 148.18 28.2597 147.713 27.6883C147.246 27.0909 146.87 26.2468 146.585 25.1558Z" fill="white" />
	<path d="M165.946 28.5455H168.941V1.54545H165.946V1H172.287V28.5455H175.282V29.0909H165.946V28.5455Z" fill="white" />
	<path fill-rule="evenodd" clip-rule="evenodd" d="M198.076 1H191.734V1.54545H194.73V15.4935H194.652C194.289 14.4805 193.667 13.6234 192.785 12.9221C191.903 12.2208 190.749 11.8701 189.322 11.8701C188.207 11.8701 187.157 12.1169 186.171 12.6104C185.186 13.0779 184.317 13.7143 183.565 14.5195C182.813 15.2987 182.216 16.2208 181.775 17.2857C181.334 18.3506 181.114 19.4675 181.114 20.6364C181.114 21.8312 181.334 22.974 181.775 24.0649C182.242 25.1299 182.865 26.0779 183.643 26.9091C184.421 27.7403 185.315 28.4026 186.327 28.8961C187.364 29.3896 188.454 29.6364 189.595 29.6364C190.477 29.6364 191.216 29.4805 191.812 29.1688C192.435 28.8831 192.94 28.5325 193.329 28.1169C193.744 27.7013 194.056 27.2727 194.263 26.8312C194.471 26.3896 194.626 26.013 194.73 25.7013H194.808V29.0909H201.071V28.5455H198.076V1ZM185.121 23.8701C185.043 22.7532 185.004 21.5195 185.004 20.1688C185.004 18.974 185.069 17.9091 185.199 16.974C185.328 16.013 185.549 15.1948 185.86 14.5195C186.197 13.8442 186.651 13.3247 187.222 12.961C187.818 12.5974 188.57 12.4156 189.478 12.4156C190.438 12.4156 191.229 12.5844 191.851 12.9221C192.474 13.2597 192.979 13.6883 193.368 14.2078C193.628 14.5714 193.848 14.961 194.03 15.3766C194.211 15.7922 194.354 16.2857 194.458 16.8571C194.561 17.4286 194.626 18.0909 194.652 18.8442C194.704 19.5714 194.73 20.4416 194.73 21.4545C194.73 22.3117 194.665 23.1948 194.535 24.1039C194.406 25.013 194.159 25.8442 193.796 26.5974C193.433 27.3247 192.914 27.9221 192.24 28.3896C191.592 28.8571 190.723 29.0909 189.634 29.0909C188.57 29.0909 187.727 28.8831 187.105 28.4675C186.482 28.0519 186.016 27.4545 185.704 26.6753C185.393 25.8961 185.199 24.961 185.121 23.8701Z" fill="white" />
	<path fill-rule="evenodd" clip-rule="evenodd" d="M210.555 19.4286C210.555 19.6883 210.542 19.961 210.516 20.2468V21.2597C210.516 22.1169 210.568 23.013 210.671 23.9481C210.775 24.8831 210.996 25.7273 211.333 26.4805C211.696 27.2338 212.215 27.8571 212.889 28.3506C213.589 28.8442 214.51 29.0909 215.651 29.0909C216.792 29.0909 217.726 28.9221 218.452 28.5844C219.204 28.2467 219.788 27.8442 220.203 27.3766C220.644 26.8831 220.968 26.3896 221.175 25.8961C221.383 25.4026 221.538 25 221.642 24.6883L222.226 24.8052C222.148 25.0909 221.992 25.5065 221.759 26.0519C221.551 26.5714 221.201 27.1039 220.708 27.6493C220.242 28.1688 219.593 28.6364 218.763 29.0519C217.959 29.4416 216.909 29.6364 215.612 29.6364C214.315 29.6364 213.109 29.4286 211.994 29.013C210.905 28.5974 209.958 28 209.154 27.2208C208.35 26.4416 207.728 25.5195 207.287 24.4545C206.846 23.3636 206.626 22.1558 206.626 20.8312C206.626 19.6883 206.846 18.5844 207.287 17.5195C207.754 16.4286 208.376 15.4675 209.154 14.6364C209.958 13.8052 210.892 13.1429 211.955 12.6493C213.019 12.1299 214.16 11.8701 215.379 11.8701C216.105 11.8701 216.883 12 217.713 12.2597C218.543 12.5195 219.308 12.9481 220.008 13.5455C220.734 14.1169 221.331 14.8831 221.798 15.8442C222.291 16.8052 222.537 18 222.537 19.4286H210.555ZM218.569 18.8831C218.621 18.5195 218.647 18.1818 218.647 17.8701V16.8961C218.647 16.013 218.556 15.2857 218.374 14.7143C218.219 14.1429 217.985 13.6883 217.674 13.3506C217.389 13.013 217.026 12.7792 216.585 12.6493C216.17 12.4935 215.716 12.4156 215.223 12.4156C214.341 12.4156 213.615 12.5974 213.045 12.961C212.474 13.2987 212.02 13.7662 211.683 14.3636C211.346 14.961 211.086 15.6493 210.905 16.4286C210.749 17.2078 210.646 18.026 210.594 18.8831H218.569Z" fill="white" />
	<path d="M231.096 28.5455H228.1V29.0909H237.826V28.5455H234.441V19.6234C234.441 18.5325 234.571 17.5714 234.83 16.7403C235.116 15.8831 235.453 15.1558 235.842 14.5584C236.257 13.961 236.698 13.5065 237.165 13.1948C237.631 12.8831 238.072 12.7273 238.487 12.7273C239.395 12.7273 239.849 13.1429 239.849 13.974C239.849 14.3117 239.823 14.5714 239.771 14.7532C239.719 14.9351 239.654 15.1039 239.577 15.2597C239.525 15.3896 239.473 15.5325 239.421 15.6883C239.369 15.8182 239.343 16 239.343 16.2338C239.343 16.961 239.914 17.3247 241.055 17.3247C241.574 17.3247 242.027 17.1818 242.416 16.8961C242.805 16.6104 243 16.039 243 15.1818C243 14.7922 242.935 14.4026 242.805 14.013C242.676 13.6234 242.468 13.2857 242.183 13C241.898 12.6883 241.535 12.4416 241.094 12.2597C240.653 12.0519 240.134 11.9481 239.538 11.9481C238.708 11.9481 237.994 12.1039 237.398 12.4156C236.827 12.7273 236.335 13.1169 235.92 13.5844C235.505 14.026 235.18 14.4935 234.947 14.987C234.714 15.4805 234.545 15.9221 234.441 16.3117H234.363V12.3766H228.1V12.9221H231.096V28.5455Z" fill="white" />
	<path d="M5.25 0.75H0.75V40.25H5.25V39.2435H1.67105V1.75649H5.25V0.75Z" stroke="white" stroke-width="0.75" />
	<path d="M246.75 0.75H252.25V40.25H246.75V39.2435H251.224V1.75649H246.75V0.75Z" stroke="white" stroke-width="0.75" />
	<path fill-rule="evenodd" clip-rule="evenodd" d="M16.847 26.9091C16.6395 26.4675 16.4968 26.1169 16.419 25.8571H16.3412V39.4545H19.3368V40H10V39.4545H12.9955V12.9221H10V12.3766H16.2634V15.6493H16.3412C16.7303 14.5584 17.3657 13.6623 18.2475 12.961C18.3609 12.8701 18.4785 12.7849 18.6 12.7054C19.451 12.1485 20.5006 11.8701 21.7488 11.8701C22.864 11.8701 23.9144 12.1169 24.8999 12.6104C25.8855 13.0779 26.7543 13.7143 27.5064 14.5195C28.2586 15.2987 28.8551 16.2208 29.296 17.2857C29.7369 18.3506 29.9573 19.4675 29.9573 20.6364C29.9573 21.8312 29.7239 22.974 29.2571 24.0649C28.8162 25.1299 28.2067 26.0779 27.4286 26.9091C26.6506 27.7403 25.7428 28.4026 24.7054 28.8961C23.6939 29.3896 22.6176 29.6364 21.4764 29.6364C20.5946 29.6364 19.8425 29.4805 19.2201 29.1688C18.6235 28.8831 18.1308 28.5455 17.7417 28.1558C17.3527 27.7403 17.0544 27.3247 16.847 26.9091ZM26.067 20.1688C26.067 18.974 26.0022 17.9091 25.8725 16.974C25.7428 16.013 25.5094 15.1948 25.1722 14.5195C25.1528 14.4773 25.1328 14.4357 25.1122 14.3947C24.8037 13.7798 24.3699 13.3019 23.8106 12.961C23.2401 12.5974 22.5009 12.4156 21.5932 12.4156C21.5332 12.4156 21.4739 12.4162 21.4152 12.4176C20.5353 12.4373 19.8036 12.6055 19.2201 12.9221C18.5976 13.2597 18.0919 13.6883 17.7028 14.2078C17.4175 14.5714 17.1841 14.961 17.0026 15.3766C16.9831 15.4286 16.9641 15.4817 16.9454 15.5361C16.8149 15.9168 16.7043 16.3571 16.6135 16.8571C16.6006 16.9286 16.588 17.0014 16.5759 17.0757C16.4908 17.5956 16.4255 18.1851 16.3801 18.8442C16.3542 19.5714 16.3412 20.4416 16.3412 21.4545C16.3412 22.3117 16.4061 23.1948 16.5357 24.1039C16.6654 25.013 16.9118 25.8442 17.2749 26.5974C17.638 27.3247 18.1437 27.9221 18.7921 28.3896C19.4664 28.8571 20.3482 29.0909 21.4375 29.0909C22.5009 29.0909 23.3438 28.8831 23.9662 28.4675C24.5887 28.0519 25.0555 27.4545 25.3668 26.6753C25.678 25.8961 25.8725 24.961 25.9503 23.8701C26.0281 22.7532 26.067 21.5195 26.067 20.1688Z" stroke="white" stroke-width="0.75" />
	<path d="M35.784 28.5455H38.7795V1.54545H35.784V1H42.1252V28.5455H45.1208V29.0909H35.784V28.5455Z" stroke="white" stroke-width="0.75" />
	<path fill-rule="evenodd" clip-rule="evenodd" d="M66.3191 29.3247C66.7859 29.1429 67.1879 28.9221 67.525 28.6623L67.2138 28.2338C66.9285 28.4416 66.6303 28.5974 66.3191 28.7013C66.0078 28.8052 65.7096 28.8571 65.4243 28.8571C64.9834 28.8571 64.6462 28.7273 64.4128 28.4675C64.1794 28.2078 64.0627 27.7013 64.0627 26.9481V17.2468C64.0627 16.5455 63.9589 15.8831 63.7514 15.2597C63.544 14.6104 63.1938 14.039 62.7011 13.5455C62.2083 13.026 61.5599 12.6234 60.7559 12.3377C59.9519 12.026 58.9534 11.8701 57.7603 11.8701C56.7748 11.8701 55.893 11.987 55.1149 12.2208C54.3628 12.4545 53.7274 12.7792 53.2087 13.1948C52.7159 13.5844 52.3398 14.039 52.0805 14.5584C51.8211 15.0779 51.6915 15.6234 51.6915 16.1948C51.6915 16.6883 51.7952 17.0909 52.0027 17.4026C52.2102 17.7143 52.7418 17.8701 53.5977 17.8701C54.0905 17.8701 54.4665 17.7532 54.7259 17.5195C54.9853 17.2597 55.1149 16.948 55.1149 16.5844C55.1149 16.3766 55.076 16.0649 54.9982 15.6493C54.9204 15.2078 54.8815 14.7662 54.8815 14.3247C54.8815 13.6494 55.1538 13.1688 55.6985 12.8831C56.2691 12.5714 56.9823 12.4156 57.8382 12.4156C58.4865 12.4156 59.0053 12.5065 59.3943 12.6883C59.7833 12.8701 60.0816 13.1429 60.2891 13.5065C60.4965 13.8442 60.6392 14.2597 60.717 14.7532C60.7948 15.2468 60.8337 15.8052 60.8337 16.4286C60.8337 17.2078 60.7689 17.8312 60.6392 18.2987C60.5354 18.7403 60.328 19.1169 60.0167 19.4286C59.7055 19.7143 59.2646 19.961 58.694 20.1688C58.1494 20.3766 57.4491 20.6234 56.5933 20.9091C55.8671 21.1429 55.1409 21.3636 54.4147 21.5714C53.7144 21.7792 53.066 22.0519 52.4695 22.3896C51.8989 22.7013 51.4321 23.1299 51.069 23.6753C50.7059 24.2208 50.5244 24.948 50.5244 25.8571C50.5244 26.2467 50.5762 26.6753 50.68 27.1429C50.8096 27.5844 51.056 27.987 51.4191 28.3506C51.7822 28.7143 52.288 29.013 52.9364 29.2468C53.5847 29.5065 54.4536 29.6364 55.5429 29.6364C56.5025 29.6364 57.2935 29.5195 57.916 29.2857C58.5384 29.0779 59.0312 28.8182 59.3943 28.5065C59.7833 28.1688 60.0686 27.8312 60.2502 27.4935C60.4317 27.1299 60.5743 26.8312 60.6781 26.5974H60.7559C60.9634 27.5584 61.3394 28.3117 61.8841 28.8571C62.4547 29.3766 63.3624 29.6364 64.6073 29.6364C65.2816 29.6364 65.8522 29.5325 66.3191 29.3247ZM60.6392 19.5455H60.717V23.4416C60.717 23.961 60.6651 24.5455 60.5614 25.1948C60.4836 25.8182 60.302 26.4026 60.0167 26.9481C59.7574 27.4935 59.3554 27.948 58.8107 28.3117C58.292 28.6753 57.6047 28.8571 56.7489 28.8571C56.1524 28.8571 55.6596 28.7532 55.2705 28.5455C54.9075 28.3377 54.6222 28.0779 54.4147 27.7662C54.2072 27.4286 54.0645 27.0519 53.9867 26.6364C53.9089 26.2208 53.87 25.8182 53.87 25.4286C53.87 24.5195 54.0905 23.7662 54.5314 23.1688C54.9723 22.5455 55.6077 22.0649 56.4376 21.7273L59.3554 20.5584C60.1594 20.2208 60.5873 19.8831 60.6392 19.5455Z" stroke="white" stroke-width="0.75" />
	<path d="M87.7331 24.8052C87.6553 25.0909 87.4997 25.5065 87.2663 26.0519C87.0588 26.5714 86.7087 27.1039 86.2159 27.6493C85.7491 28.1688 85.1007 28.6364 84.2708 29.0519C83.4668 29.4416 82.4164 29.6364 81.1196 29.6364C80.134 29.6364 79.1096 29.4805 78.0462 29.1688C76.9829 28.8571 76.0103 28.3636 75.1285 27.6883C74.2467 26.987 73.5205 26.0779 72.9499 24.961C72.4053 23.8442 72.1329 22.4675 72.1329 20.8312C72.1329 19.5584 72.3664 18.3766 72.8332 17.2857C73.326 16.1948 73.9744 15.2468 74.7784 14.4416C75.6083 13.6364 76.5679 13.013 77.6572 12.5714C78.7724 12.1039 79.9525 11.8701 81.1974 11.8701C81.8977 11.8701 82.6109 11.961 83.3371 12.1429C84.0892 12.2987 84.7635 12.5584 85.36 12.9221C85.9825 13.2597 86.4882 13.7143 86.8773 14.2857C87.2922 14.8312 87.4997 15.5065 87.4997 16.3117C87.4997 16.8571 87.3182 17.3117 86.9551 17.6753C86.6179 18.013 86.1251 18.1818 85.4767 18.1818C85.0358 18.1818 84.6079 18.0909 84.1929 17.9091C83.8039 17.7013 83.6094 17.3636 83.6094 16.8961C83.6094 16.5325 83.7002 16.0909 83.8817 15.5714C84.0633 15.0519 84.154 14.6234 84.154 14.2857C84.154 13.6883 83.8558 13.2338 83.2593 12.9221C82.6628 12.5844 81.9755 12.4156 81.1974 12.4156C80.6268 12.4156 80.0303 12.4935 79.4079 12.6493C78.8113 12.7792 78.2537 13.1299 77.735 13.7013C77.2422 14.2727 76.8273 15.1299 76.4901 16.2727C76.1789 17.4156 76.0233 18.974 76.0233 20.948C76.0233 22.0649 76.0881 23.1169 76.2178 24.1039C76.3734 25.0909 76.6328 25.961 76.9958 26.7143C77.3849 27.4416 77.9036 28.026 78.552 28.4675C79.2263 28.8831 80.0951 29.0909 81.1585 29.0909C82.2997 29.0909 83.2333 28.9221 83.9595 28.5844C84.7116 28.2467 85.2952 27.8442 85.7102 27.3766C86.1511 26.8831 86.4753 26.3896 86.6827 25.8961C86.8902 25.4026 87.0458 25 87.1496 24.6883L87.7331 24.8052Z" stroke="white" stroke-width="0.75" />
	<path fill-rule="evenodd" clip-rule="evenodd" d="M97.4762 20.2468C97.5022 19.961 97.5152 19.6883 97.5152 19.4286H109.497C109.497 18 109.251 16.8052 108.758 15.8442C108.291 14.8831 107.695 14.1169 106.969 13.5455C106.268 12.9481 105.503 12.5195 104.673 12.2597C103.843 12 103.065 11.8701 102.339 11.8701C101.12 11.8701 99.979 12.1299 98.9157 12.6493C97.8523 13.1429 96.9186 13.8052 96.1146 14.6364C95.3366 15.4675 94.7141 16.4286 94.2473 17.5195C93.8064 18.5844 93.5859 19.6883 93.5859 20.8312C93.5859 22.1558 93.8064 23.3636 94.2473 24.4545C94.6882 25.5195 95.3106 26.4416 96.1146 27.2208C96.9186 28 97.8653 28.5974 98.9546 29.013C100.07 29.4286 101.276 29.6364 102.573 29.6364C103.869 29.6364 104.92 29.4416 105.724 29.0519C106.554 28.6364 107.202 28.1688 107.669 27.6493C108.162 27.1039 108.512 26.5714 108.719 26.0519C108.953 25.5065 109.108 25.0909 109.186 24.8052L108.603 24.6883C108.499 25 108.343 25.4026 108.136 25.8961C107.928 26.3896 107.604 26.8831 107.163 27.3766C106.748 27.8442 106.165 28.2467 105.412 28.5844C104.686 28.9221 103.753 29.0909 102.611 29.0909C101.47 29.0909 100.55 28.8442 99.8493 28.3506C99.175 27.8571 98.6563 27.2338 98.2932 26.4805C97.956 25.7273 97.7356 24.8831 97.6319 23.9481C97.5281 23.013 97.4762 22.1169 97.4762 21.2597V20.2468ZM105.607 17.8701C105.607 18.1818 105.581 18.5195 105.529 18.8831H97.554C97.6059 18.026 97.7097 17.2078 97.8653 16.4286C98.0468 15.6493 98.3062 14.961 98.6433 14.3636C98.9805 13.7662 99.4344 13.2987 100.005 12.961C100.576 12.5974 101.302 12.4156 102.184 12.4156C102.676 12.4156 103.13 12.4935 103.545 12.6493C103.986 12.7792 104.349 13.013 104.634 13.3506C104.946 13.6883 105.179 14.1429 105.335 14.7143C105.516 15.2857 105.607 16.013 105.607 16.8961V17.8701Z" stroke="white" stroke-width="0.75" />
	<path d="M114.983 28.5455H117.978V1.54545H114.983V1H121.324V16.3117H121.402C121.531 15.974 121.752 15.5584 122.063 15.0649C122.374 14.5455 122.789 14.0649 123.308 13.6234C123.853 13.1558 124.501 12.7662 125.253 12.4545C126.031 12.1169 126.952 11.9481 128.015 11.9481C129.727 11.9481 131.115 12.3636 132.178 13.1948C133.267 14.026 133.812 15.3506 133.812 17.1688V28.5455H136.807V29.0909H127.471V28.5455H130.466V15.961C130.466 14.948 130.22 14.1169 129.727 13.4675C129.26 12.8182 128.521 12.4935 127.509 12.4935C126.68 12.4935 125.889 12.6753 125.136 13.039C124.384 13.4026 123.723 13.9091 123.152 14.5584C122.582 15.2078 122.128 15.974 121.791 16.8571C121.48 17.7403 121.324 18.7013 121.324 19.7403V28.5455H124.319V29.0909H114.983V28.5455Z" stroke="white" stroke-width="0.75" />
	<path fill-rule="evenodd" clip-rule="evenodd" d="M143.084 17.2078C142.539 18.2987 142.267 19.4805 142.267 20.7532C142.267 21.974 142.526 23.1299 143.045 24.2208C143.563 25.2857 144.238 26.2208 145.068 27.026C145.923 27.8312 146.896 28.4675 147.985 28.9351C149.075 29.4026 150.19 29.6364 151.331 29.6364C152.472 29.6364 153.587 29.4026 154.677 28.9351C155.766 28.4675 156.726 27.8312 157.556 27.026C158.411 26.2208 159.099 25.2857 159.617 24.2208C160.136 23.1299 160.395 21.974 160.395 20.7532C160.395 19.4805 160.11 18.2987 159.54 17.2078C158.995 16.1169 158.282 15.1818 157.4 14.4026C156.544 13.5974 155.571 12.974 154.482 12.5325C153.419 12.0909 152.368 11.8701 151.331 11.8701C150.294 11.8701 149.23 12.0909 148.141 12.5325C147.078 12.974 146.105 13.5974 145.223 14.4026C144.367 15.1818 143.654 16.1169 143.084 17.2078ZM146.585 25.1558C146.3 24.0649 146.157 22.5974 146.157 20.7532C146.157 19.1948 146.261 17.8961 146.468 16.8571C146.676 15.7922 146.987 14.9351 147.402 14.2857C147.843 13.6104 148.387 13.1299 149.036 12.8442C149.684 12.5584 150.449 12.4156 151.331 12.4156C152.213 12.4156 152.978 12.5584 153.626 12.8442C154.275 13.1299 154.806 13.6104 155.221 14.2857C155.662 14.9351 155.986 15.7922 156.194 16.8571C156.401 17.8961 156.505 19.1948 156.505 20.7532C156.505 22.5974 156.363 24.0649 156.077 25.1558C155.792 26.2468 155.416 27.0909 154.949 27.6883C154.482 28.2597 153.938 28.6364 153.315 28.8182C152.693 29 152.031 29.0909 151.331 29.0909C150.631 29.0909 149.969 29 149.347 28.8182C148.725 28.6364 148.18 28.2597 147.713 27.6883C147.246 27.0909 146.87 26.2468 146.585 25.1558Z" stroke="white" stroke-width="0.75" />
	<path d="M165.946 28.5455H168.941V1.54545H165.946V1H172.287V28.5455H175.282V29.0909H165.946V28.5455Z" stroke="white" stroke-width="0.75" />
	<path fill-rule="evenodd" clip-rule="evenodd" d="M198.076 1H191.734V1.54545H194.73V15.4935H194.652C194.289 14.4805 193.667 13.6234 192.785 12.9221C191.903 12.2208 190.749 11.8701 189.322 11.8701C188.207 11.8701 187.157 12.1169 186.171 12.6104C185.186 13.0779 184.317 13.7143 183.565 14.5195C182.813 15.2987 182.216 16.2208 181.775 17.2857C181.334 18.3506 181.114 19.4675 181.114 20.6364C181.114 21.8312 181.334 22.974 181.775 24.0649C182.242 25.1299 182.865 26.0779 183.643 26.9091C184.421 27.7403 185.315 28.4026 186.327 28.8961C187.364 29.3896 188.454 29.6364 189.595 29.6364C190.477 29.6364 191.216 29.4805 191.812 29.1688C192.435 28.8831 192.94 28.5325 193.329 28.1169C193.744 27.7013 194.056 27.2727 194.263 26.8312C194.471 26.3896 194.626 26.013 194.73 25.7013H194.808V29.0909H201.071V28.5455H198.076V1ZM185.121 23.8701C185.043 22.7532 185.004 21.5195 185.004 20.1688C185.004 18.974 185.069 17.9091 185.199 16.974C185.328 16.013 185.549 15.1948 185.86 14.5195C186.197 13.8442 186.651 13.3247 187.222 12.961C187.818 12.5974 188.57 12.4156 189.478 12.4156C190.438 12.4156 191.229 12.5844 191.851 12.9221C192.474 13.2597 192.979 13.6883 193.368 14.2078C193.628 14.5714 193.848 14.961 194.03 15.3766C194.211 15.7922 194.354 16.2857 194.458 16.8571C194.561 17.4286 194.626 18.0909 194.652 18.8442C194.704 19.5714 194.73 20.4416 194.73 21.4545C194.73 22.3117 194.665 23.1948 194.535 24.1039C194.406 25.013 194.159 25.8442 193.796 26.5974C193.433 27.3247 192.914 27.9221 192.24 28.3896C191.592 28.8571 190.723 29.0909 189.634 29.0909C188.57 29.0909 187.727 28.8831 187.105 28.4675C186.482 28.0519 186.016 27.4545 185.704 26.6753C185.393 25.8961 185.199 24.961 185.121 23.8701Z" stroke="white" stroke-width="0.75" />
	<path fill-rule="evenodd" clip-rule="evenodd" d="M210.555 19.4286C210.555 19.6883 210.542 19.961 210.516 20.2468V21.2597C210.516 22.1169 210.568 23.013 210.671 23.9481C210.775 24.8831 210.996 25.7273 211.333 26.4805C211.696 27.2338 212.215 27.8571 212.889 28.3506C213.589 28.8442 214.51 29.0909 215.651 29.0909C216.792 29.0909 217.726 28.9221 218.452 28.5844C219.204 28.2467 219.788 27.8442 220.203 27.3766C220.644 26.8831 220.968 26.3896 221.175 25.8961C221.383 25.4026 221.538 25 221.642 24.6883L222.226 24.8052C222.148 25.0909 221.992 25.5065 221.759 26.0519C221.551 26.5714 221.201 27.1039 220.708 27.6493C220.242 28.1688 219.593 28.6364 218.763 29.0519C217.959 29.4416 216.909 29.6364 215.612 29.6364C214.315 29.6364 213.109 29.4286 211.994 29.013C210.905 28.5974 209.958 28 209.154 27.2208C208.35 26.4416 207.728 25.5195 207.287 24.4545C206.846 23.3636 206.626 22.1558 206.626 20.8312C206.626 19.6883 206.846 18.5844 207.287 17.5195C207.754 16.4286 208.376 15.4675 209.154 14.6364C209.958 13.8052 210.892 13.1429 211.955 12.6493C213.019 12.1299 214.16 11.8701 215.379 11.8701C216.105 11.8701 216.883 12 217.713 12.2597C218.543 12.5195 219.308 12.9481 220.008 13.5455C220.734 14.1169 221.331 14.8831 221.798 15.8442C222.291 16.8052 222.537 18 222.537 19.4286H210.555ZM218.569 18.8831C218.621 18.5195 218.647 18.1818 218.647 17.8701V16.8961C218.647 16.013 218.556 15.2857 218.374 14.7143C218.219 14.1429 217.985 13.6883 217.674 13.3506C217.389 13.013 217.026 12.7792 216.585 12.6493C216.17 12.4935 215.716 12.4156 215.223 12.4156C214.341 12.4156 213.615 12.5974 213.045 12.961C212.474 13.2987 212.02 13.7662 211.683 14.3636C211.346 14.961 211.086 15.6493 210.905 16.4286C210.749 17.2078 210.646 18.026 210.594 18.8831H218.569Z" stroke="white" stroke-width="0.75" />
	<path d="M231.096 28.5455H228.1V29.0909H237.826V28.5455H234.441V19.6234C234.441 18.5325 234.571 17.5714 234.83 16.7403C235.116 15.8831 235.453 15.1558 235.842 14.5584C236.257 13.961 236.698 13.5065 237.165 13.1948C237.631 12.8831 238.072 12.7273 238.487 12.7273C239.395 12.7273 239.849 13.1429 239.849 13.974C239.849 14.3117 239.823 14.5714 239.771 14.7532C239.719 14.9351 239.654 15.1039 239.577 15.2597C239.525 15.3896 239.473 15.5325 239.421 15.6883C239.369 15.8182 239.343 16 239.343 16.2338C239.343 16.961 239.914 17.3247 241.055 17.3247C241.574 17.3247 242.027 17.1818 242.416 16.8961C242.805 16.6104 243 16.039 243 15.1818C243 14.7922 242.935 14.4026 242.805 14.013C242.676 13.6234 242.468 13.2857 242.183 13C241.898 12.6883 241.535 12.4416 241.094 12.2597C240.653 12.0519 240.134 11.9481 239.538 11.9481C238.708 11.9481 237.994 12.1039 237.398 12.4156C236.827 12.7273 236.335 13.1169 235.92 13.5844C235.505 14.026 235.18 14.4935 234.947 14.987C234.714 15.4805 234.545 15.9221 234.441 16.3117H234.363V12.3766H228.1V12.9221H231.096V28.5455Z" stroke="white" stroke-width="0.75" />
</svg>
