<svg width="212" height="53" viewBox="0 0 212 53" fill="none" xmlns="http://www.w3.org/2000/svg">
<g clip-path="url(#clip0_306_2807)">
<path fill-rule="evenodd" clip-rule="evenodd" d="M0.829031 1.8109C6.11905 8.18041 11.9274 16.1825 12.8668 17.4767C12.9169 17.5457 12.9532 17.5957 12.9748 17.6253C13.4756 18.312 13.889 18.8224 14.203 19.2101C14.9 20.0707 15.1068 20.3261 14.6909 20.5606C14.3554 20.7498 14.0094 20.8122 13.6641 20.8122C13.2735 20.8122 12.8335 20.6256 12.513 20.3241C12.2866 20.111 10.7369 17.8782 8.62676 14.6301C7.01221 12.1447 5.66101 10.083 5.62415 10.0484C5.53893 9.9686 5.54039 9.97131 8.46215 15.1575C10.2968 18.4141 11.5517 20.8207 11.5517 20.9747C11.5517 21.2878 11.4656 21.4525 11.0761 21.8834C10.4269 22.602 10.1367 23.4093 9.92722 25.08C9.69237 26.9529 9.03197 28.276 7.2018 30.5402C6.13048 31.8658 5.95519 32.1087 5.68486 32.643C5.34438 33.3157 5.25074 33.6925 5.21279 34.542C5.17269 35.4403 5.2508 36.0206 5.52742 36.8792C5.7696 37.6311 6.02236 38.1277 6.66858 39.1207C7.22626 39.9774 7.54737 40.6141 7.54737 40.8633C7.54737 41.0616 7.58552 41.0618 8.44969 40.8683C10.5178 40.4048 12.197 39.5902 13.1415 38.5916C13.726 37.9734 13.8632 37.6321 13.8676 36.7852C13.8706 36.2312 13.8509 36.1153 13.7 35.7965C13.4543 35.2776 13.0069 34.8465 12.021 34.1778C10.7291 33.3016 10.1773 32.5964 10.0249 31.6264C9.89989 30.8305 10.0449 30.2689 10.7596 28.783C11.4993 27.2449 11.6826 26.5895 11.8066 25.039C11.8867 24.0374 11.9976 23.6424 12.2877 23.3254C12.5903 22.9948 12.8626 22.8828 13.6114 22.7812C14.8321 22.6158 15.6093 22.3025 16.2482 21.7185C16.8025 21.2118 17.0344 20.7235 17.07 19.9886L17.097 19.4315L16.7873 19.0733C15.6656 17.7759 0.0778688 0.791016 0.00884215 0.791016C-0.00590392 0.791016 0.363196 1.25 0.829031 1.8109ZM8.17702 35.5584C8.43063 35.1127 8.29588 34.5401 7.87166 34.2602C7.47085 33.9958 6.84821 34.1204 6.84821 34.4649C6.84821 34.57 6.90681 34.6465 7.0389 34.7141C7.26129 34.8276 7.27744 34.9552 7.10246 35.2161C6.92525 35.4804 6.93954 35.7127 7.14281 35.8704C7.4704 36.125 7.93414 35.985 8.17702 35.5584ZM15.8103 11.2613C15.3098 11.1843 15.2887 11.1753 15.5242 11.1394C15.9755 11.0705 17.0411 11.1644 17.7754 11.3376C19.4897 11.7418 21.0496 12.7774 22.7147 14.6166L23.157 15.1052L23.7899 15.0043C26.4559 14.5792 29.168 14.917 31.4365 15.9566C32.0606 16.2426 33.0444 16.812 33.1673 16.9582C33.2064 17.0049 33.2785 17.305 33.327 17.6253C33.4956 18.7333 33.4113 19.5826 33.0696 20.2169C32.8838 20.5621 32.8735 20.6715 32.9983 20.967C33.098 21.2027 33.3762 21.3771 33.6518 21.3768C34.2154 21.376 34.8221 20.472 35.1033 19.2141L35.215 18.7145L35.4362 18.9631C36.6495 20.327 37.6028 22.187 37.7665 23.5109L37.809 23.856L37.6052 23.5423C37.254 23.0024 36.9015 22.6347 36.4497 22.3382C35.6357 21.8038 34.7746 21.6219 32.4949 21.5027C30.4358 21.3951 29.2706 21.2206 28.1151 20.8468C26.1488 20.2109 25.1579 19.364 22.8223 16.3243C21.7851 14.9741 21.1439 14.2271 20.5062 13.6256C19.057 12.2587 17.633 11.5418 15.8103 11.2613ZM33.6317 14.2759C33.6835 13.3711 33.8073 12.7744 34.0559 12.2294C34.1543 12.0137 34.2465 11.8372 34.2606 11.8372C34.275 11.8372 34.2322 11.9964 34.1655 12.191C33.9849 12.7199 33.9551 13.4432 34.0797 14.2849C34.2377 15.3528 34.3277 15.5069 35.4653 16.6604C35.999 17.2015 36.6198 17.8839 36.8448 18.1769L37.254 18.7096L36.8448 18.3289C36.3445 17.8634 35.1938 16.9554 34.9396 16.8256C34.7691 16.7385 34.7438 16.74 34.6387 16.8438C34.5419 16.9395 34.5214 17.0832 34.5079 17.7627C34.487 18.8217 34.3416 19.5014 33.9904 20.181C33.8005 20.5486 33.7704 20.4702 33.9423 20.0553C34.0707 19.7455 34.0837 19.6093 34.0828 18.5841C34.0808 16.5243 33.8342 16.0291 32.3886 15.1808C32.0226 14.9659 31.419 14.656 31.0478 14.4921C30.6767 14.3281 30.3818 14.1853 30.3923 14.1747C30.4334 14.1343 31.8433 14.5425 32.4107 14.759C33.2547 15.0811 33.3939 15.1228 33.4965 15.084C33.5651 15.0579 33.5984 14.8594 33.6317 14.2759ZM15.2739 12.6945C15.1379 14.2848 15.7664 16.4121 16.7823 17.7996C17.5698 18.8751 18.7905 19.7109 19.6918 19.7917C20.2819 19.8445 20.4592 19.6612 20.1922 19.2745C19.8216 18.7375 19.3658 17.9107 19.2451 17.5567C19.1702 17.3368 19.0074 16.6872 18.8832 16.1132C18.4595 14.1534 18.0429 13.3902 17.0808 12.8106C16.7302 12.5993 15.9815 12.3228 15.5473 12.2443L15.316 12.2024L15.2739 12.6945ZM32.3996 28.1259C27.652 26.2296 25.9798 24.5836 25.9798 21.8063C25.9798 21.3976 25.9942 21.0632 26.0114 21.0632C26.0288 21.0632 26.2124 21.1981 26.4195 21.363C27.3822 22.129 28.4603 22.4562 31.4448 22.888C33.2009 23.1423 34.1892 23.3475 35.1009 23.6476C37.9985 24.6009 39.7914 26.5356 40.2189 29.1709C40.3431 29.9366 40.2703 31.3724 40.0689 32.1292C39.9098 32.727 39.4245 33.8043 39.2959 33.8457C39.2602 33.8572 39.2251 33.7215 39.216 33.5369C39.1673 32.5474 38.6632 31.5841 37.8168 30.8624C36.8543 30.0419 35.5611 29.3888 32.3996 28.1259ZM28.8373 27.9172C28.9039 28.1142 29.0072 28.5625 29.0665 28.9137C29.4468 31.1588 28.2589 32.9727 25.9481 33.6756C25.7034 33.7499 24.7398 33.9371 23.8067 34.0912C21.9177 34.4032 21.0746 34.6242 20.2277 35.0289C19.6271 35.316 18.8999 35.7458 18.9431 35.7885C18.957 35.8024 19.0941 35.7699 19.2477 35.7164C20.3158 35.3444 21.5044 35.1518 23.3103 35.0586C24.0271 35.0218 24.8422 34.9628 25.1219 34.9279C26.7308 34.7269 27.8459 34.242 28.7131 33.3664C29.1956 32.8791 29.4832 32.4252 29.7151 31.7852C29.862 31.3791 29.8819 31.2284 29.883 30.509C29.8843 29.776 29.8664 29.6419 29.7072 29.191C29.4987 28.6 29.2527 28.1564 28.9412 27.8096L28.7162 27.5591L28.8373 27.9172ZM31.243 32.748C30.6121 31.4028 30.4674 30.1041 30.8128 28.8929C30.8499 28.7633 30.9092 28.6574 30.9452 28.6574C30.9809 28.6574 31.1296 28.7373 31.2759 28.8348C31.5664 29.029 32.1495 29.3559 33.7025 30.1959C35.6407 31.2442 36.7457 32.0558 37.4971 32.9833C38.1552 33.7954 38.5624 34.7204 38.7583 35.8483C38.8695 36.4873 38.8044 38.0247 38.6392 38.668C38.1181 40.6967 36.907 42.2901 35.1797 43.22C34.9266 43.3561 34.6994 43.4679 34.6747 43.4685C34.6502 43.4689 34.7424 43.2365 34.8796 42.9515C35.4607 41.7464 35.5269 40.5743 35.0877 39.2697C34.8185 38.4709 34.2701 37.4961 33.1627 35.8485C31.8752 33.9332 31.5596 33.4234 31.243 32.748ZM19.3614 37.1602C17.3646 37.482 15.1726 38.5302 13.4108 40.006L12.8863 40.4454L13.3472 40.5169C15.7527 40.8893 16.4004 41.2197 18.0689 42.9249C19.0291 43.906 19.3534 44.1243 20.1499 44.3261C21.3196 44.6222 22.4727 44.078 22.8682 43.0427C23.0449 42.5802 23.0213 41.8143 22.8186 41.4297C22.3363 40.5138 20.9314 40.2178 20.252 40.8886C19.6861 41.4474 19.851 42.2892 20.5548 42.4339C20.7159 42.4673 20.7113 42.4601 20.5137 42.3715C20.2057 42.2333 20.0719 42.0417 20.0702 41.7369C20.0663 41.0221 20.8908 40.6208 21.6578 40.964C22.2194 41.2156 22.4425 41.5441 22.4425 42.12C22.4425 43.0068 21.6817 43.675 20.7962 43.5658C20.323 43.5073 19.7442 43.207 19.4338 42.859C18.6529 41.983 18.9571 40.6007 20.0475 40.0703C20.8775 39.6666 21.9808 39.7661 22.8365 40.3218C23.8195 40.9606 24.2375 41.5443 25.0842 43.4601C25.3599 44.0838 25.7147 44.786 25.8724 45.0205C26.6745 46.2115 27.6355 46.7956 28.793 46.7956C29.4314 46.7956 29.9117 46.6799 30.5159 46.3807C30.9648 46.1582 31.6013 45.7355 31.5554 45.6902C31.5424 45.6774 31.3562 45.7348 31.1415 45.8178C29.8777 46.3068 28.5929 46.2733 27.8468 45.7314C27.3769 45.3903 26.9979 44.7109 26.8031 43.8611C26.7694 43.714 26.6582 43.0644 26.5558 42.4174C26.2964 40.7777 26.0473 40.0406 25.4665 39.1947C24.8722 38.3294 23.7297 37.6031 22.4524 37.2788C21.6555 37.0764 20.2219 37.0214 19.3614 37.1602ZM16.5648 24.4824C16.7373 23.8506 17.2943 23.2481 17.8674 23.0734C18.2318 22.9625 18.985 23.0334 19.3391 23.2119C20.0255 23.5581 20.5237 24.3466 20.4156 24.9158C20.2837 25.6097 19.1492 26.1651 17.8442 26.1742C17.1776 26.1787 16.9315 26.0899 16.6769 25.7527C16.5193 25.5439 16.4596 24.8679 16.5648 24.4824ZM19.1639 23.4593C19.5062 23.6667 19.5942 23.9733 19.393 24.2569C19.2543 24.4523 18.8252 24.638 18.5116 24.638C18.0404 24.638 17.5264 24.3061 17.5264 24.0021C17.5264 23.3913 18.5121 23.0643 19.1639 23.4593ZM121.458 25.2083C120.393 21.7302 122.149 18.8453 125.895 17.9182C126.969 17.6522 131.834 17.7722 132.668 18.0854C132.974 18.2002 133.107 18.6407 133.11 19.5459C133.112 20.2589 133.191 21.1248 133.286 21.4701C133.429 21.9935 133.345 22.0965 132.783 22.0881C132.274 22.0803 131.967 21.7875 131.537 20.9018C130.851 19.4871 130.021 19.0371 128.086 19.0318C125.615 19.0248 123.807 20.6586 124.101 22.6327C124.293 23.9174 125.6 25.1814 128.532 26.9191C131.323 28.572 132.952 29.9314 133.6 31.1493C135.336 34.4053 133.854 37.8898 129.988 39.6454C128.003 40.5465 124.677 40.6397 122.339 39.8597L120.841 39.3601V37.0101C120.841 34.8818 120.893 34.6597 121.387 34.6597C121.8 34.6597 121.979 34.9279 122.123 35.7682C122.484 37.8575 124.101 39.1258 126.403 39.1258C128.659 39.1258 130.236 37.9155 130.84 35.7209C131.097 34.786 131.052 34.4413 130.542 33.41C129.931 32.1734 128.878 31.3529 125.302 29.3267C123.317 28.2022 121.914 26.6987 121.458 25.2083ZM51.3543 19.3067C50.8663 19.3067 50.676 19.1501 50.676 18.7484C50.676 18.2166 50.8663 18.1901 54.6901 18.1901C58.2391 18.1901 58.6934 18.2426 58.612 18.6426C58.561 18.8916 58.0706 19.2369 57.5215 19.4103L56.5231 19.7254L56.4379 26.8437C56.3808 31.5934 56.4611 34.3334 56.6788 35.0783C57.3263 37.2937 59.3013 38.5677 62.088 38.5677C64.028 38.5677 65.1612 38.1222 66.585 36.7993C68.1164 35.3771 68.3606 34.0257 68.3558 27.0023C68.3512 20.0744 68.2283 19.5027 66.7134 19.3589C66.024 19.2933 65.793 19.1356 65.793 18.7308C65.793 18.2261 66.0205 18.1901 69.2157 18.1901C72.4482 18.1901 72.6384 18.2211 72.6384 18.7484C72.6384 19.0923 72.4467 19.3084 72.1391 19.3109C70.8182 19.3223 70.7939 19.4458 70.6161 27.0423C70.4317 34.9312 70.2594 35.8652 68.6315 37.7977C68.1621 38.3552 67.0425 39.1646 66.1438 39.5967C64.6792 40.3006 64.2133 40.3814 61.6572 40.3769C59.3009 40.3721 58.557 40.2603 57.3788 39.7336C55.659 38.9646 54.5405 37.9695 53.7159 36.4741C53.1403 35.4302 53.0911 34.8653 52.9579 27.7927C52.8052 19.697 52.7313 19.3067 51.3543 19.3067ZM78.0443 19.3067C77.3922 19.3067 77.202 19.1805 77.202 18.7484C77.202 18.225 77.3842 18.1915 80.1254 18.213L83.0491 18.2359L84.4479 19.8181C85.2167 20.6882 87.7237 23.4101 90.0182 25.8665C92.3129 28.3231 94.9473 31.1807 95.8723 32.217C96.7975 33.2535 97.6683 34.1014 97.8075 34.1014C97.9504 34.1014 98.0217 31.1737 97.9707 27.3773L97.8807 20.6533L97.0804 19.98C96.6403 19.6096 95.9668 19.3067 95.5831 19.3067C95.0729 19.3067 94.886 19.1548 94.886 18.7406C94.886 18.1954 95.0316 18.1773 98.8077 18.2521C102.019 18.3157 102.73 18.4037 102.73 18.737C102.73 18.9745 102.332 19.2238 101.776 19.3352C101.252 19.4402 100.674 19.6713 100.493 19.8488C100.258 20.078 100.139 23.0412 100.081 30.0674L99.9992 39.9633H99.1726C98.4609 39.9633 97.6138 39.1768 93.0848 34.3106C90.1911 31.2015 86.8135 27.5064 85.579 26.0994C84.3443 24.6922 83.2379 23.5302 83.1203 23.5174C82.7892 23.481 82.8693 36.0533 83.2079 37.2467C83.472 38.1766 83.6535 38.3367 84.7753 38.6305C85.6787 38.8669 86.044 39.1068 86.044 39.463C86.044 39.9204 85.6996 39.9633 82.0509 39.9633C78.3366 39.9633 78.0577 39.9269 78.0577 39.44C78.0577 39.0836 78.3264 38.8641 78.9004 38.7517C80.6421 38.4108 80.7577 37.8698 80.8554 29.5997C80.9101 24.9678 80.8298 21.7269 80.643 21.0483C80.3147 19.855 79.4967 19.3067 78.0443 19.3067ZM107.952 19.3067C107.341 19.3067 107.151 19.1741 107.151 18.7484C107.151 18.215 107.341 18.1901 111.429 18.1901C115.517 18.1901 115.707 18.215 115.707 18.7484C115.707 19.1579 115.517 19.3067 114.994 19.3067C114.602 19.3067 114.019 19.563 113.699 19.8762C113.134 20.4292 113.12 20.7041 113.2 29.2504C113.279 37.5931 113.312 38.0759 113.837 38.4509C114.141 38.6687 114.687 38.8468 115.049 38.8468C115.517 38.8468 115.707 39.0078 115.707 39.4051C115.707 39.9386 115.517 39.9633 111.429 39.9633C107.438 39.9633 107.151 39.9282 107.151 39.4409C107.151 39.0478 107.431 38.8743 108.281 38.7413C109.968 38.4771 110.055 37.9363 109.949 28.2862C109.865 20.5581 109.829 20.0763 109.307 19.7025C109.002 19.4848 108.392 19.3067 107.952 19.3067ZM137.796 19.3067C137.406 19.3067 137.109 19.0943 137.016 18.7484C136.873 18.2086 137.008 18.1901 141.119 18.1901C145.181 18.1901 145.371 18.215 145.371 18.7484C145.371 19.1775 145.181 19.3067 144.55 19.3067C142.754 19.3067 142.795 19.626 145.512 26.9262C146.895 30.6423 148.239 34.1722 148.497 34.7704L148.966 35.8583L151.144 30.1645C153.709 23.4624 154.042 22.2229 153.606 21.0006C153.303 20.1486 152.123 19.3067 151.232 19.3067C150.98 19.3067 150.79 19.0667 150.79 18.7484C150.79 18.2141 150.98 18.1901 155.211 18.1901C159.442 18.1901 159.632 18.2141 159.632 18.7484C159.632 19.1457 159.442 19.3067 158.974 19.3067C157.774 19.3067 157.246 19.9326 157.418 21.1485C157.595 22.4002 162.501 35.8529 162.707 35.6516C163.041 35.3242 168.474 20.8423 168.474 20.2778C168.474 19.6015 167.99 19.3067 166.882 19.3067C166.383 19.3067 166.192 19.1529 166.192 18.7484C166.192 18.2211 166.383 18.1901 169.615 18.1901C172.518 18.1901 173.038 18.256 173.038 18.6234C173.038 18.8618 172.682 19.178 172.247 19.3262C171.27 19.6598 171.024 20.0406 169.797 23.1248C169.259 24.4792 167.573 28.718 166.051 32.5439C164.53 36.3703 163.219 39.6677 163.139 39.8716C163.059 40.0757 162.587 40.2425 162.091 40.2425H161.188L159.139 35.0085C158.012 32.1301 156.681 28.7198 156.181 27.4302C155.324 25.2204 155.252 25.1244 154.929 25.7551C154.741 26.1237 153.387 29.5401 151.921 33.3473L149.254 40.2699L148.259 40.1864L147.264 40.103L143.469 30.3547C141.348 24.9084 139.398 20.3194 139.05 19.9566C138.706 19.599 138.142 19.3067 137.796 19.3067ZM194.827 19.4251C194.779 19.319 194.78 18.938 194.78 18.938C194.78 18.938 194.769 18.8005 194.828 18.7272C194.886 18.6541 194.907 18.6522 195.117 18.6326L195.119 18.6324C195.889 18.5605 197.434 18.4394 198.723 18.3841C198.841 18.3791 198.972 18.3732 199.115 18.3669L199.118 18.3667L199.12 18.3666L199.121 18.3666C200.54 18.3034 203.079 18.2188 204.825 18.3044C208.174 18.4688 210.556 20.0586 211.367 22.6858C212.179 25.3129 211.75 27.779 210.643 29.3488C209.537 30.9185 207.676 32.2701 204.584 32.1821C202.031 32.1095 201.348 31.64 200.802 31.265C200.687 31.1857 200.578 31.1105 200.458 31.0444V34.3947C200.485 36.6797 200.505 37.7771 200.685 38.1833C200.927 38.7302 201.476 39.0671 202.545 39.3254C202.545 39.3254 203.029 39.4368 203.154 39.5555C203.278 39.6742 203.278 39.9379 203.278 39.9379C203.278 39.9379 203.304 40.1845 203.204 40.3101C203.103 40.4358 202.91 40.4107 202.91 40.4107L198.176 40.3732L195.321 40.3658C195.321 40.3658 195.022 40.4222 194.909 40.3039C194.797 40.1854 194.808 39.9386 194.808 39.9386C194.808 39.9386 194.832 39.6727 194.963 39.5538C195.094 39.4346 195.582 39.3016 195.582 39.3016C196.682 38.998 197.16 38.6769 197.409 38.072C197.61 37.5843 197.612 36.6799 197.61 29.2996C197.608 22.3006 197.597 20.995 197.434 20.6195C197.192 20.0637 196.586 19.9164 195.724 19.7068L195.724 19.7067C195.553 19.6651 195.372 19.6211 195.182 19.5709C195.182 19.5709 194.875 19.5311 194.827 19.4251ZM208.612 25.1361C208.612 26.2838 208.591 28.0806 207.347 29.2292C206.103 30.3777 203.654 30.6921 201.991 30.3723C201.467 30.2716 201.167 30.1162 200.937 29.9964L200.913 29.9845L200.488 29.7643L200.463 25.7319C200.448 23.2054 200.475 21.5593 200.535 21.324C200.591 19.9918 202.591 19.826 203.569 19.8754C207.751 19.8754 208.49 23.3365 208.612 25.1361ZM181.694 18.3465C181.694 18.3465 181.489 18.4235 181.18 18.5388L180.063 19.1053L179.258 21.0771C178.816 22.1616 178.007 24.1524 177.461 25.5012C176.465 27.9578 175.808 29.5717 175.116 31.2563C174.913 31.7518 174.298 33.2607 173.751 34.6094C173.204 35.958 172.656 37.2415 172.535 37.4616C172.515 37.4982 172.493 37.5377 172.471 37.5793C172.165 38.1444 171.633 39.1259 170.694 39.2743C170.694 39.2743 170.178 39.3241 169.987 39.5096C169.795 39.6953 169.814 39.8469 169.814 39.8469V40.0807C169.814 40.0807 169.831 40.194 169.94 40.2503C170.048 40.3069 170.195 40.3101 170.195 40.3101L173.63 40.2718H177.18C177.18 40.2718 177.431 40.3006 177.528 40.2218C177.625 40.1429 177.651 40.0259 177.651 40.0259V39.7797C177.651 39.7797 177.602 39.5128 177.461 39.4086C177.321 39.3046 176.794 39.2333 176.794 39.2333C175.373 39.0498 175.128 37.994 175.303 37.0446C175.39 36.5781 175.961 34.8525 176.604 33.1153L176.827 32.5149L180.547 32.487C182.593 32.4716 184.359 32.482 184.472 32.5101C184.634 32.5502 184.86 33.0011 185.524 34.6071C186.529 37.0402 186.61 37.3366 186.387 37.7918C186.373 37.8196 186.359 37.8501 186.343 37.883C186.134 38.3233 185.729 39.1787 184.707 39.2658C184.707 39.2658 184.164 39.2842 184.029 39.4435C183.894 39.6029 183.924 39.7862 183.924 39.7862V40.0298C183.924 40.0298 183.96 40.1726 184.029 40.2291C184.099 40.2857 184.217 40.2714 184.217 40.2714L187.594 40.2475L192.34 40.2473C192.34 40.2473 192.526 40.2668 192.577 40.1966C192.628 40.1262 192.638 40.0434 192.638 40.0434V39.7199C192.638 39.7199 192.618 39.5479 192.526 39.453C192.435 39.3583 191.819 39.2582 191.819 39.2582C191.033 39.1336 190.642 38.4962 190.35 38.0215C190.276 37.9004 190.208 37.7899 190.142 37.7013C190.006 37.5203 189.524 36.5289 189.145 35.5753C188.768 34.6218 187.915 32.4677 187.251 30.7887C186.586 29.1098 185.659 26.7676 185.19 25.5842C184.721 24.4005 183.83 22.1485 183.21 20.5796C183.109 20.3221 183.017 20.0908 182.936 19.8837L182.935 19.8828C182.52 18.8292 182.352 18.404 182.306 18.3465C182.157 18.1596 181.694 18.3465 181.694 18.3465ZM181.472 24.7578C181.323 24.4001 181.059 23.7583 180.887 23.3317C180.573 22.5563 180.454 22.3776 180.357 22.5378C180.329 22.5846 180.132 23.1146 179.919 23.7156C178.543 27.607 177.919 29.3592 177.794 29.6894C177.716 29.8969 177.651 30.1108 177.651 30.1647C177.651 30.2267 178.771 30.2629 180.69 30.2629C182.36 30.2629 183.727 30.2425 183.727 30.2176C183.727 30.1927 183.579 29.8213 183.396 29.3919C183.214 28.9624 182.768 27.8906 182.405 27.0098C182.042 26.1291 181.622 25.1157 181.472 24.7578Z" fill="white"/>
</g>
<defs>
<clipPath id="clip0_306_2807">
<rect width="212" height="52" fill="white" transform="translate(0 0.791016)"/>
</clipPath>
</defs>
</svg>
