<svg width="105" height="73" viewBox="0 0 105 73" fill="none" xmlns="http://www.w3.org/2000/svg">
<path fill-rule="evenodd" clip-rule="evenodd" d="M49.7113 0.260254V44.7648H55.2885V0.260254L104.291 53.9857H75.3293V44.7648H83.4002L64.5095 26.2842V53.9857H40.4904V26.2842L21.5997 44.7648H29.6706V53.9857H0.708984L49.7113 0.260254Z" fill="white"/>
<path d="M3.31968 64.9411H4.13038L7.21925 72.2066H6.21357L5.4747 70.421H1.84194L1.09281 72.2066H0.11792L3.31968 64.9411ZM3.70963 66.0494H3.68911L2.18059 69.6206H5.14632L3.70963 66.0494Z" fill="white"/>
<path d="M12.3513 66.2238C12.2076 65.9912 12.0161 65.8236 11.7766 65.721C11.5372 65.6115 11.2875 65.5568 11.0275 65.5568C10.836 65.5568 10.6478 65.5807 10.4631 65.6286C10.2784 65.6765 10.1108 65.7483 9.96026 65.8441C9.81659 65.9399 9.70029 66.0665 9.61135 66.2238C9.52241 66.3812 9.47794 66.5659 9.47794 66.778C9.47794 66.9422 9.50189 67.0893 9.54978 67.2192C9.60451 67.3424 9.69002 67.4553 9.80633 67.5579C9.92263 67.6605 10.08 67.7563 10.2784 67.8452C10.4768 67.9342 10.7196 68.0231 11.007 68.112C11.2875 68.201 11.5577 68.2968 11.8177 68.3994C12.0845 68.502 12.3171 68.632 12.5155 68.7893C12.7207 68.9467 12.8815 69.1451 12.9978 69.3845C13.121 69.6171 13.1825 69.9113 13.1825 70.2671C13.1825 70.6297 13.1107 70.9444 12.967 71.2112C12.8234 71.478 12.6318 71.7003 12.3924 71.8782C12.1598 72.0492 11.8895 72.1758 11.5817 72.2579C11.2738 72.3468 10.9557 72.3913 10.6273 72.3913C10.4152 72.3913 10.2031 72.3708 9.99104 72.3297C9.77896 72.2955 9.57372 72.2408 9.37532 72.1655C9.18376 72.0834 9.00247 71.9808 8.83143 71.8577C8.6604 71.7277 8.51331 71.5703 8.39017 71.3856L9.12903 70.7802C9.28638 71.047 9.50531 71.2488 9.7858 71.3856C10.0663 71.5225 10.3639 71.5909 10.6786 71.5909C10.8633 71.5909 11.048 71.5635 11.2328 71.5088C11.4243 71.454 11.5953 71.3754 11.7459 71.2727C11.8964 71.1633 12.0195 71.0299 12.1153 70.8725C12.2111 70.7152 12.259 70.5339 12.259 70.3286C12.259 70.1029 12.2213 69.9216 12.1461 69.7847C12.0708 69.6411 11.9545 69.5179 11.7972 69.4153C11.6398 69.3127 11.4414 69.2203 11.202 69.1382C10.9625 69.0561 10.682 68.9604 10.3605 68.8509C10.1005 68.7688 9.86106 68.6764 9.64214 68.5738C9.42321 68.4644 9.23165 68.3344 9.06746 68.1839C8.91011 68.0265 8.78354 67.8418 8.68777 67.6297C8.59883 67.4108 8.55436 67.1508 8.55436 66.8498C8.55436 66.5009 8.62277 66.1965 8.7596 65.9365C8.89643 65.6765 9.08114 65.461 9.31375 65.29C9.54636 65.1121 9.80975 64.9787 10.1039 64.8898C10.3981 64.8008 10.706 64.7563 11.0275 64.7563C11.438 64.7563 11.8108 64.8213 12.1461 64.9513C12.4881 65.0745 12.7926 65.2934 13.0594 65.6081L12.3513 66.2238Z" fill="white"/>
<path d="M20.4138 66.4393C20.1949 66.1451 19.9247 65.9262 19.6031 65.7826C19.2816 65.632 18.9464 65.5568 18.5974 65.5568C18.1938 65.5568 17.821 65.6389 17.4789 65.8031C17.1437 65.9673 16.8529 66.1896 16.6066 66.4701C16.3603 66.7438 16.1688 67.0653 16.0319 67.4347C15.8951 67.7973 15.8267 68.177 15.8267 68.5738C15.8267 68.998 15.8951 69.3948 16.0319 69.7642C16.1688 70.1268 16.3569 70.4449 16.5963 70.7186C16.8426 70.9854 17.1334 71.1975 17.4686 71.3548C17.8107 71.5122 18.187 71.5909 18.5974 71.5909C19.0421 71.5909 19.4389 71.5053 19.7878 71.3343C20.1368 71.1564 20.4412 70.9033 20.7012 70.5749L21.3477 71.1188C21.0193 71.5567 20.6225 71.8782 20.1573 72.0834C19.6989 72.2887 19.179 72.3913 18.5974 72.3913C18.0775 72.3913 17.5918 72.2955 17.1402 72.104C16.6887 71.9124 16.2953 71.649 15.9601 71.3138C15.6317 70.9717 15.3717 70.5681 15.1802 70.1029C14.9955 69.6377 14.9031 69.128 14.9031 68.5738C14.9031 68.0402 14.9921 67.5408 15.1699 67.0756C15.3546 66.6104 15.6112 66.2067 15.9396 65.8646C16.268 65.5226 16.6579 65.2523 17.1095 65.0539C17.561 64.8555 18.057 64.7563 18.5974 64.7563C19.09 64.7563 19.5621 64.8453 20.0136 65.0232C20.472 65.201 20.8551 65.4918 21.163 65.8954L20.4138 66.4393Z" fill="white"/>
<path d="M23.2677 64.9411H27.8343V65.7415H24.1297V68.0197H27.588V68.8201H24.1297V71.4061H28.019V72.2066H23.2677V64.9411Z" fill="white"/>
<path d="M30.0691 64.9411H31.1569L35.3643 70.9751H35.3849V64.9411H36.2469V72.2066H35.1591L30.9517 66.1725H30.9311V72.2066H30.0691V64.9411Z" fill="white"/>
<path d="M42.2227 66.2238C42.079 65.9912 41.8874 65.8236 41.648 65.721C41.4085 65.6115 41.1588 65.5568 40.8989 65.5568C40.7073 65.5568 40.5192 65.5807 40.3344 65.6286C40.1497 65.6765 39.9821 65.7483 39.8316 65.8441C39.6879 65.9399 39.5716 66.0665 39.4827 66.2238C39.3938 66.3812 39.3493 66.5659 39.3493 66.778C39.3493 66.9422 39.3732 67.0893 39.4211 67.2192C39.4759 67.3424 39.5614 67.4553 39.6777 67.5579C39.794 67.6605 39.9513 67.7563 40.1497 67.8452C40.3481 67.9342 40.591 68.0231 40.8783 68.112C41.1588 68.201 41.4291 68.2968 41.689 68.3994C41.9559 68.502 42.1885 68.632 42.3869 68.7893C42.5921 68.9467 42.7529 69.1451 42.8692 69.3845C42.9923 69.6171 43.0539 69.9113 43.0539 70.2671C43.0539 70.6297 42.9821 70.9444 42.8384 71.2112C42.6947 71.478 42.5032 71.7003 42.2637 71.8782C42.0311 72.0492 41.7609 72.1758 41.453 72.2579C41.1451 72.3468 40.827 72.3913 40.4986 72.3913C40.2866 72.3913 40.0745 72.3708 39.8624 72.3297C39.6503 72.2955 39.4451 72.2408 39.2467 72.1655C39.0551 72.0834 38.8738 71.9808 38.7028 71.8577C38.5318 71.7277 38.3847 71.5703 38.2615 71.3856L39.0004 70.7802C39.1577 71.047 39.3767 71.2488 39.6572 71.3856C39.9376 71.5225 40.2352 71.5909 40.5499 71.5909C40.7347 71.5909 40.9194 71.5635 41.1041 71.5088C41.2957 71.454 41.4667 71.3754 41.6172 71.2727C41.7677 71.1633 41.8909 71.0299 41.9866 70.8725C42.0824 70.7152 42.1303 70.5339 42.1303 70.3286C42.1303 70.1029 42.0927 69.9216 42.0174 69.7847C41.9422 69.6411 41.8259 69.5179 41.6685 69.4153C41.5112 69.3127 41.3128 69.2203 41.0733 69.1382C40.8339 69.0561 40.5534 68.9604 40.2318 68.8509C39.9719 68.7688 39.7324 68.6764 39.5135 68.5738C39.2946 68.4644 39.103 68.3344 38.9388 68.1839C38.7815 68.0265 38.6549 67.8418 38.5591 67.6297C38.4702 67.4108 38.4257 67.1508 38.4257 66.8498C38.4257 66.5009 38.4941 66.1965 38.631 65.9365C38.7678 65.6765 38.9525 65.461 39.1851 65.29C39.4177 65.1121 39.6811 64.9787 39.9753 64.8898C40.2695 64.8008 40.5773 64.7563 40.8989 64.7563C41.3093 64.7563 41.6822 64.8213 42.0174 64.9513C42.3595 65.0745 42.6639 65.2934 42.9307 65.6081L42.2227 66.2238Z" fill="white"/>
<path d="M45.1952 64.9411H46.0572V72.2066H45.1952V64.9411Z" fill="white"/>
<path d="M47.5839 64.9411H48.5588L50.7959 70.9136H50.8164L53.1254 64.9411H54.0387L51.1961 72.2066H50.3649L47.5839 64.9411Z" fill="white"/>
<path d="M55.5711 64.9411H60.1377V65.7415H56.4331V68.0197H59.8914V68.8201H56.4331V71.4061H60.3224V72.2066H55.5711V64.9411Z" fill="white"/>
<path d="M68.3073 64.9411H69.118L72.2068 72.2066H71.2011L70.4623 70.421H66.8295L66.0804 72.2066H65.1055L68.3073 64.9411ZM68.6972 66.0494H68.6767L67.1682 69.6206H70.1339L68.6972 66.0494Z" fill="white"/>
<path d="M77.3389 66.2238C77.1952 65.9912 77.0036 65.8236 76.7642 65.721C76.5248 65.6115 76.275 65.5568 76.0151 65.5568C75.8235 65.5568 75.6354 65.5807 75.4507 65.6286C75.2659 65.6765 75.0983 65.7483 74.9478 65.8441C74.8042 65.9399 74.6878 66.0665 74.5989 66.2238C74.51 66.3812 74.4655 66.5659 74.4655 66.778C74.4655 66.9422 74.4894 67.0893 74.5373 67.2192C74.5921 67.3424 74.6776 67.4553 74.7939 67.5579C74.9102 67.6605 75.0675 67.7563 75.2659 67.8452C75.4643 67.9342 75.7072 68.0231 75.9945 68.112C76.275 68.201 76.5453 68.2968 76.8053 68.3994C77.0721 68.502 77.3047 68.632 77.5031 68.7893C77.7083 68.9467 77.8691 69.1451 77.9854 69.3845C78.1085 69.6171 78.1701 69.9113 78.1701 70.2671C78.1701 70.6297 78.0983 70.9444 77.9546 71.2112C77.8109 71.478 77.6194 71.7003 77.3799 71.8782C77.1473 72.0492 76.8771 72.1758 76.5692 72.2579C76.2614 72.3468 75.9432 72.3913 75.6149 72.3913C75.4028 72.3913 75.1907 72.3708 74.9786 72.3297C74.7665 72.2955 74.5613 72.2408 74.3629 72.1655C74.1713 72.0834 73.99 71.9808 73.819 71.8577C73.648 71.7277 73.5009 71.5703 73.3777 71.3856L74.1166 70.7802C74.2739 71.047 74.4929 71.2488 74.7734 71.3856C75.0539 71.5225 75.3515 71.5909 75.6662 71.5909C75.8509 71.5909 76.0356 71.5635 76.2203 71.5088C76.4119 71.454 76.5829 71.3754 76.7334 71.2727C76.8839 71.1633 77.0071 71.0299 77.1028 70.8725C77.1986 70.7152 77.2465 70.5339 77.2465 70.3286C77.2465 70.1029 77.2089 69.9216 77.1336 69.7847C77.0584 69.6411 76.9421 69.5179 76.7847 69.4153C76.6274 69.3127 76.429 69.2203 76.1895 69.1382C75.9501 69.0561 75.6696 68.9604 75.348 68.8509C75.0881 68.7688 74.8486 68.6764 74.6297 68.5738C74.4108 68.4644 74.2192 68.3344 74.055 68.1839C73.8977 68.0265 73.7711 67.8418 73.6753 67.6297C73.5864 67.4108 73.5419 67.1508 73.5419 66.8498C73.5419 66.5009 73.6103 66.1965 73.7472 65.9365C73.884 65.6765 74.0687 65.461 74.3013 65.29C74.5339 65.1121 74.7973 64.9787 75.0915 64.8898C75.3857 64.8008 75.6935 64.7563 76.0151 64.7563C76.4255 64.7563 76.7984 64.8213 77.1336 64.9513C77.4757 65.0745 77.7801 65.2934 78.047 65.6081L77.3389 66.2238Z" fill="white"/>
<path d="M83.7595 66.2238C83.6158 65.9912 83.4242 65.8236 83.1848 65.721C82.9453 65.6115 82.6956 65.5568 82.4357 65.5568C82.2441 65.5568 82.056 65.5807 81.8713 65.6286C81.6865 65.6765 81.5189 65.7483 81.3684 65.8441C81.2247 65.9399 81.1084 66.0665 81.0195 66.2238C80.9306 66.3812 80.8861 66.5659 80.8861 66.778C80.8861 66.9422 80.91 67.0893 80.9579 67.2192C81.0127 67.3424 81.0982 67.4553 81.2145 67.5579C81.3308 67.6605 81.4881 67.7563 81.6865 67.8452C81.8849 67.9342 82.1278 68.0231 82.4151 68.112C82.6956 68.201 82.9659 68.2968 83.2258 68.3994C83.4927 68.502 83.7253 68.632 83.9237 68.7893C84.1289 68.9467 84.2897 69.1451 84.406 69.3845C84.5291 69.6171 84.5907 69.9113 84.5907 70.2671C84.5907 70.6297 84.5189 70.9444 84.3752 71.2112C84.2315 71.478 84.04 71.7003 83.8005 71.8782C83.5679 72.0492 83.2977 72.1758 82.9898 72.2579C82.682 72.3468 82.3638 72.3913 82.0354 72.3913C81.8234 72.3913 81.6113 72.3708 81.3992 72.3297C81.1871 72.2955 80.9819 72.2408 80.7835 72.1655C80.5919 72.0834 80.4106 71.9808 80.2396 71.8577C80.0686 71.7277 79.9215 71.5703 79.7983 71.3856L80.5372 70.7802C80.6945 71.047 80.9135 71.2488 81.194 71.3856C81.4745 71.5225 81.7721 71.5909 82.0868 71.5909C82.2715 71.5909 82.4562 71.5635 82.6409 71.5088C82.8325 71.454 83.0035 71.3754 83.154 71.2727C83.3045 71.1633 83.4277 71.0299 83.5234 70.8725C83.6192 70.7152 83.6671 70.5339 83.6671 70.3286C83.6671 70.1029 83.6295 69.9216 83.5542 69.7847C83.479 69.6411 83.3627 69.5179 83.2053 69.4153C83.048 69.3127 82.8496 69.2203 82.6101 69.1382C82.3707 69.0561 82.0902 68.9604 81.7686 68.8509C81.5087 68.7688 81.2692 68.6764 81.0503 68.5738C80.8314 68.4644 80.6398 68.3344 80.4756 68.1839C80.3183 68.0265 80.1917 67.8418 80.0959 67.6297C80.007 67.4108 79.9625 67.1508 79.9625 66.8498C79.9625 66.5009 80.0309 66.1965 80.1678 65.9365C80.3046 65.6765 80.4893 65.461 80.7219 65.29C80.9545 65.1121 81.2179 64.9787 81.5121 64.8898C81.8063 64.8008 82.1141 64.7563 82.4357 64.7563C82.8461 64.7563 83.219 64.8213 83.5542 64.9513C83.8963 65.0745 84.2007 65.2934 84.4676 65.6081L83.7595 66.2238Z" fill="white"/>
<path d="M86.732 64.9411H91.2986V65.7415H87.594V68.0197H91.0523V68.8201H87.594V71.4061H91.4833V72.2066H86.732V64.9411Z" fill="white"/>
<path d="M98.4079 65.7415H96.0066V72.2066H95.1446V65.7415H92.7432V64.9411H98.4079V65.7415Z" fill="white"/>
<path d="M103.592 66.2238C103.449 65.9912 103.257 65.8236 103.018 65.721C102.778 65.6115 102.529 65.5568 102.269 65.5568C102.077 65.5568 101.889 65.5807 101.704 65.6286C101.52 65.6765 101.352 65.7483 101.201 65.8441C101.058 65.9399 100.941 66.0665 100.852 66.2238C100.764 66.3812 100.719 66.5659 100.719 66.778C100.719 66.9422 100.743 67.0893 100.791 67.2192C100.846 67.3424 100.931 67.4553 101.047 67.5579C101.164 67.6605 101.321 67.7563 101.52 67.8452C101.718 67.9342 101.961 68.0231 102.248 68.112C102.529 68.201 102.799 68.2968 103.059 68.3994C103.326 68.502 103.558 68.632 103.757 68.7893C103.962 68.9467 104.123 69.1451 104.239 69.3845C104.362 69.6171 104.424 69.9113 104.424 70.2671C104.424 70.6297 104.352 70.9444 104.208 71.2112C104.065 71.478 103.873 71.7003 103.634 71.8782C103.401 72.0492 103.131 72.1758 102.823 72.2579C102.515 72.3468 102.197 72.3913 101.868 72.3913C101.656 72.3913 101.444 72.3708 101.232 72.3297C101.02 72.2955 100.815 72.2408 100.616 72.1655C100.425 72.0834 100.244 71.9808 100.073 71.8577C99.9015 71.7277 99.7545 71.5703 99.6313 71.3856L100.37 70.7802C100.528 71.047 100.746 71.2488 101.027 71.3856C101.307 71.5225 101.605 71.5909 101.92 71.5909C102.104 71.5909 102.289 71.5635 102.474 71.5088C102.665 71.454 102.836 71.3754 102.987 71.2727C103.138 71.1633 103.261 71.0299 103.356 70.8725C103.452 70.7152 103.5 70.5339 103.5 70.3286C103.5 70.1029 103.462 69.9216 103.387 69.7847C103.312 69.6411 103.196 69.5179 103.038 69.4153C102.881 69.3127 102.683 69.2203 102.443 69.1382C102.204 69.0561 101.923 68.9604 101.602 68.8509C101.342 68.7688 101.102 68.6764 100.883 68.5738C100.664 68.4644 100.473 68.3344 100.309 68.1839C100.151 68.0265 100.025 67.8418 99.9289 67.6297C99.84 67.4108 99.7955 67.1508 99.7955 66.8498C99.7955 66.5009 99.8639 66.1965 100.001 65.9365C100.138 65.6765 100.322 65.461 100.555 65.29C100.787 65.1121 101.051 64.9787 101.345 64.8898C101.639 64.8008 101.947 64.7563 102.269 64.7563C102.679 64.7563 103.052 64.8213 103.387 64.9513C103.729 65.0745 104.034 65.2934 104.301 65.6081L103.592 66.2238Z" fill="white"/>
</svg>
