<svg width="208" height="54" viewBox="0 0 208 54" fill="none" xmlns="http://www.w3.org/2000/svg">
<g clip-path="url(#clip0_93_5245)">
<path d="M64.1325 6.54838L60.9855 1.16504L49.0498 21.5972C48.5908 22.3805 47.9352 23.0305 47.1479 23.4827C46.3606 23.935 45.4689 24.1739 44.561 24.1758H20.1955C18.3386 24.1758 16.6335 23.1909 15.7067 21.5972L3.76936 1.16504L0.644958 6.50962L11.0645 24.3647C11.5298 25.1615 11.775 26.0675 11.775 26.9902C11.775 27.9129 11.5298 28.819 11.0645 29.6157L0.644958 47.4708L3.77098 52.8348L15.6873 32.4026C16.1465 31.619 16.8023 30.9689 17.5899 30.5166C18.3775 30.0644 19.2695 29.8256 20.1777 29.824H44.5432C46.4001 29.824 48.1036 30.8089 49.032 32.4026L60.9484 52.8348L64.1131 47.4143L53.7114 29.5963C53.2611 28.7934 53.0278 27.887 53.0346 26.9665C53.0414 26.046 53.288 25.1431 53.7501 24.347L64.1325 6.54838ZM204.823 12.2902C203.649 12.2902 202.625 13.125 202.38 14.3004C202.284 14.8123 202.171 15.3242 202.057 15.8731C199.859 13.8645 197.453 12.4823 194.631 11.9123C191.77 11.344 188.947 11.457 186.162 12.3289C183.414 13.2009 181.122 14.7736 179.266 16.9921C174.719 22.4126 174.699 31.4548 179.227 36.9124C181.558 39.7187 184.513 41.4626 188.095 42.144C193.266 43.1112 197.85 41.8033 201.905 38.2397C202.152 39.491 202.36 40.5713 202.588 41.6515H207.324V14.7929C207.324 13.4091 206.206 12.2902 204.823 12.2902ZM191.334 36.5911C185.991 36.4781 181.936 32.2315 182.051 26.8287C182.107 21.1806 186.598 17.068 192.414 17.3506C197.434 17.5992 201.508 21.8442 201.393 27.0564C201.28 32.7239 197.093 36.7041 191.334 36.5911ZM113.94 12.2159C113.348 12.2251 112.777 12.4371 112.322 12.8164C111.867 13.1957 111.555 13.7194 111.439 14.3004C111.338 14.7933 111.28 15.2942 111.268 15.7973C104.107 9.24005 93.8587 11.0775 89.1019 16.272C83.9672 21.9007 83.7412 31.1512 88.4592 36.9883C92.6461 42.144 102.801 45.4428 111.136 38.3156C111.307 39.2262 111.383 40.0788 111.648 40.8748C111.761 41.2155 112.255 41.6515 112.615 41.6709C113.865 41.7661 115.114 41.708 116.518 41.708V14.7929C116.518 13.372 115.361 12.2159 113.94 12.2159ZM100.868 36.5911C95.278 36.5717 91.2446 32.4963 91.2623 26.9046C91.2995 21.2952 95.3168 17.3522 100.983 17.3716C106.495 17.3893 110.55 21.4454 110.55 26.9628C110.567 32.5156 106.437 36.6105 100.868 36.5911ZM133.057 30.5441C133.037 26.6027 133.057 17.4475 133.057 17.4475H141.695V12.253H133.057V5.27763H130.783C130.096 5.27643 129.421 5.45641 128.826 5.79943C128.23 6.14245 127.736 6.63637 127.392 7.23139L121.442 17.504L127.638 17.5233C127.638 17.5233 127.544 27.72 127.638 32.0603C127.751 36.6105 130.31 40.0965 134.516 41.0637C137.035 41.6321 139.233 41.6321 139.233 41.6321L142.378 36.2116C142.359 36.1923 140.198 36.2116 139.176 36.1923C135.501 36.0986 133.076 34.203 133.057 30.5441ZM166.779 23.4363L173.319 12.2724H167.165L162.195 20.764C161.748 21.5325 161.106 22.1698 160.335 22.6122C159.563 23.0546 158.689 23.2864 157.8 23.2845H154.125V4.61399C154.125 3.09781 152.893 1.84643 151.359 1.84643C149.823 1.84643 148.591 3.07843 148.591 4.61399V41.7096H154.106V28.8019H157.781C159.6 28.8019 161.267 29.7691 162.176 31.3224L168.239 41.7096H174.434L166.761 28.5548C166.321 27.773 166.092 26.8904 166.095 25.9932C166.098 25.0961 166.334 24.2151 166.779 23.4363Z" fill="white"/>
</g>
<defs>
<clipPath id="clip0_93_5245">
<rect width="206.679" height="51.6697" fill="white" transform="translate(0.644958 1.16504)"/>
</clipPath>
</defs>
</svg>
