<svg width="327" height="45" viewBox="0 0 327 45" fill="none" xmlns="http://www.w3.org/2000/svg">
<path d="M62.7709 32.4696C63.6542 32.4696 64.5422 32.3756 65.4349 32.1877C66.3275 31.9998 67.1309 31.6897 67.8451 31.2574C68.5592 30.8252 69.1418 30.2567 69.5928 29.552C70.0439 28.8472 70.2694 27.9686 70.2694 26.9162C70.2694 26.2773 70.166 25.6759 69.9593 25.1121C69.7526 24.5483 69.4566 24.055 69.0713 23.6321C68.6861 23.2093 68.2256 22.8616 67.69 22.5891C67.1544 22.3166 66.5577 22.1334 65.9 22.0394V21.983C66.9336 21.6636 67.7652 21.1326 68.3948 20.3903C69.0243 19.648 69.3391 18.713 69.3391 17.5855C69.3391 16.4955 69.123 15.6216 68.6908 14.9638C68.2585 14.3061 67.6947 13.7939 66.9994 13.4275C66.304 13.061 65.5194 12.8167 64.6456 12.6946C63.7717 12.5724 62.9025 12.5113 62.038 12.5113H54.5959V32.4696H62.7709ZM62.179 20.489H58.9935V16.2324H61.9816C62.3199 16.2324 62.6676 16.2652 63.0246 16.331C63.3817 16.3968 63.7012 16.5049 63.9831 16.6552C64.265 16.8055 64.4952 17.017 64.6737 17.2895C64.8523 17.562 64.9415 17.9049 64.9415 18.3184C64.9415 18.713 64.8617 19.0513 64.7019 19.3332C64.5422 19.6151 64.3308 19.8406 64.0677 20.0098C63.8046 20.1789 63.5086 20.3011 63.1797 20.3762C62.8508 20.4514 62.5172 20.489 62.179 20.489ZM62.9401 28.7485H58.9935V24.21H62.3199C62.677 24.21 63.0622 24.2382 63.4757 24.2946C63.8891 24.351 64.2744 24.4543 64.6315 24.6047C64.9885 24.755 65.2845 24.9758 65.5194 25.2671C65.7543 25.5584 65.8718 25.939 65.8718 26.4088C65.8718 26.841 65.7825 27.2075 65.604 27.5082C65.4255 27.8089 65.1952 28.0532 64.9134 28.2411C64.6315 28.4291 64.3167 28.5606 63.969 28.6358C63.6213 28.711 63.2784 28.7485 62.9401 28.7485ZM85.2326 32.4696V28.4103H77.0858V12.5113H72.6882V32.4696H85.2326ZM97.0103 32.977C98.5702 32.977 100.008 32.7327 101.323 32.2441C102.639 31.7554 103.776 31.0554 104.734 30.1439C105.693 29.2325 106.44 28.1284 106.975 26.8317C107.511 25.5349 107.779 24.0879 107.779 22.4904C107.779 20.893 107.511 19.446 106.975 18.1492C106.44 16.8525 105.693 15.7484 104.734 14.837C103.776 13.9255 102.639 13.2255 101.323 12.7368C100.008 12.2482 98.5702 12.0039 97.0103 12.0039C95.4505 12.0039 94.0128 12.2482 92.6973 12.7368C91.3818 13.2255 90.2448 13.9255 89.2864 14.837C88.3279 15.7484 87.5809 16.8525 87.0453 18.1492C86.5097 19.446 86.2419 20.893 86.2419 22.4904C86.2419 24.0879 86.5097 25.5349 87.0453 26.8317C87.5809 28.1284 88.3279 29.2325 89.2864 30.1439C90.2448 31.0554 91.3818 31.7554 92.6973 32.2441C94.0128 32.7327 95.4505 32.977 97.0103 32.977ZM97.0103 28.9177C96.0707 28.9177 95.2203 28.7579 94.4592 28.4385C93.6981 28.119 93.045 27.6726 92.5 27.0995C91.955 26.5263 91.5369 25.8497 91.2456 25.0698C90.9543 24.2899 90.8086 23.4301 90.8086 22.4904C90.8086 21.5696 90.9543 20.7145 91.2456 19.9252C91.5369 19.1359 91.955 18.4546 92.5 17.8814C93.045 17.3083 93.6981 16.8619 94.4592 16.5424C95.2203 16.223 96.0707 16.0632 97.0103 16.0632C97.95 16.0632 98.8004 16.223 99.5615 16.5424C100.323 16.8619 100.976 17.3083 101.521 17.8814C102.066 18.4546 102.484 19.1359 102.775 19.9252C103.066 20.7145 103.212 21.5696 103.212 22.4904C103.212 23.4301 103.066 24.2899 102.775 25.0698C102.484 25.8497 102.066 26.5263 101.521 27.0995C100.976 27.6726 100.323 28.119 99.5615 28.4385C98.8004 28.7579 97.95 28.9177 97.0103 28.9177ZM120.12 32.977C121.492 32.977 122.827 32.6951 124.123 32.1313C125.42 31.5675 126.491 30.6936 127.337 29.5097L123.672 26.7753C123.221 27.4518 122.648 27.978 121.953 28.3539C121.257 28.7298 120.459 28.9177 119.557 28.9177C118.767 28.9177 118.03 28.7579 117.344 28.4385C116.658 28.119 116.061 27.6726 115.554 27.0995C115.046 26.5263 114.647 25.8497 114.356 25.0698C114.064 24.2899 113.919 23.4301 113.919 22.4904C113.919 21.5696 114.064 20.7145 114.356 19.9252C114.647 19.1359 115.051 18.4546 115.568 17.8814C116.085 17.3083 116.695 16.8619 117.4 16.5424C118.105 16.223 118.871 16.0632 119.697 16.0632C120.524 16.0632 121.253 16.2042 121.882 16.4861C122.512 16.768 123.043 17.172 123.475 17.6982L126.858 14.9356C126.425 14.3906 125.937 13.9302 125.392 13.5543C124.847 13.1785 124.278 12.8778 123.686 12.6523C123.094 12.4268 122.493 12.2623 121.882 12.1589C121.271 12.0556 120.684 12.0039 120.12 12.0039C118.561 12.0039 117.123 12.2482 115.807 12.7368C114.492 13.2255 113.355 13.9255 112.396 14.837C111.438 15.7484 110.691 16.8525 110.155 18.1492C109.62 19.446 109.352 20.893 109.352 22.4904C109.352 24.0879 109.62 25.5349 110.155 26.8317C110.691 28.1284 111.438 29.2325 112.396 30.1439C113.355 31.0554 114.492 31.7554 115.807 32.2441C117.123 32.7327 118.561 32.977 120.12 32.977ZM133.956 32.4696V22.9979L142.075 32.4696H148.22L138.579 21.7857L147.459 12.5113H141.708L133.956 20.7991V12.5113H129.558V32.4696H133.956ZM157.01 32.4696L161.407 18.6567H161.464L165.861 32.4696H169.779L175.615 12.5113H171.161L167.806 25.6477H167.75L163.606 12.5113H159.518L155.346 25.3094H155.29L152.105 12.5113H147.312L153.232 32.4696H157.01ZM179.33 32.4696L180.993 28.2411H188.746L190.465 32.4696H195.427L186.744 12.5113H183.108L174.482 32.4696H179.33ZM187.252 24.5201H182.375L184.799 18.3184L187.252 24.5201ZM202.75 32.4696V16.4015H208.445V12.5113H192.658V16.4015H198.353V32.4696H202.75ZM220.025 32.977C221.397 32.977 222.731 32.6951 224.028 32.1313C225.325 31.5675 226.396 30.6936 227.242 29.5097L223.577 26.7753C223.126 27.4518 222.553 27.978 221.857 28.3539C221.162 28.7298 220.363 28.9177 219.461 28.9177C218.672 28.9177 217.934 28.7579 217.248 28.4385C216.562 28.119 215.966 27.6726 215.458 27.0995C214.951 26.5263 214.552 25.8497 214.26 25.0698C213.969 24.2899 213.823 23.4301 213.823 22.4904C213.823 21.5696 213.969 20.7145 214.26 19.9252C214.552 19.1359 214.956 18.4546 215.472 17.8814C215.989 17.3083 216.6 16.8619 217.305 16.5424C218.01 16.223 218.775 16.0632 219.602 16.0632C220.429 16.0632 221.157 16.2042 221.787 16.4861C222.416 16.768 222.947 17.172 223.38 17.6982L226.762 14.9356C226.33 14.3906 225.842 13.9302 225.297 13.5543C224.752 13.1785 224.183 12.8778 223.591 12.6523C222.999 12.4268 222.398 12.2623 221.787 12.1589C221.176 12.0556 220.589 12.0039 220.025 12.0039C218.465 12.0039 217.028 12.2482 215.712 12.7368C214.397 13.2255 213.26 13.9255 212.301 14.837C211.343 15.7484 210.596 16.8525 210.06 18.1492C209.524 19.446 209.257 20.893 209.257 22.4904C209.257 24.0879 209.524 25.5349 210.06 26.8317C210.596 28.1284 211.343 29.2325 212.301 30.1439C213.26 31.0554 214.397 31.7554 215.712 32.2441C217.028 32.7327 218.465 32.977 220.025 32.977ZM233.692 32.4696V23.8436H242.233V32.4696H246.631V12.5113H242.233V19.9534H233.692V12.5113H229.294V32.4696H233.692ZM264.971 32.4696C266.7 32.4696 268.166 32.2582 269.369 31.8353C270.571 31.4125 271.572 30.8722 272.371 30.2144C273.17 29.5567 273.799 28.8284 274.26 28.0297C274.72 27.231 275.058 26.4652 275.274 25.7323C275.49 24.9993 275.627 24.3369 275.683 23.7449C275.739 23.1529 275.768 22.7348 275.768 22.4904C275.768 22.2461 275.739 21.828 275.683 21.236C275.627 20.644 275.49 19.9816 275.274 19.2486C275.058 18.5157 274.72 17.7499 274.26 16.9512C273.799 16.1525 273.17 15.4242 272.371 14.7665C271.572 14.1087 270.571 13.5684 269.369 13.1456C268.166 12.7227 266.7 12.5113 264.971 12.5113H258.798V32.4696H264.971ZM264.492 30.7782H260.658V14.2027H264.492C265.807 14.2027 267.038 14.3671 268.185 14.696C269.331 15.0249 270.327 15.5276 271.173 16.2042C272.018 16.8807 272.686 17.7405 273.174 18.7835C273.663 19.8265 273.907 21.0622 273.907 22.4904C273.907 23.9187 273.663 25.1544 273.174 26.1974C272.686 27.2404 272.018 28.1002 271.173 28.7767C270.327 29.4533 269.331 29.956 268.185 30.2849C267.038 30.6138 265.807 30.7782 264.492 30.7782ZM278.948 32.4696L281.203 27.1699H291.774L293.944 32.4696H296.031L287.63 12.5113H285.713L277.003 32.4696H278.948ZM291.097 25.4785H281.936L286.587 14.541L291.097 25.4785ZM302.931 32.4696V14.2027H309.753V12.5113H294.249V14.2027H301.071V32.4696H302.931ZM309.917 32.4696L312.172 27.1699H322.743L324.914 32.4696H327L318.599 12.5113H316.683L307.972 32.4696H309.917ZM322.067 25.4785H312.905L317.556 14.541L322.067 25.4785Z" fill="white"/>
<path d="M43.1697 11.1877L22.0322 21.4613V43.019L43.1697 32.4073V11.1877Z" fill="white" fill-opacity="0.6"/>
<path d="M22.051 1.64429L0.999878 10.8199L22.051 21.4576L43.0646 11.1957L22.051 1.64429Z" fill="white"/>
<path d="M22.0322 21.5031L0.999878 10.8767L0.999878 31.9874L22.0322 43.585V21.5031Z" fill="white" fill-opacity="0.33"/>
<path fill-rule="evenodd" clip-rule="evenodd" d="M21.8564 0.996565C21.9775 0.942515 22.1162 0.943593 22.2364 0.999518L43.363 10.8225C43.5247 10.8977 43.6281 11.0598 43.6281 11.2382V32.7624C43.6281 32.9344 43.5318 33.0919 43.3787 33.1703L22.2522 43.993C22.1191 44.0611 21.9612 44.0601 21.8291 43.9903L0.785763 32.8734C0.635512 32.794 0.541504 32.638 0.541504 32.4681V10.8045C0.541504 10.6236 0.6479 10.4596 0.8131 10.3859L21.8564 0.996565ZM1.45824 11.1019V32.1918L22.0464 43.0683L42.7114 32.4822V11.5305L22.0393 1.91883L1.45824 11.1019Z" fill="white"/>
</svg>
