<svg width="204" height="44" viewBox="0 0 204 44" fill="none" xmlns="http://www.w3.org/2000/svg">
	<path d="M0.638916 27.7376V9.87968L4.09069 11.848V25.6266L28.0534 39.4622V43.3704L0.638916 27.7376Z" fill="white" />
	<path d="M0.952713 9.39472L16.6426 0.979248L43.7147 16.5835L40.3485 18.4093L28.7951 11.848L19.8947 16.5835L16.1576 14.4725L20.6232 12.0537C21.1806 11.7517 21.5814 11.308 21.8242 10.8025L20.4937 11.5342L16.9849 9.53736V5.65768L21.8918 8.48472C21.6691 7.94104 21.2704 7.45591 20.6945 7.12206L18.2832 5.72433C17.2637 5.13337 16.0105 5.11378 14.9731 5.6726L4.46154 11.3346L0.952713 9.39472Z" fill="white" />
	<path d="M19.5523 21.6043V17.0685L15.8438 15.0145V23.7438L31.6478 32.7584L35.6416 30.7329L19.5523 21.6043Z" fill="white" />
	<path d="M20.1514 17.0685V20.9482L28.4242 16.5835V12.6468L20.1514 17.0685Z" fill="white" />
	<path d="M29.0233 12.6468V16.5835L40.0347 22.8024V18.8942L29.0233 12.6468Z" fill="white" />
	<path d="M40.6338 18.8942V22.8024L44 20.9482V17.0685L40.6338 18.8942Z" fill="white" />
	<path d="M28.4242 38.9202L43.7147 30.7329L24.2022 19.4362L20.4937 21.4331L36.8682 30.7329L28.4242 35.1261L8.45532 23.6012L4.9465 25.4554L28.4242 38.9202Z" fill="white" />
	<path d="M44 35.1261V31.2179L28.6239 39.4622V43.3704L44 35.1261Z" fill="white" />
	<path d="M4.66123 11.848V24.9705L8.08447 23.1162V13.902L16.3288 9.53736V5.65768L4.66123 11.848Z" fill="white" />
	<path fill-rule="evenodd" clip-rule="evenodd" d="M72.6849 29.6049C71.9053 30.9493 70.6666 32.1282 69.1169 32.6821C60.3479 35.818 56.166 24.892 59.2883 17.6381C60.8447 14.0221 66.1226 11.2007 70.598 14.0823C71.4758 14.6471 72.3389 15.6523 72.8195 16.6124C73.0215 17.1362 73.2235 17.6614 73.4254 18.1852H76.2528C76.7591 17.0131 75.476 15.1668 74.9738 14.4242C73.0929 11.6438 69.187 9.19029 64.068 10.2529C58.5047 11.4072 56.1014 15.3364 55.1818 21.2624C54.0899 28.2961 58.0873 34.0018 62.7889 35.4857C68.9958 37.4441 76.3336 33.5683 76.3875 27.8954H73.4927C73.2235 28.4657 72.9542 29.0346 72.6849 29.6049ZM144.784 17.5014C144.08 13.7636 149.233 12.2237 152.526 13.2617C154.843 13.992 154.85 15.134 155.892 17.0911C156.137 17.4303 158.239 17.448 158.719 17.2278C159.465 16.4059 158.132 14.2136 157.777 13.672C156.059 11.0571 153.388 10.0191 148.958 10.1162C148.352 10.2297 147.746 10.3446 147.14 10.4581C145.602 10.919 143.99 11.7765 143.101 12.9198C140.627 16.1023 141.479 20.5991 144.515 22.4932C147.793 24.5392 155.461 23.8444 156.229 28.374C157.246 34.3752 145.008 34.7431 144.111 28.9211C143.462 28.6147 142.038 28.7652 141.149 28.7843C140.68 30.4364 141.915 32.0379 142.563 32.8872C145.803 37.1392 155.557 36.9983 158.383 32.4769C158.83 31.763 159.146 30.8358 159.325 29.8784C161.294 19.3764 145.933 23.5996 144.784 17.5014V17.5014ZM185.647 12.7147C186.298 12.6695 186.949 12.623 187.6 12.5779C187.838 12.3276 187.834 10.8273 187.667 10.4581C187.215 9.83171 184.799 10.2119 184.166 10.3897C181.254 11.2089 180.973 13.631 181.07 17.5014H178.579V20.0315H181.07V35.5541H184.032V20.0315H187.6C187.622 19.1877 187.644 18.3452 187.667 17.5014H183.964C183.921 15.1641 183.858 13.2015 185.647 12.7147V12.7147ZM90.188 17.433C88.742 17.0104 86.7157 17.1554 85.4756 17.7065C84.2612 18.2454 83.7859 19.2383 82.9175 20.0999V20.2366C82.5849 19.7607 82.7828 18.3083 82.7828 17.5698V10.5265C81.7959 10.5032 80.8077 10.4813 79.8208 10.4581V35.5541H82.7828C82.7371 29.6664 81.2412 18.6529 87.8991 19.8263C91.7714 20.5088 91.7364 23.6133 91.7364 28.2373V35.5541H94.7657C94.8102 27.946 96.0771 19.1535 90.188 17.433V17.433ZM117.52 10.6632C115.009 11.7327 115.815 14.9384 118.126 14.4242C120.217 13.9592 120.001 10.6126 117.52 10.6632V10.6632ZM110.317 18.5955C106.512 15.6387 98.5006 17.2716 98.5356 22.63C99.4552 22.6532 100.376 22.6751 101.296 22.6984C102.582 18.2618 110.893 19.0112 109.239 24.8182C104.643 25.662 100.147 24.6267 98.3337 28.2373C98.024 28.8527 97.6228 29.8483 97.7951 30.9041C98.4629 34.9865 102.793 37.4975 106.883 35.007C107.723 34.4955 108.654 33.9116 109.038 32.9556C109.105 32.9105 109.172 32.864 109.239 32.8188C109.262 33.731 109.284 34.6419 109.307 35.5541H112.336C112.368 30.063 113.368 20.9669 110.317 18.5955V18.5955ZM106.681 32.8188C104.811 33.6627 102.052 33.2879 101.161 31.7931C98.6528 27.5849 105.991 27.1965 109.307 27.2799C109.374 30.2696 108.63 31.9408 106.681 32.8188ZM133.542 17.3646C132.233 17.0213 130.294 17.1184 129.166 17.5698C127.853 18.0949 127.269 19.1671 126.271 19.9631V17.5014H123.309V35.5541H126.271C126.224 29.5529 124.666 18.6105 131.522 19.8263C132.776 20.0493 133.788 20.5485 134.35 21.4675C135.568 23.4629 135.055 32.1049 135.023 35.5541H137.985V27.4851C137.985 22.0364 137.784 18.4779 133.542 17.3646ZM174.405 18.6639C170.608 15.6688 162.473 17.1526 162.557 22.6984H165.317C166.433 18.1975 174.9 19.0646 173.26 24.8182C168.123 25.7523 162.738 24.5105 161.816 29.6733C160.584 36.573 170.997 37.6917 172.991 33.024L173.26 32.9556C173.283 33.8213 173.305 34.6884 173.328 35.5541H176.29C176.319 30.2655 177.309 20.9546 174.405 18.6639ZM165.451 32.2034C165.053 31.7042 164.732 30.8836 164.913 30.0152C165.665 26.4005 169.081 28.3262 171.981 27.2799H173.26C174.56 31.9408 167.958 35.3435 165.451 32.2034ZM194.534 27.3483H203.891C204.136 26.4265 203.914 25.0179 203.756 24.2028C202.88 19.6636 200.642 17.0856 195.207 17.1595C194.645 17.273 194.085 17.3879 193.524 17.5014C192.103 17.9664 190.758 19.0523 189.956 20.1683C186.976 24.3108 187.788 31.7575 191.437 34.46C194.625 36.8205 200.25 35.9562 202.343 33.2291C202.763 32.6821 203.89 31.4731 203.554 30.4939C203.185 30.1492 201.576 30.3338 200.929 30.3571C199.93 31.681 199.417 32.7395 197.496 33.1607C193.969 33.9334 192.013 31.5715 191.369 29.0578C191.267 28.6571 191.048 27.9528 191.235 27.4851C191.718 27.057 193.739 27.3483 194.534 27.3483ZM193.793 20.3734C194.422 20.1915 195.049 20.0082 195.678 19.8263C198.859 19.7648 200.871 21.767 200.862 24.8866C197.698 24.9098 194.534 24.9317 191.369 24.955C190.758 23.1675 192.697 21.0175 193.793 20.3734ZM116.308 35.5541H119.203C119.226 29.5365 119.247 23.5189 119.27 17.5014H116.308V35.5541Z" fill="white" />
</svg>
