<svg width="216" height="71" viewBox="0 0 216 71" fill="none" xmlns="http://www.w3.org/2000/svg">
<path fill-rule="evenodd" clip-rule="evenodd" d="M122.588 0.211602C121.19 0.387007 120.103 0.907632 119.147 1.86052C118.353 2.65275 117.804 3.69195 117.57 4.85146C117.428 5.55315 117.411 6.01766 117.437 8.65534L117.461 11.1857L117.286 11.0845C116.546 10.6553 115.268 10.2412 114.186 10.0803C113.244 9.94028 105.977 9.91052 105.13 10.0432C104.738 10.1046 104.401 10.1962 103.99 10.3532L103.719 10.4563L103.315 10.3207C102.498 10.047 102.423 10.0402 100.286 10.0489C99.2313 10.0533 97.7188 10.0753 96.9248 10.098C96.131 10.1206 94.8321 10.1577 94.0381 10.1804C92.0151 10.2382 91.4897 10.2761 91.001 10.3996C90.0851 10.6312 89.3446 11.0212 88.61 11.6593L88.382 11.8575L88.0367 11.6755C87.5678 11.4283 86.9071 11.1625 86.4063 11.0197C85.5025 10.7619 85.0261 10.6931 83.9743 10.6685C83.2273 10.6509 82.697 10.6739 80.2177 10.8312C75.8086 11.111 75.4549 11.1469 74.711 11.3911C74.4878 11.4643 74.1278 11.6155 73.9111 11.7271L73.517 11.9299L73.2899 11.8447C72.5607 11.5713 71.5428 11.4446 70.6973 11.522C70.4093 11.5483 69.8623 11.596 69.4818 11.6281C69.1011 11.6601 68.6563 11.7046 68.4932 11.727C67.027 11.9282 66.024 12.3891 65.102 13.2857L64.6963 13.6802L64.1925 13.4392C63.0839 12.9091 62.0303 12.6617 60.6636 12.6105C59.9517 12.5838 59.2882 12.6255 58.0538 12.7745C57.6297 12.8256 57.1491 12.8791 56.986 12.8933C55.0751 13.0598 53.1585 13.7416 51.8137 14.7335L51.446 15.0047L51.1326 14.8159C50.3138 14.3228 49.3699 14.0643 48.3854 14.0638C47.7256 14.0635 45.9603 14.2839 44.8817 14.5014C43.8462 14.7101 42.9242 15.1855 42.1724 15.8982L41.8466 16.207L41.4383 16.011C40.1789 15.4058 39.091 15.3231 36.9968 15.673C35.4708 15.928 34.9571 16.0654 34.3085 16.3917C33.615 16.7406 33.0158 17.2078 32.5408 17.7699L32.2639 18.0972L31.9653 17.959C31.0124 17.5177 29.8073 17.2733 28.5939 17.2752C27.6851 17.2767 27.3812 17.3231 24.3092 17.9302C23.0018 18.1887 22.273 18.4148 21.4573 18.8152C20.1233 19.4701 18.9409 20.4435 17.9904 21.6691L17.8856 21.8042L17.56 21.5948C15.9 20.5277 13.6443 20.1219 11.6883 20.5385C9.82753 20.9347 8.33629 21.2888 7.69529 21.4865C5.26653 22.2353 3.2168 24.0531 1.89191 26.6335C0.81913 28.7227 0.212614 31.2852 0.0456219 34.4336C-0.0125068 35.5289 -0.0163425 54.6413 0.0413512 55.4774C0.217793 58.0337 0.644783 59.8371 1.44894 61.4221C1.91002 62.3308 2.36002 62.9495 3.03462 63.6028C3.65479 64.2032 4.214 64.5961 4.92725 64.9327C5.81769 65.3531 6.59831 65.5366 7.64075 65.5711C8.86311 65.6116 9.88898 65.413 11.1158 64.8983C11.5279 64.7255 14.3864 63.3409 15.0224 63.0061C16.8927 62.0217 18.5638 60.365 19.6587 58.4101C19.7746 58.203 19.8736 58.0278 19.8785 58.0207C19.8833 58.0135 20.0891 58.0883 20.3357 58.1866C21.1628 58.5165 21.8196 58.6467 22.8047 58.6764C23.891 58.7089 24.6332 58.5987 25.6754 58.2502C26.5646 57.9528 29.6422 56.703 30.3536 56.3505C31.6624 55.7019 32.915 54.7282 33.8404 53.6404L34.0376 53.4083L34.4119 53.5488C35.2993 53.882 36.272 53.9548 37.2145 53.7589C37.4863 53.7024 37.9406 53.5857 38.2239 53.4995C38.8249 53.3167 40.428 52.7512 40.8235 52.5826C41.4691 52.3071 42.2374 51.7639 42.7124 51.247C42.9223 51.0183 43.277 50.5529 43.3807 50.3701C43.4059 50.3256 43.47 50.3377 43.7236 50.4348C44.3914 50.6904 44.7005 50.7397 45.6372 50.7408C46.3804 50.7415 46.5379 50.7301 46.89 50.6512C47.2468 50.571 48.5179 50.2075 49.2975 49.9625L49.577 49.8747L49.6208 49.4359C49.6766 48.8767 49.7772 48.6048 50.0323 48.3252C50.3993 47.9228 50.8392 47.7816 51.885 47.7299L52.4189 47.7035L52.5375 47.5705L52.6561 47.4374L52.9443 47.5355L53.2327 47.6336L54.9018 47.5151C57.8677 47.3046 58.8263 47.2546 59.0413 47.2987C59.2227 47.3359 59.3271 47.3162 60.4546 47.0329C62.0339 46.636 62.6314 46.4252 63.5503 45.9408C64.2092 45.5934 64.7996 45.1855 65.5409 44.5652L65.723 44.4126L66.1295 44.6133C66.8833 44.9855 67.4476 45.1282 68.2972 45.1612C68.9395 45.1864 69.3614 45.1419 70.6563 44.913C72.5609 44.5763 73.3531 44.323 74.1274 43.8025L74.3924 43.6244L74.5963 43.6829C74.9192 43.7758 75.4011 43.8561 75.8086 43.8854C76.2725 43.9188 76.8218 43.8688 78.201 43.6683C79.3793 43.4968 80.9107 43.2898 83.0417 43.0137C83.812 42.914 84.6542 42.7874 84.9136 42.7326C86.1172 42.4779 87.4543 41.8963 88.4734 41.1843L88.7809 40.9695L89.0865 41.1721C89.6666 41.5567 90.3389 41.8342 91.0442 41.9802C91.5721 42.0895 92.0853 42.0954 93.4252 42.0073C96.2476 41.8219 98.2588 41.7133 100.504 41.6253C101.406 41.5901 102.14 41.5426 102.342 41.5065C102.746 41.4344 103.265 41.2886 103.583 41.1583L103.815 41.0633L104.196 41.1918C104.964 41.451 105.153 41.468 107.265 41.468C109.359 41.468 109.466 41.4584 110.225 41.2039C110.594 41.0799 111.173 40.8062 111.439 40.6301L111.587 40.532L111.799 40.6678C112.35 41.0212 113.048 41.3097 113.692 41.4506C114.688 41.6683 118.017 41.7587 118.773 41.5883C119.138 41.5059 119.492 41.3896 119.883 41.2237L120.202 41.0879L120.654 41.3256C121.203 41.6147 121.9 41.8533 122.509 41.9608C122.759 42.0051 123.356 42.0687 123.834 42.1023C124.313 42.1359 124.953 42.1886 125.258 42.2197C126.832 42.3801 128.016 42.3941 128.639 42.2598C129.703 42.03 130.603 41.5592 131.358 40.8373C132.33 39.9065 132.921 38.7337 133.131 37.3126C133.131 37.3126 133.296 38.3284 133.545 38.9277C134.284 40.7123 135.03 42.3012 136.694 43.1543C137.395 43.5136 138.017 43.689 139.28 43.884C139.767 43.9589 140.539 44.0823 140.996 44.1579C142.784 44.4534 143.623 44.5054 144.357 44.3667C145.17 44.213 145.993 43.8657 146.64 43.4032C147.048 43.1111 147.626 42.5324 147.876 42.1668L148.068 41.8851L148.156 42.2354C148.548 43.7915 149.677 45.1555 151.164 45.8707C151.698 46.1276 152.213 46.2848 153.353 46.5384C154.483 46.7899 156.647 47.2963 157.361 47.4761L157.829 47.5942L158.172 47.5055C158.588 47.3978 159.281 47.3854 160.491 47.4641C161.81 47.55 162.399 47.6672 163.005 47.9644L163.265 48.0919L163.634 47.9991C164.309 47.8287 165.063 47.5333 165.547 47.2488C165.73 47.1415 165.79 47.122 165.813 47.1628C165.829 47.1917 165.975 47.3937 166.138 47.6112C167.108 48.9078 168.38 49.9724 169.863 50.7274C170.651 51.129 170.918 51.2318 172.698 51.8148C174.969 52.5593 175.849 52.7991 176.697 52.9037C177.249 52.9718 178.523 52.9301 179.022 52.8274C179.347 52.7606 179.854 52.6249 180.025 52.5588C180.058 52.5471 180.139 52.6535 180.238 52.8341C180.648 53.577 181.287 54.3002 181.962 54.7847C182.363 55.0718 182.968 55.3829 183.643 55.6483C184.617 56.0309 185.701 56.4293 186.039 56.5278C187.034 56.8184 188.136 56.8128 189.092 56.5124L189.45 56.3998L189.652 56.7285C190.181 57.5969 190.924 58.3335 191.792 58.8507C192.314 59.1616 194.54 60.1209 195.17 60.3068C195.644 60.4463 196.123 60.5104 196.69 60.5104H197.231L197.325 60.6367C197.53 60.9155 198.04 61.4083 198.41 61.6889C198.823 62.0005 199.098 62.1433 201.22 63.1476C201.807 63.4254 203.729 64.365 205.492 65.2355C207.252 66.1059 208.818 66.8681 208.971 66.9292C209.599 67.1814 209.884 67.2282 210.771 67.2254C211.523 67.2233 211.608 67.2155 211.964 67.1172C212.882 66.8638 213.539 66.4844 214.214 65.821C215.068 64.9802 215.606 63.9591 215.876 62.6704C215.95 62.3136 215.96 62.0784 215.987 60.3122C216.027 57.7266 215.975 56.647 215.768 55.8143C215.411 54.3717 214.56 53.1393 213.336 52.2952L213.035 52.0878L213.331 51.7713C214.043 51.0073 214.616 49.8612 214.87 48.7006C214.936 48.3908 214.942 48.1414 214.942 45.5896V42.8155L214.834 42.316C214.409 40.3477 213.293 38.8522 211.648 38.0453L211.248 37.8501L211.514 37.8011C213.124 37.5037 214.569 36.4013 215.325 34.895C215.692 34.162 215.888 33.435 215.951 32.5724C216.002 31.885 215.998 28.1742 215.948 27.6172C215.849 26.5461 215.509 25.4901 215.01 24.7082C214.295 23.5922 213.199 22.7336 211.977 22.3338C211.235 22.0915 202.667 20.1396 201.953 20.05C201.316 19.9703 200.435 20.0278 199.922 20.1823C199.764 20.2299 199.741 20.228 199.654 20.1593C199.174 19.7761 198.441 19.3834 197.86 19.1982C197.474 19.0755 196.135 18.7814 195.192 18.6127C194.596 18.5057 194.4 18.488 193.806 18.4858C192.892 18.4824 192.334 18.6047 191.497 18.9917L191.185 19.136L190.78 18.7456C190.143 18.1305 189.394 17.6718 188.606 17.4134C188.199 17.2798 186.754 16.9847 185.863 16.853C184.225 16.6111 183.109 16.7958 181.861 17.5148L181.64 17.642L181.346 17.394C180.634 16.7913 179.354 16.07 178.424 15.7471C177.813 15.535 177.037 15.3473 176.46 15.2723C176.181 15.2359 175.525 15.1352 175.003 15.0487C173.604 14.8167 173.258 14.7759 172.472 14.7501C171.333 14.7126 170.29 14.8506 169.35 15.163C168.659 15.3929 167.707 15.8969 167.058 16.377C167.026 16.4005 166.852 16.2528 166.519 15.9178C165.949 15.346 165.581 15.0448 164.92 14.6092C163.708 13.8112 162.313 13.3074 160.787 13.117C159.8 12.9938 156.467 12.6101 155.714 12.5331C155.208 12.4813 155.055 12.453 155.07 12.4139C155.081 12.3858 155.121 12.1703 155.161 11.9351C155.224 11.552 155.231 11.2597 155.223 9.1296C155.217 7.75035 155.196 6.60198 155.171 6.3951C155.002 4.96717 154.444 3.73087 153.541 2.78485C152.604 1.80257 151.444 1.23141 149.97 1.02668C149.386 0.945638 141.445 0.628634 135.064 0.43171C132.468 0.351537 131.948 0.359821 131.303 0.491512C130.977 0.557933 130.252 0.787116 130.077 0.878862C129.984 0.927765 129.938 0.916034 129.529 0.739917C129.052 0.534156 128.522 0.38352 128.036 0.315832C127.167 0.194602 123.312 0.120849 122.588 0.211602ZM126.671 5.78223C127.369 5.82331 127.502 5.86204 127.679 6.07723C127.935 6.38912 127.919 5.94621 127.965 13.9249C127.988 17.9137 128.024 23.8345 128.046 27.0823C128.114 37.6009 128.117 37.2853 127.929 37.5922C127.782 37.8323 127.678 37.8562 126.9 37.8289C126.519 37.8155 125.967 37.7783 125.673 37.7462C125.379 37.714 124.732 37.6587 124.234 37.6231C123.177 37.5478 122.902 37.4835 122.712 37.2674C122.444 36.9607 122.462 37.43 122.428 29.9752C122.411 26.2698 122.376 19.4985 122.351 14.9277C122.317 8.70394 122.316 6.56277 122.35 6.39975C122.432 6.0076 122.629 5.80405 122.984 5.74678C123.241 5.70534 125.778 5.72971 126.671 5.78223ZM136.666 6.09907C141.089 6.24364 147.63 6.50009 148.7 6.57087C149.162 6.60142 149.28 6.62294 149.455 6.70889C149.696 6.82692 149.837 7.04382 149.909 7.40569C149.936 7.54176 149.955 8.40532 149.962 9.70424L149.972 11.7849L149.882 11.9687C149.828 12.0791 149.726 12.1978 149.628 12.2659C149.468 12.3767 149.453 12.3791 148.987 12.3715C148.724 12.3672 147.744 12.3089 146.809 12.2419C145.874 12.1749 144.806 12.1093 144.436 12.0961L143.764 12.072L143.665 12.1794L143.566 12.2867L143.564 14.1956C143.562 15.2455 143.583 18.307 143.61 20.9988C143.802 40.2617 143.794 39.0549 143.727 39.286C143.649 39.5539 143.505 39.73 143.321 39.7808C143.156 39.8267 142.61 39.7663 141.538 39.5839C141.153 39.5183 140.437 39.4032 139.948 39.3282C138.905 39.1682 138.828 39.1485 138.579 38.9801C138.32 38.8052 138.213 38.5779 138.168 38.108C138.149 37.9071 138.113 35.1569 138.09 31.9964C138.066 28.8358 138.03 24.4488 138.01 22.2472C137.99 20.0459 137.963 16.9071 137.95 15.2723C137.937 13.6118 137.909 12.213 137.888 12.1028C137.842 11.8709 137.729 11.7343 137.559 11.7069C137.358 11.6744 136.221 11.6109 134.689 11.5467C132.692 11.463 132.141 11.4217 131.988 11.3442C131.807 11.2527 131.688 11.1345 131.593 10.9526C131.519 10.8103 131.507 10.6926 131.477 9.80332C131.433 8.51573 131.457 6.68243 131.521 6.48352C131.58 6.29948 131.799 6.07394 131.97 6.02019C132.127 5.97102 133.407 5.99253 136.666 6.09907ZM113.651 15.5124C115.489 15.8374 116.777 17.0567 117.251 18.9183C117.471 19.785 117.5 20.1859 117.502 22.3661C117.503 24.0482 117.493 24.4184 117.434 24.8153C117.189 26.4808 116.56 27.5373 115.376 28.2681C115.167 28.3973 114.996 28.5149 114.996 28.5294C114.996 28.5438 115.692 30.3018 116.542 32.436C118.156 36.488 118.198 36.6116 118.072 36.8512C117.96 37.0629 117.77 37.0719 115.649 36.9663C114.891 36.9287 114.8 36.9162 114.611 36.8257C114.457 36.7524 114.379 36.6832 114.31 36.5609C114.259 36.4698 113.563 34.6991 112.764 32.626L111.311 28.8567L110.576 28.8367C109.912 28.8184 109.373 28.8448 109.185 28.9048C109.13 28.9221 109.107 28.9915 109.082 29.2133C109.064 29.3709 109.049 31.0512 109.047 32.9474C109.045 36.3218 109.043 36.3983 108.966 36.53C108.922 36.6039 108.838 36.7009 108.779 36.7453C108.675 36.8228 108.615 36.8261 107.235 36.8286C105.64 36.8315 105.665 36.8355 105.517 36.5634C105.45 36.4413 105.447 35.9314 105.459 26.1706C105.468 19.85 105.487 15.8592 105.51 15.7834C105.552 15.6456 105.674 15.5164 105.822 15.4523C105.891 15.4224 107.019 15.4151 109.599 15.4279C112.805 15.4438 113.324 15.4546 113.651 15.5124ZM101.816 15.7911C102.039 15.9574 102.045 15.9938 102.053 17.3529C102.058 18.0869 102.045 18.6638 102.021 18.753C102 18.8365 101.925 18.966 101.856 19.0407L101.729 19.1765L100.859 19.2155C100.381 19.237 99.1532 19.273 98.131 19.295C95.8057 19.3456 95.4824 19.3644 95.3696 19.456C95.2882 19.5219 95.2825 19.5678 95.2582 20.3514C95.2241 21.4514 95.2178 25.1168 95.2497 25.2767C95.2988 25.5232 95.3293 25.5278 96.5767 25.4807C100.138 25.3459 100.533 25.3398 100.693 25.4164C100.976 25.5512 100.978 25.5647 100.978 27.102C100.978 28.9951 101.093 28.8582 99.4556 28.9221C98.8576 28.9454 97.8433 28.9835 97.2016 29.0067C95.7056 29.0607 95.3977 29.0907 95.2967 29.1917C95.2231 29.2654 95.2186 29.3528 95.1964 31.0686C95.1838 32.0584 95.1867 33.0786 95.2029 33.3357L95.2326 33.8031L95.9897 33.7787C96.4062 33.7651 97.2808 33.7277 97.9331 33.6954C98.5856 33.6629 99.7031 33.6258 100.416 33.613L101.713 33.5897L101.83 33.7022C101.895 33.7642 101.965 33.8784 101.986 33.9559C102.035 34.1297 102.036 36.1755 101.989 36.5469C101.924 37.0528 101.838 37.0877 100.563 37.1326C98.4348 37.2073 96.7858 37.2922 93.7417 37.4837C91.7523 37.6089 91.7964 37.6125 91.6639 37.3122C91.5871 37.1382 91.5869 37.0392 91.6389 26.7571L91.6915 16.3775L91.7811 16.2177C91.9582 15.9019 91.8475 15.918 94.3744 15.8391C97.6122 15.7381 99.4442 15.6986 100.649 15.7037C101.653 15.7081 101.709 15.7122 101.816 15.7911ZM84.4884 16.0068C85.8803 16.1642 86.9735 16.9159 87.5893 18.1388C87.8827 18.7214 88.1104 19.6132 88.1831 20.4635C88.2554 21.3127 88.1518 32.8342 88.0663 33.4428C87.8695 34.8411 87.3968 35.9282 86.6201 36.769C86.0249 37.4134 84.9953 37.987 84.0548 38.1982C83.9633 38.2188 83.2495 38.3171 82.4684 38.4168C80.5725 38.6587 78.9511 38.8768 77.6119 39.0699C77.0051 39.1573 76.4075 39.2289 76.2842 39.2289C76.0048 39.2289 75.9064 39.14 75.8488 38.8354C75.8216 38.6916 75.8272 36.6389 75.8666 32.3975C75.8983 28.9727 75.9339 24.8688 75.946 23.2777C75.9852 18.0485 76.007 16.9994 76.0802 16.8022C76.2034 16.4701 76.2548 16.4559 77.7265 16.3452C78.1834 16.3108 79.4378 16.2282 80.5144 16.1616C81.5909 16.0949 82.6942 16.0262 82.966 16.009C83.6993 15.9625 84.0919 15.9619 84.4884 16.0068ZM71.6265 16.8782C71.6859 16.9062 71.766 16.9755 71.8043 17.0321C71.8697 17.1283 71.8735 17.31 71.8634 19.8298C71.8574 21.3119 71.8439 23.0775 71.8333 23.7532C71.8141 24.9922 71.7516 31.0369 71.7026 36.4152L71.6762 39.328L71.5774 39.5241C71.5232 39.6319 71.4343 39.7519 71.3799 39.7907C71.2658 39.872 70.4493 40.0521 69.4231 40.2223C68.5532 40.3667 68.3255 40.3781 68.2205 40.2828C68.0495 40.1278 68.0494 40.1255 68.1143 34.0916C68.1482 30.934 68.1937 26.2727 68.2151 23.7333C68.2661 17.7467 68.2695 17.6011 68.3662 17.3844C68.4079 17.2908 68.4785 17.1819 68.5229 17.1424C68.6279 17.0491 69.0854 16.978 70.1145 16.8952C70.5604 16.8592 70.934 16.8208 70.9448 16.8098C70.9814 16.7729 71.5171 16.8266 71.6265 16.8782ZM153.927 18.0075C156.06 18.2094 160.342 18.7193 160.716 18.8157C162.4 19.2504 163.632 20.4993 164.265 22.4134C164.543 23.2548 164.709 24.191 164.762 25.2196C164.79 25.7795 164.9 35.6234 164.902 37.8616C164.904 39.6129 164.872 40.1325 164.719 40.8832C164.494 41.9896 163.917 42.9893 163.235 43.4531C162.674 43.8341 162.141 43.9676 161.321 43.9326C160.842 43.9122 160.697 43.8836 159.183 43.5138C157.126 43.0108 155.96 42.736 154.529 42.4165C153.904 42.2766 153.326 42.1346 153.245 42.1007C152.954 41.9789 152.825 41.7961 152.784 41.4483C152.761 41.253 152.704 36.6319 152.556 22.8008C152.509 18.4401 152.51 18.3579 152.585 18.2038C152.721 17.9243 152.849 17.9056 153.927 18.0075ZM61.0738 18.2891C62.6081 18.5801 63.695 19.8361 64.0838 21.7677C64.2244 22.4667 64.271 23.0643 64.2557 23.976C64.2433 24.7235 64.2355 24.7974 64.1513 24.9685C64.0359 25.2036 63.9491 25.2587 63.5724 25.3367C62.843 25.4877 61.1276 25.7013 60.9676 25.6608C60.912 25.6469 60.8283 25.5815 60.7815 25.5157C60.7041 25.407 60.6928 25.3179 60.6586 24.5548C60.5959 23.1554 60.4397 22.7442 59.8748 22.4926C59.5046 22.3276 58.3033 22.3901 57.3055 22.6261C56.3854 22.8436 55.9717 23.2945 55.7804 24.2883C55.6897 24.7597 55.6211 26.4295 55.6751 26.851C55.771 27.5986 56.113 27.9906 56.8476 28.195C57.0386 28.2481 57.3055 28.2631 58.212 28.2716C59.6612 28.2847 60.3916 28.3702 61.3076 28.6336C62.1603 28.8786 62.572 29.1006 63.0029 29.5479C63.6016 30.1694 64.075 31.2189 64.2596 32.3332C64.4623 33.5581 64.4517 36.0651 64.2384 37.3465C63.8523 39.665 62.6384 41.4855 60.9206 42.3221C60.3131 42.6181 60.2708 42.6302 57.3678 43.3315C56.1262 43.6314 55.8083 43.6793 55.2065 43.6563C54.3967 43.6254 53.8742 43.4058 53.3149 42.8614C52.6801 42.2434 52.3048 41.3838 52.1012 40.081C52.0189 39.5537 51.9782 37.843 52.0351 37.2927C52.0769 36.8888 52.1298 36.7796 52.3606 36.6223C52.5236 36.511 52.6559 36.4747 53.8225 36.221C54.9335 35.9793 55.1722 35.9473 55.3108 36.0218C55.5064 36.1267 55.5336 36.2489 55.5687 37.1798C55.5881 37.6985 55.6254 38.1483 55.6618 38.3055C55.7338 38.6166 55.8911 38.9214 56.0477 39.0534C56.2262 39.2041 56.5565 39.2825 56.905 39.257C57.2438 39.2323 58.7722 38.9141 59.161 38.7877C59.7316 38.6018 60.1585 38.3024 60.368 37.9409C60.6906 37.3847 60.8584 36.2664 60.7847 35.1643C60.7502 34.6467 60.7329 34.5551 60.6272 34.329C60.4127 33.8695 59.9999 33.5541 59.411 33.3996C59.1327 33.3266 59.0301 33.321 58.3898 33.3438C57.1329 33.3884 55.8832 33.2739 54.9025 33.0242C54.3312 32.879 54.0257 32.7429 53.7122 32.4945C53.0953 32.0058 52.5631 30.9983 52.3064 29.8334C52.1199 28.9877 52.1024 28.7162 52.1026 26.666C52.1026 24.5823 52.1291 24.2085 52.3449 23.2183C52.844 20.9293 54.0418 19.3718 55.7402 18.8027C56.1695 18.6589 56.9072 18.5153 57.4803 18.4638C57.7413 18.4403 58.2395 18.3845 58.5877 18.3395C59.791 18.1841 60.4499 18.1706 61.0738 18.2891ZM109.085 19.1637C109.07 19.2659 109.058 20.6404 109.058 22.2179C109.059 24.6917 109.067 25.099 109.118 25.1766C109.198 25.299 109.482 25.3183 111.18 25.3177C112.691 25.3172 112.932 25.2892 113.263 25.0767C113.592 24.8652 113.77 24.5335 113.85 23.9823C113.919 23.5097 113.881 20.4663 113.802 20.1635C113.629 19.4997 113.226 19.1209 112.584 19.0192C112.439 18.996 111.627 18.9783 110.72 18.9781L109.113 18.9778L109.085 19.1637ZM48.3628 19.6302C48.4304 19.6652 48.5024 19.7552 48.5453 19.858C48.609 20.011 48.6157 20.1595 48.6101 21.3358C48.6032 22.7648 48.5746 25.4512 48.5424 27.6568C48.5311 28.4305 48.4873 32.3719 48.445 36.4152C48.3505 45.4532 48.3656 44.8223 48.2359 45.1063C48.1682 45.2546 48.0895 45.3569 48.0026 45.41C47.8422 45.5079 47.4008 45.655 46.3885 45.9473C45.2965 46.2627 45.1665 46.2452 44.915 45.7482C44.6447 45.2145 42.0687 38.6936 39.4679 31.9594C39.3671 31.6987 39.3602 31.6906 39.3334 31.801C39.3179 31.8647 39.2702 35.3858 39.2278 39.6252C39.1653 45.8418 39.1394 47.3937 39.0942 47.6448C39.0316 47.9933 38.902 48.2283 38.7209 48.3221C38.5153 48.4287 36.8372 49.0113 36.3906 49.1313C35.8958 49.2643 35.8344 49.2509 35.7241 48.986C35.6596 48.8317 35.6492 47.0822 35.6931 43.8458C35.7151 42.2192 35.8101 32.1431 35.8495 27.2606C35.8942 21.7043 35.8922 21.741 36.1643 21.4765C36.2858 21.3585 36.3343 21.345 37.1585 21.199C37.6351 21.1146 38.2235 21.0249 38.4664 20.9996C38.8507 20.9595 38.9232 20.9616 39.0278 21.0158C39.2884 21.151 39.276 21.1224 40.1414 23.555C40.5972 24.8366 41.3986 27.0497 42.3083 29.5393C42.6982 30.6064 44.2071 34.6612 44.465 35.3349C44.584 35.6454 44.7334 35.99 44.797 36.1003L44.9129 36.3014L44.9381 35.5954C44.9518 35.2072 44.9818 33.1239 45.0047 30.9659C45.1098 20.9945 45.1165 20.5956 45.1814 20.3785C45.2891 20.0188 45.3962 19.9593 46.1552 19.8376C46.5118 19.7803 47.0261 19.7064 47.2979 19.6735C47.5699 19.6405 47.8456 19.6068 47.911 19.5987C48.1621 19.5678 48.2548 19.5741 48.3628 19.6302ZM81.8786 19.7705C80.6701 19.8661 79.8511 19.9369 79.7702 19.953C79.569 19.9933 79.573 19.9208 79.5272 24.4699C79.4669 30.5029 79.4578 34.9761 79.506 35.0211C79.5299 35.0435 79.6631 35.0447 79.8421 35.0243C80.0053 35.0059 80.5658 34.945 81.0877 34.8892C82.3102 34.7584 83.2761 34.6083 83.5461 34.5069C83.8229 34.4032 84.1118 34.1149 84.2647 33.7899C84.5127 33.2623 84.506 33.3765 84.5509 28.9051C84.5734 26.6601 84.5858 23.9315 84.5786 22.8418C84.5658 20.9387 84.562 20.8514 84.4817 20.6388C84.3579 20.3103 84.2945 20.2027 84.1264 20.0341C83.8526 19.7597 83.8201 19.7512 83.0056 19.7449C82.6033 19.7418 82.096 19.7534 81.8786 19.7705ZM173.184 20.226C173.402 20.2563 173.873 20.3344 174.232 20.3992C174.591 20.4641 175.134 20.5472 175.438 20.5839C175.743 20.6205 176.125 20.6845 176.288 20.726C177.272 20.9763 178.169 21.5188 178.737 22.2075C179.715 23.3922 180.263 24.8776 180.502 26.9851C180.569 27.5836 180.603 29.6663 180.679 38.0401C180.727 43.2701 180.716 43.9279 180.574 44.8366C180.324 46.4351 179.77 47.5297 178.963 48.0202C178.576 48.2551 178.223 48.3548 177.707 48.375C177.276 48.3918 177.209 48.3837 176.66 48.2459C175.765 48.0213 172.781 47.0304 172.302 46.7986C170.989 46.1627 170.091 45.2465 169.408 43.8458C168.864 42.7306 168.562 41.4449 168.462 39.8234C168.414 39.0484 168.324 30.947 168.322 27.2803C168.321 24.9989 168.328 24.6509 168.391 24.2361C168.6 22.8602 169.007 21.8669 169.642 21.1882C170.519 20.2502 171.482 19.9886 173.184 20.226ZM185.242 22.1683C186.368 22.3444 187.006 22.4907 187.178 22.6134C187.488 22.8331 187.456 22.7428 189.178 28.3901C190.177 31.6671 191.668 36.6868 192.357 39.0903C192.902 40.9932 193.399 42.6396 193.439 42.6761C193.459 42.6956 193.444 38.5797 193.385 28.68C193.365 25.2431 193.37 24.2959 193.408 24.155C193.478 23.9071 193.61 23.7917 193.819 23.7975C194.22 23.8083 196.31 24.2439 196.497 24.3555C196.69 24.469 196.81 24.7693 196.85 25.2254C196.87 25.4402 196.895 28.3267 196.907 31.6396C196.922 34.9528 196.949 40.401 196.969 43.7468C197.028 53.4332 197.028 55.1173 196.976 55.3068C196.929 55.4721 196.774 55.636 196.664 55.636C196.591 55.636 195.611 55.2418 194.846 54.904C194.317 54.6695 194.222 54.6135 194.044 54.4234C193.79 54.1542 193.66 53.872 193.428 53.074C191.52 46.5086 190.154 41.9245 189.115 38.5949C188.483 36.5699 187.79 34.4207 187.749 34.3544C187.708 34.289 187.726 38.5629 187.801 46.4252C187.834 49.9271 187.834 51.2504 187.801 51.4351C187.749 51.7355 187.643 51.871 187.457 51.871C187.346 51.871 186.008 51.3946 185.108 51.0338C184.698 50.8692 184.505 50.6929 184.412 50.397C184.325 50.1197 184.325 50.0904 184.257 41.6266C184.225 37.725 184.189 33.6143 184.176 32.4918C184.104 25.9459 184.084 22.7673 184.118 22.5617C184.172 22.2261 184.297 22.0792 184.531 22.0714C184.572 22.0702 184.892 22.1137 185.242 22.1683ZM156.174 22.5731C156.136 22.8862 156.134 22.5346 156.217 31.184C156.253 34.8785 156.297 38.0697 156.315 38.2757C156.344 38.6 156.362 38.6609 156.444 38.7326C156.54 38.8151 156.756 38.8684 159.028 39.3723C160.05 39.5987 160.392 39.6178 160.69 39.4648C161.056 39.2766 161.249 38.8265 161.297 38.0484C161.343 37.2998 161.204 25.2422 161.143 24.7044C161.04 23.7848 160.732 23.2309 160.176 22.9603C159.865 22.8094 159.609 22.7612 157.98 22.5468C157.143 22.4366 156.401 22.3368 156.332 22.3254L156.207 22.3043L156.174 22.5731ZM29.3569 22.7402C30.7183 23.0905 31.6602 24.3611 32.0483 26.371C32.2474 27.4013 32.252 27.5059 32.2468 30.8272C32.2398 35.3558 32.1572 43.5879 32.1116 44.3017C31.9858 46.277 31.6188 47.7736 30.9265 49.1345C30.2371 50.4897 29.351 51.427 28.159 52.062C27.7774 52.2652 24.7543 53.4921 24.003 53.7485C23.2965 53.9898 22.6427 54.0175 22.0835 53.8298C21.0073 53.4686 20.2621 52.0884 19.994 49.9593C19.8817 49.0668 19.8671 47.9879 19.8979 42.7758C19.9681 30.866 19.9683 30.8572 20.1155 29.6979C20.4313 27.2084 21.3176 25.2514 22.5864 24.2417C22.9945 23.9169 23.4587 23.6488 23.8721 23.4988C24.1805 23.387 24.966 23.2226 27.0913 22.8248C27.5589 22.7374 28.0037 22.6579 28.0798 22.6483C28.363 22.6129 29.0554 22.6627 29.3569 22.7402ZM172.781 24.7237C172.52 24.7629 172.323 24.8852 172.184 25.0943C172.028 25.3275 171.991 25.4279 171.911 25.8223C171.849 26.1332 171.843 26.3918 171.852 28.2314C171.874 32.5352 171.979 40.4095 172.018 40.715C172.169 41.8947 172.577 42.467 173.5 42.7933C174.271 43.0659 175.755 43.4787 176.036 43.4988C176.495 43.5313 176.729 43.4141 176.906 43.0632C177.207 42.4688 177.212 42.3592 177.162 37.6535C177.139 35.4357 177.11 32.4887 177.097 31.1047C177.072 28.3736 177.031 27.1972 176.944 26.7652C176.783 25.9602 176.423 25.4646 175.823 25.22C175.675 25.1598 175.161 25.0453 174.501 24.9259C173.281 24.7048 173.071 24.6802 172.781 24.7237ZM203.515 25.9105C205.659 26.3898 208.411 27.0228 209.821 27.3614C210.397 27.4996 210.443 27.5177 210.577 27.6578C210.681 27.7659 210.74 27.8821 210.794 28.0788C210.863 28.3301 210.868 28.516 210.868 30.5698V32.789L210.775 32.9816C210.629 33.2797 210.528 33.3048 210.038 33.1653C207.639 32.4826 204.406 31.6134 204.363 31.6398C204.248 31.7123 204.237 32.1204 204.242 36.3359C204.246 38.6791 204.259 40.6586 204.273 40.7349C204.304 40.9231 204.388 41.079 204.494 41.1488C204.583 41.2076 205.133 41.4051 207.191 42.1167C209.556 42.9344 209.572 42.9427 209.75 43.3834L209.84 43.6081V45.8913V48.1743L209.725 48.4177C209.66 48.5515 209.596 48.661 209.578 48.661C209.525 48.661 208.651 48.3268 207.191 47.7489C205.132 46.9325 204.397 46.6663 204.361 46.7231C204.291 46.8369 204.266 48.0054 204.277 50.6425C204.284 52.3863 204.304 53.5454 204.327 53.6563C204.35 53.7555 204.408 53.8841 204.455 53.9423C204.516 54.0171 204.932 54.2223 205.866 54.6398C207.353 55.3034 209.792 56.4125 210.125 56.5758C210.429 56.7249 210.672 56.9516 210.748 57.1525C210.78 57.2448 210.827 57.4713 210.848 57.656C210.904 58.1271 210.901 61.755 210.845 62.0244C210.793 62.2733 210.668 62.5317 210.604 62.5317C210.577 62.5317 209.383 61.9501 207.949 61.2396C205.119 59.8378 203.515 59.0588 202.189 58.4415C200.887 57.8359 200.884 57.8292 200.842 56.4286C200.826 55.9164 200.803 51.4936 200.788 46.6002C200.774 41.7068 200.756 37.5427 200.747 37.3465C200.738 37.1503 200.725 34.5109 200.718 31.4812C200.707 26.2716 200.711 25.96 200.777 25.7419C200.837 25.551 200.871 25.502 200.975 25.4561C201.046 25.4258 201.128 25.4003 201.161 25.3994C201.195 25.3987 202.253 25.6285 203.515 25.9105ZM14.1182 26.0541C15.217 26.3088 16.1505 27.3594 16.627 28.8773C17.0351 30.1774 17.172 31.5023 17.1623 34.0572C17.1564 35.6062 17.1288 36.0115 17.0111 36.2781C16.8807 36.5735 16.7771 36.6338 15.9203 36.914C15.0486 37.1989 14.1578 37.4452 13.9987 37.4454C13.8775 37.4456 13.7937 37.3619 13.6993 37.1469C13.6382 37.0078 13.6274 36.7751 13.6047 35.1074C13.5766 33.0408 13.5468 32.7279 13.3351 32.2738C13.1894 31.9614 13.0519 31.8039 12.8312 31.6969C12.5433 31.5573 12.2166 31.6096 10.6017 32.055C9.81643 32.2716 9.61151 32.369 9.31154 32.6685C8.79088 33.1886 8.60384 33.8583 8.54755 35.4046C8.53007 35.8841 8.51846 40.1732 8.5217 44.9358C8.52723 53.1172 8.53151 53.6113 8.59856 53.8923C8.73005 54.4427 8.91527 54.7607 9.167 54.8682C9.46267 54.9945 9.68791 54.9381 10.7852 54.4635C12.0728 53.9064 12.3472 53.7629 12.6261 53.5006C13.366 52.8049 13.5666 51.8896 13.5683 49.2037C13.5687 48.4802 13.5865 47.7633 13.608 47.6108C13.6518 47.2978 13.8141 46.942 13.9629 46.8322C14.0822 46.7442 15.5115 46.1912 16.2002 45.9666C16.7722 45.7802 16.8507 45.7899 16.988 46.0651C17.0639 46.2172 17.067 46.3009 17.0652 48.1259C17.0629 50.4756 16.9942 51.4168 16.727 52.7615C16.4406 54.2025 15.983 55.4385 15.3401 56.5079C14.9809 57.1053 14.6752 57.4995 14.2011 57.9768C13.753 58.4279 13.4005 58.7067 12.9542 58.9625C12.6235 59.1522 9.79583 60.5263 9.27547 60.7502C7.1516 61.6641 5.81306 60.5654 5.26613 57.4589C5.03809 56.1635 5.0494 56.7532 5.04169 45.7679C5.03777 40.2207 5.04976 35.4323 5.06833 35.1271C5.27373 31.7524 6.08413 29.3338 7.47823 27.9352C8.08918 27.322 8.62697 27.0143 9.51428 26.7701C10.0643 26.6185 12.6128 26.0444 12.9743 25.9905C13.2569 25.9484 13.7899 25.9781 14.1182 26.0541ZM26.4388 27.8752C25.0285 28.176 24.586 28.3234 24.2881 28.5917C23.8167 29.0166 23.6185 29.5627 23.5345 30.6695C23.4979 31.1518 23.4252 39.1432 23.4068 44.7376C23.3991 47.0277 23.4155 47.3348 23.5714 47.8365C23.7294 48.3458 24.0163 48.573 24.4444 48.5282C24.8125 48.4898 26.7588 47.8065 27.2945 47.5277C27.99 47.1659 28.4078 46.4506 28.5541 45.3717C28.6094 44.964 28.6711 39.3799 28.683 33.7203C28.6922 29.3254 28.6882 29.0078 28.6225 28.7691C28.4576 28.1706 28.2159 27.8282 27.8948 27.739C27.6325 27.666 27.2536 27.7014 26.4388 27.8752ZM104.497 46.9332C103.897 47.0175 103.413 47.2188 102.966 47.5705C102.522 47.9208 102.178 48.4879 101.996 49.1736L101.895 49.5526L101.856 53.3374C101.808 58.0531 101.822 58.2756 102.23 59.1213C102.532 59.7493 103.144 60.2528 103.865 60.4664C104.3 60.5955 104.73 60.6295 105.92 60.6288C107.246 60.628 108.075 60.5771 108.497 60.4707C109.314 60.264 109.959 59.7542 110.306 59.0402C110.406 58.8339 110.528 58.5141 110.577 58.3295L110.666 57.994V53.8328C110.666 50.4203 110.656 49.6216 110.611 49.3941C110.36 48.1393 109.683 47.3789 108.489 47.0105L108.135 46.9012L106.494 46.8922C105.345 46.886 104.747 46.8983 104.497 46.9332ZM113.063 46.9108C112.891 46.9319 112.833 46.9588 112.766 47.049L112.683 47.1608L112.697 53.7663C112.71 59.2149 112.721 60.3901 112.766 60.4765C112.854 60.6503 113.004 60.6763 114.126 60.7126C114.702 60.7312 115.672 60.7735 116.281 60.8062C117.386 60.8658 118.603 60.9243 119.55 60.9634C119.998 60.9818 120.053 60.9769 120.078 60.9157C120.093 60.8781 120.115 60.5229 120.127 60.1265C120.144 59.5265 120.136 59.3486 120.077 59.066C120.038 58.8792 119.983 58.7074 119.955 58.6843C119.879 58.6211 119.298 58.5766 117.673 58.5094C116.371 58.4558 115.319 58.3851 115.279 58.3492C115.272 58.3423 115.256 55.8521 115.244 52.8152C115.229 48.9141 115.21 47.2531 115.179 47.1556C115.109 46.9357 115.02 46.9147 114.097 46.8988C113.645 46.8911 113.18 46.8963 113.063 46.9108ZM97.8107 46.9512C97.5294 46.9809 97.4549 47.0313 97.4005 47.2287C97.3755 47.3189 97.3586 48.5093 97.3553 50.4048C97.3523 52.0721 97.3388 53.9073 97.3253 54.4827L97.3004 55.5289L96.4933 53.908C96.0493 53.0166 95.3131 51.5204 94.8573 50.5831C93.035 46.8362 93.2279 47.2065 93.0521 47.1167C92.9079 47.043 92.8235 47.0363 92.0527 47.0383C91.145 47.0409 90.9925 47.0661 90.8671 47.236C90.7952 47.333 90.7909 47.5798 90.7479 54.2162C90.6997 61.6441 90.6925 61.3153 90.9056 61.3688C91.1655 61.4342 92.8748 61.2665 93.0415 61.1592C93.0913 61.127 93.1527 61.0526 93.1777 60.9939C93.2105 60.9169 93.2296 59.7336 93.2461 56.7579C93.2587 54.4868 93.2792 52.6184 93.2918 52.6058C93.3044 52.5931 94.2115 54.3707 95.3077 56.5556C96.8717 59.6734 97.3352 60.5646 97.4619 60.6976L97.623 60.8672H98.2141C98.7433 60.8672 99.2758 60.8271 99.5848 60.7641C99.7389 60.7326 99.7974 60.5888 99.8253 60.1737C99.8384 59.9775 99.8528 56.9814 99.8572 53.5158C99.8656 46.8824 99.8698 47.0511 99.6975 46.9713C99.616 46.9335 98.1297 46.9178 97.8107 46.9512ZM123.747 47.077C122.962 47.1563 122.495 47.3671 121.992 47.8679C121.7 48.1586 121.623 48.2643 121.448 48.6218C121.162 49.2043 121.123 49.3857 121.084 50.2859C121.041 51.3045 121.078 57.604 121.13 58.11C121.27 59.4556 121.835 60.3888 122.823 60.9025C123.396 61.2007 123.989 61.3458 124.941 61.4206C125.246 61.4445 125.726 61.4927 126.009 61.5277C126.767 61.6217 127.628 61.613 128.018 61.5075C128.94 61.2582 129.529 60.61 129.805 59.5396C129.946 58.9949 129.954 58.62 129.912 54.3678C129.874 50.4678 129.867 50.2044 129.793 49.85C129.439 48.1673 128.462 47.2669 126.829 47.1185C126.243 47.0654 124.142 47.0371 123.747 47.077ZM86.8651 47.1577C86.2429 47.198 86.1527 47.2336 86.0951 47.462C86.0746 47.5438 86.047 48.8146 86.0339 50.2859C86.0207 51.7572 85.9991 53.0614 85.9862 53.1842L85.9622 53.4077L85.5418 53.4361C85.3105 53.4516 84.4805 53.514 83.6977 53.5745C82.9147 53.635 82.2652 53.6764 82.2542 53.6661C82.2434 53.656 82.2344 52.2804 82.2344 50.6095C82.2344 47.4419 82.2344 47.4392 82.0694 47.3758C81.8395 47.2874 80.1266 47.3368 79.9045 47.4383C79.6882 47.5369 79.7062 46.856 79.6144 58.429C79.5983 60.4555 79.5942 62.2341 79.6052 62.3814C79.6203 62.5826 79.646 62.6697 79.7087 62.7326C79.7917 62.8157 79.7936 62.8157 80.341 62.7517C81.0587 62.6677 81.8861 62.5118 81.9661 62.4455C82.136 62.3042 82.1412 62.2332 82.1596 59.7809C82.1693 58.493 82.1875 57.1864 82.1999 56.8779L82.2226 56.3164L82.5647 56.2548C83.0759 56.1625 83.4701 56.1204 84.6466 56.0327C85.2338 55.989 85.7722 55.9435 85.8429 55.9316L85.9714 55.9097L85.972 58.7947C85.9723 61.0607 85.9833 61.7008 86.0231 61.7787C86.0729 61.8759 86.0818 61.8777 86.515 61.8723C86.9422 61.867 88.1116 61.7243 88.2965 61.6547C88.3463 61.636 88.4167 61.5536 88.4525 61.4717C88.5114 61.3377 88.5206 60.9014 88.5452 57.1023C88.6095 47.1803 88.6102 47.2446 88.443 47.1803C88.3334 47.1382 87.3779 47.1245 86.8651 47.1577ZM134.07 47.4089C133.492 47.5198 133.08 47.7191 132.694 48.0731C132.272 48.4607 131.991 48.9842 131.794 49.7477C131.72 50.0348 131.71 50.2109 131.696 51.455C131.687 52.2179 131.696 54.2688 131.717 56.0125C131.753 58.9627 131.761 59.2084 131.835 59.5506C132.131 60.9144 132.773 61.7978 133.826 62.2925C134.388 62.5564 134.682 62.6197 137.081 62.9925C137.662 63.0829 138.417 63.0502 138.769 62.9192C139.121 62.788 139.392 62.6086 139.628 62.3494C139.884 62.0686 140.035 61.7986 140.184 61.3536C140.419 60.6515 140.432 60.4429 140.414 57.7263C140.398 55.3357 140.396 55.2761 140.317 55.1701C140.175 54.9789 140.019 54.9181 139.562 54.8758C139.329 54.8541 138.746 54.7921 138.267 54.7379C137.789 54.6837 137.119 54.6294 136.779 54.6171L136.16 54.5945L136.086 54.7289C136.021 54.8492 136.014 54.9621 136.015 55.8143C136.018 57.1803 135.998 57.1554 137.186 57.2833C137.52 57.3192 137.796 57.3512 137.799 57.3543C137.802 57.3573 137.825 57.6105 137.848 57.917C137.933 59.001 137.887 59.586 137.685 59.9928C137.603 60.1567 137.574 60.1793 137.358 60.2458C137.049 60.3406 136.581 60.3191 135.776 60.1733C134.9 60.0145 134.901 60.0147 134.67 59.7836C134.515 59.6283 134.444 59.5155 134.377 59.3211C134.289 59.0648 134.288 59.053 134.25 55.0414C134.209 50.5948 134.207 50.6304 134.449 50.2956C134.651 50.0167 134.76 49.9882 135.618 49.9916C136.846 49.9965 137.319 50.1157 137.565 50.4819C137.728 50.7242 137.777 50.9798 137.81 51.759C137.845 52.5868 137.886 52.7288 138.11 52.7893C138.27 52.8323 139.2 52.931 139.715 52.9593C140.223 52.9873 140.296 52.951 140.346 52.6414C140.428 52.1435 140.363 50.9645 140.218 50.2861C140.031 49.4167 139.73 48.8281 139.199 48.3004C138.929 48.0307 138.787 47.9252 138.523 47.7947C137.87 47.4735 137.409 47.4078 135.579 47.3758C134.632 47.3594 134.288 47.3669 134.07 47.4089ZM73.5152 47.6331C71.5912 47.7153 71.0478 47.8804 70.3319 48.6003C69.907 49.0278 69.6897 49.3895 69.4769 50.0239C69.1596 50.9701 69.136 51.4492 69.1186 57.3004C69.1069 61.2197 69.1106 61.5062 69.1789 61.8777C69.3635 62.8851 69.7307 63.5385 70.3303 63.9273C70.9216 64.3105 71.548 64.3491 72.8825 64.0843C73.3284 63.9958 73.8533 63.8948 74.0489 63.8597C75.7274 63.5598 76.6755 62.928 77.2911 61.6994C77.6993 60.8846 77.8451 60.1361 77.843 58.8659C77.8414 57.8556 77.8246 57.7313 77.6783 57.6352C77.5814 57.5716 77.5287 57.57 77.0171 57.6148C76.4192 57.6672 76.1764 57.7031 75.7607 57.8007L75.4951 57.863L75.4083 58.087C75.3327 58.2823 75.3178 58.4227 75.2927 59.1829C75.2767 59.6624 75.2465 60.1088 75.2252 60.1748C75.0964 60.5749 74.8521 60.8378 74.4728 60.9839C74.2775 61.0591 73.3043 61.2425 72.6572 61.3259C72.0281 61.4071 71.7381 61.1483 71.6564 60.4333C71.6087 60.0143 71.6845 51.7997 71.739 51.4945C71.8148 51.0696 72.0007 50.7527 72.2498 50.6239C72.4466 50.5224 72.9337 50.4431 73.6295 50.3995C74.4296 50.3495 74.6921 50.3692 74.9171 50.4956C75.2571 50.6868 75.3347 50.9807 75.3678 52.2016C75.3932 53.1322 75.3948 53.1474 75.4868 53.222C75.6032 53.3165 75.8275 53.3194 76.7095 53.2381C77.7199 53.1449 77.7897 53.1169 77.8624 52.7767C77.9258 52.4806 77.9146 51.0405 77.8446 50.5063C77.6461 48.988 76.9131 48.0386 75.6704 47.6901C75.3716 47.6065 74.6095 47.5863 73.5152 47.6331ZM142.678 47.7228C142.516 47.7655 142.498 47.7834 142.451 47.9443C142.411 48.0847 142.408 48.925 142.438 52.1848C142.458 54.4209 142.486 57.8553 142.499 59.8169C142.513 61.7787 142.54 63.4807 142.561 63.5992C142.616 63.9239 142.684 63.9737 143.264 64.1132C143.924 64.2718 144.666 64.4021 144.824 64.3867C145.066 64.3632 145.07 64.3278 145.059 62.5514C144.999 53.0422 144.967 48.7766 144.954 48.4589C144.939 48.0898 144.877 47.8739 144.767 47.8054C144.7 47.7639 143.623 47.6741 143.21 47.6753C143.015 47.6761 142.775 47.6974 142.678 47.7228ZM147.388 47.9814C147.342 48.0271 147.294 48.114 147.281 48.1745C147.268 48.235 147.251 48.3037 147.244 48.3272C147.237 48.3505 147.246 50.2588 147.264 52.5675C147.283 54.8763 147.309 58.4953 147.324 60.6096C147.339 62.8225 147.366 64.5294 147.388 64.6321C147.437 64.8608 147.507 64.9655 147.646 65.021C147.707 65.0454 148.648 65.2801 149.735 65.5426C150.822 65.8049 152.344 66.1783 153.116 66.3724C153.888 66.5662 154.524 66.7214 154.528 66.7171C154.533 66.7129 154.566 66.6031 154.601 66.4732C154.655 66.2779 154.666 66.052 154.661 65.167C154.658 64.5786 154.639 64.0274 154.62 63.9423C154.6 63.857 154.543 63.7461 154.493 63.6955C154.375 63.5781 153.827 63.4315 152.424 63.1432C151.293 62.9107 150.766 62.7866 150.245 62.6292L149.924 62.5326L149.896 62.0894C149.867 61.634 149.859 58.2525 149.887 58.2249C149.914 58.1976 153.145 58.7186 153.617 58.8265C153.691 58.8433 153.716 58.8137 153.795 58.6182C153.885 58.3952 153.887 58.3653 153.874 57.2647C153.861 56.0264 153.837 55.8819 153.63 55.7748C153.499 55.7068 153.145 55.6499 151.397 55.4163C150.659 55.3177 150.016 55.2272 149.969 55.2154C149.898 55.1977 149.88 55.1556 149.86 54.9692C149.817 54.575 149.782 52.0287 149.812 51.5144L149.841 51.019L150.381 51.0477C150.678 51.0635 151.473 51.1303 152.147 51.1959C152.821 51.2616 153.607 51.327 153.892 51.3415L154.411 51.3675L154.485 51.2544C154.554 51.1496 154.559 51.0461 154.558 49.8715C154.557 48.9857 154.543 48.5691 154.51 48.4945C154.42 48.2869 154.335 48.2713 152.812 48.1848C147.246 47.8686 147.491 47.8779 147.388 47.9814ZM66.7138 47.9772C66.5941 47.9853 65.1704 48.0685 63.5501 48.162C60.3272 48.3479 60.4006 48.3382 60.3081 48.5904C60.2384 48.7804 60.2327 49.225 60.1864 58.2713C60.1436 66.6229 60.1461 66.8535 60.2802 66.9389C60.3754 66.9996 60.581 66.966 61.3163 66.7696C62.0937 66.5621 65.0948 65.8069 66.4245 65.4842C67.2964 65.2727 67.3531 65.2387 67.4264 64.8859C67.4773 64.64 67.4629 62.6354 67.4095 62.5207C67.3915 62.4818 67.3474 62.4345 67.3115 62.4153C67.2077 62.3595 66.4763 62.4974 63.833 63.0704C62.9672 63.2581 62.7851 63.2868 62.7561 63.241C62.6636 63.0944 62.712 58.8406 62.8072 58.7452C62.8166 58.736 63.4279 58.6297 64.1659 58.5092C65.5704 58.2802 66.2501 58.1553 66.4675 58.0872C66.5588 58.0587 66.6229 57.998 66.685 57.8816C66.7701 57.7219 66.773 57.6793 66.773 56.5801C66.773 55.4877 66.7699 55.4393 66.69 55.3318C66.5541 55.1484 66.4531 55.1531 64.4004 55.4375C63.7915 55.5216 63.1714 55.6031 63.0223 55.6183L62.7514 55.6461L62.7653 53.4995C62.7764 51.7677 62.7894 51.3467 62.8317 51.3204C62.8969 51.2801 63.797 51.1863 65.3495 51.0582C66.7528 50.9424 67.262 50.8859 67.3558 50.8356C67.3936 50.8154 67.4548 50.7413 67.4915 50.6711C67.5495 50.5603 67.5587 50.3939 67.561 49.414C67.5626 48.7927 67.5499 48.2343 67.5328 48.1729C67.5119 48.0979 67.4573 48.0426 67.3661 48.0045C67.234 47.949 67.1657 47.9463 66.7138 47.9772ZM57.5199 48.5275C53.7984 48.7716 51.1259 48.9801 51.0214 49.0343C50.8072 49.1452 50.7976 49.2205 50.7976 50.7813C50.7976 52.0932 50.8034 52.2186 50.8705 52.342L50.9434 52.4762L51.3846 52.4549C51.6272 52.4434 52.2218 52.3845 52.7058 52.3245C53.1898 52.2643 53.5991 52.2284 53.6153 52.2446C53.6314 52.2609 53.6378 55.9428 53.6296 60.4266C53.6159 67.8807 53.62 68.5898 53.6787 68.7033C53.7138 68.7714 53.7768 68.8382 53.8187 68.8514C53.9105 68.8807 54.5328 68.7267 55.2065 68.5081C55.8803 68.2895 55.9717 68.2386 56.0615 68.0321C56.1308 67.8724 56.1361 67.7009 56.1463 65.2662C56.1524 63.8384 56.1715 60.2828 56.1888 57.3646C56.2189 52.3315 56.2241 52.0562 56.2912 52.0069C56.3303 51.9783 56.4534 51.9353 56.5648 51.9115C56.7569 51.8701 56.9272 51.8517 58.0153 51.7538C58.5103 51.7093 58.9226 51.6181 58.9721 51.5424C58.9894 51.516 59.0344 51.3964 59.072 51.2766C59.1318 51.0862 59.1388 50.9131 59.1277 49.9108C59.114 48.7024 59.0989 48.5963 58.9259 48.5037C58.8325 48.4534 58.5846 48.4578 57.5199 48.5275ZM158.514 48.6433C158.17 48.7187 157.669 48.9544 157.403 49.1665C157.139 49.3761 156.835 49.7833 156.615 50.2203C156.204 51.034 156.043 51.9791 156.043 53.5752C156.043 55.8996 156.353 57.2849 157.122 58.4032C157.624 59.1331 158.709 59.8308 160.482 60.5645C161.191 60.8575 161.535 61.0797 161.795 61.4121C162.224 61.9602 162.33 62.3326 162.329 63.3009C162.329 64.7675 162.108 65.2662 161.459 65.2662C161.123 65.2662 159.985 64.9814 159.609 64.8031C158.995 64.5119 158.692 63.947 158.692 63.0934C158.692 62.5897 158.622 62.1028 158.522 61.8981C158.442 61.7353 158.413 61.7131 158.178 61.6356C157.906 61.546 156.319 61.2103 156.293 61.2369C156.284 61.2454 156.242 61.3525 156.199 61.4748C156.136 61.6553 156.121 61.8007 156.122 62.2433C156.123 64.1047 156.519 65.5404 157.329 66.6224C158 67.5183 158.64 67.8943 160.319 68.3795C160.739 68.5011 161.251 68.6538 161.456 68.7186C162.991 69.2055 163.997 68.6725 164.517 67.097C164.802 66.2356 164.878 65.4266 164.85 63.562C164.823 61.8186 164.73 61.1017 164.405 60.1238C163.917 58.6588 163.213 57.8851 161.677 57.1237C161.394 56.9836 160.873 56.7706 160.519 56.6502C160.165 56.5299 159.748 56.3646 159.593 56.2828C159.083 56.0143 158.786 55.6367 158.647 55.0812C158.573 54.7847 158.588 53.4538 158.671 52.9729C158.815 52.1344 159.11 51.9124 160.011 51.9641C161.109 52.0267 161.642 52.2419 161.873 52.7162C162.017 53.0101 162.084 53.4063 162.126 54.1974C162.178 55.1872 162.144 55.1502 163.18 55.3433C163.803 55.4595 164.344 55.4857 164.49 55.4066C164.637 55.3269 164.678 54.9495 164.649 53.973C164.583 51.8091 164.129 50.4445 163.172 49.5296C162.539 48.9255 162.01 48.7548 160.471 48.6587C159.237 48.5817 158.81 48.5785 158.514 48.6433ZM107.345 49.2574C107.801 49.3233 108.027 49.5786 108.114 50.1273C108.17 50.4812 108.169 57.0314 108.113 57.3785C108.065 57.6739 107.91 57.9857 107.756 58.0954C107.556 58.2386 107.275 58.2697 106.178 58.2699C104.971 58.2701 104.869 58.2525 104.662 58.0099C104.386 57.6874 104.393 57.7991 104.407 53.6742C104.421 49.5551 104.405 49.7771 104.701 49.4809C104.858 49.3235 105.025 49.2711 105.547 49.2164C105.933 49.1759 106.939 49.1989 107.345 49.2574ZM126.089 49.5513C126.395 49.5826 126.679 49.6209 126.722 49.6368C126.989 49.7358 127.212 50.0557 127.293 50.4554C127.327 50.6205 127.342 51.7668 127.347 54.5596L127.353 58.4348L127.235 58.67C127.14 58.8581 127.08 58.924 126.938 58.9981C126.767 59.0875 126.737 59.0899 126.108 59.0684C125.472 59.0465 124.732 58.9678 124.364 58.883C124.119 58.8265 123.921 58.6536 123.788 58.3795C123.682 58.1624 123.676 58.119 123.65 57.3798C123.636 56.9547 123.622 55.2062 123.62 53.4943C123.617 50.832 123.625 50.3484 123.677 50.1509C123.737 49.9173 123.832 49.7618 123.974 49.6617C124.208 49.498 125.106 49.4511 126.089 49.5513ZM49.2752 64.7778C48.9163 64.8743 48.4447 65.0102 48.2272 65.0799L47.8318 65.2067L47.7329 65.4049L47.6341 65.6029V68.0402C47.6341 70.1968 47.6415 70.4958 47.6982 70.6362L47.7625 70.7946L47.9759 70.7875C48.1837 70.7807 48.3889 70.7203 49.374 70.3762C49.8956 70.1941 49.9556 70.1554 50.0801 69.9227C50.164 69.7657 50.1649 69.7421 50.1649 67.3665C50.1649 64.982 50.1644 64.9679 50.0782 64.7807C50.0305 64.6772 49.977 64.5947 49.9595 64.5975C49.9419 64.6003 49.6339 64.6814 49.2752 64.7778ZM166.274 64.8949L166.185 65.0879V67.4854C166.185 69.8573 166.186 69.8851 166.27 70.068C166.317 70.1697 166.393 70.2727 166.438 70.2969C166.587 70.3767 167.919 70.843 168.212 70.9174L168.498 70.9904L168.587 70.9014L168.676 70.8121V68.2075C168.676 65.6528 168.675 65.6004 168.595 65.4644C168.496 65.2945 168.324 65.2279 167.253 64.9422C166.839 64.832 166.47 64.7329 166.432 64.722C166.38 64.7068 166.341 64.7489 166.274 64.8949Z" fill="white"/>
</svg>
