<svg width="217" height="48" viewBox="0 0 217 48" fill="none" xmlns="http://www.w3.org/2000/svg">
	<path d="M0.0891113 23.8453C0.0891113 39.5417 11.5458 47.5679 30.3815 47.5679C47.0811 47.5679 57.664 41.5159 60.0266 29.2177H44.9127C43.2622 34.3635 37.5986 37.0821 30.3815 37.0821C21.2549 37.0821 14.8146 32.4864 14.8146 23.8453C14.8146 15.2043 21.2549 10.6086 30.3815 10.6086C37.5986 10.6086 43.2622 13.2948 44.9127 18.473H60.0266C57.664 6.1748 47.0811 0.122803 30.3815 0.122803C11.5458 0.122803 0.0891113 8.11662 0.0891113 23.8453Z" fill="white" />
	<path d="M87.9473 1.1908H73.2218V46.4999H87.9473V1.1908Z" fill="white" />
	<path d="M129.97 1.1908H103.335V46.4999H129.97C148.774 46.4999 160.23 39.1857 160.23 23.9748C160.23 8.73153 148.774 1.1908 129.97 1.1908ZM118.061 36.629V11.0617H129.97C139.065 11.0617 145.505 15.3337 145.505 23.9748C145.505 32.6159 139.065 36.629 129.97 36.629H118.061Z" fill="white" />
	<path d="M216.882 1.1908H169.793V12.0326H186.008V46.4999H200.733V12.0326H216.882V1.1908Z" fill="white" />
</svg>
