<svg width="225" height="40" viewBox="0 0 225 40" fill="none" xmlns="http://www.w3.org/2000/svg">
<g clip-path="url(#clip0_93_5336)">
<path d="M216.766 0.711426H224.459C224.671 1.31284 224.757 36.9847 224.559 38.4118C223.941 38.5755 218.819 38.6217 217.541 38.4651C217.478 37.6822 217.414 36.8779 217.333 35.8674C216.908 36.2161 216.618 36.4368 216.346 36.6751C214.721 38.1022 212.832 38.9704 210.642 39.2979C205.836 40.0132 200.614 37.5435 198.471 33.3691C195.711 27.9885 196.217 22.7395 199.694 17.8392C202.052 14.5154 205.602 13.277 209.719 13.5368C212.159 13.6898 214.352 14.5261 216.245 16.042C216.349 16.1275 216.476 16.1844 216.758 16.3516C216.766 14.9425 216.758 13.6756 216.763 12.4123C216.763 11.1027 216.763 9.7931 216.763 8.48351V0.711426H216.766ZM217.508 26.4226C217.433 22.8783 215.407 20.5545 211.857 20.1702C208.966 19.857 205.881 21.0775 204.983 24.4512C204.744 25.3408 204.689 26.316 204.764 27.234C204.998 30.2412 206.984 32.2695 210.058 32.6788C212.907 33.0559 216.159 32.0703 217.164 28.5151C217.356 27.8355 217.399 27.1201 217.511 26.4226H217.508Z" fill="white"/>
<path d="M109.323 3.06009H133.973V10.0493H117.619C117.392 10.7076 117.325 16.1167 117.519 17.43C118.491 17.5402 119.493 17.4619 120.491 17.4762C121.505 17.4904 122.518 17.4762 123.531 17.4762H132.666C132.774 19.8676 132.692 22.2091 132.722 24.6469C131.664 24.7536 130.661 24.6861 129.663 24.6967C128.65 24.711 127.636 24.6967 126.623 24.6967H117.317C117.31 25.9066 117.303 27.0348 117.299 28.1628C117.299 29.3016 117.299 30.4404 117.299 31.5792V38.3904C116.651 38.5897 110.888 38.6572 109.364 38.4936C109.196 37.8922 109.144 4.2202 109.319 3.05298L109.323 3.06009Z" fill="white"/>
<path d="M162.479 38.515H155.24C155.148 37.6609 155.058 36.853 154.957 35.9314C154.737 36.095 154.592 36.1733 154.488 36.2872C152.212 38.8246 149.246 39.5968 145.886 39.3263C145.238 39.2729 144.582 39.1625 143.956 38.9953C140.734 38.1377 138.622 35.6858 138.398 32.4154C138.212 29.7215 138.097 27.0205 138.041 24.3194C137.981 21.3053 138.026 18.2876 138.03 15.2698C138.03 14.9958 138.063 14.7182 138.085 14.3873H145.894C145.894 14.7325 145.894 15.035 145.894 15.3375C145.894 19.01 145.882 22.6789 145.916 26.3515C145.927 27.3977 146.046 28.451 146.195 29.4902C146.616 32.4509 148.922 33.0595 151.183 32.6894C152.655 32.4475 153.646 31.6219 154.116 30.2411C154.533 29.0098 154.715 27.7501 154.722 26.4617C154.742 23.0774 154.76 19.6897 154.774 16.3054C154.774 15.6826 154.774 15.0599 154.774 14.3446C157.379 14.2556 159.867 14.3232 162.307 14.2983C162.379 14.3695 162.396 14.3909 162.419 14.4122C162.437 14.4336 162.474 14.4549 162.474 14.4763C162.494 22.2733 162.508 30.0667 162.523 37.8637C162.523 38.0594 162.501 38.2516 162.486 38.5184L162.479 38.515Z" fill="white"/>
<path d="M168.473 14.3198H175.671C175.741 15.1917 175.815 16.0458 175.886 16.9033C175.975 16.9533 176.065 17.0065 176.154 17.0565C176.296 16.8429 176.407 16.6009 176.583 16.4158C178.762 14.1526 181.518 13.3056 184.656 13.5547C185.739 13.6401 186.85 13.8607 187.859 14.2415C190.504 15.2308 192.002 17.2059 192.351 19.8499C192.645 22.0741 192.784 24.3267 192.832 26.5722C192.914 30.355 192.874 34.1451 192.881 37.9314C192.881 38.1237 192.847 38.3193 192.821 38.572H185.023C185.023 38.2233 185.023 37.8924 185.023 37.5613C184.99 33.348 184.975 29.1345 184.901 24.9246C184.886 24.0847 184.741 23.22 184.484 22.4157C184.111 21.2485 183.228 20.5225 181.947 20.2521C178.907 19.615 176.583 21.2022 176.304 24.1666C176.184 25.4121 176.147 26.6683 176.139 27.921C176.117 31.1095 176.127 34.2981 176.127 37.4866C176.127 37.7962 176.127 38.1058 176.127 38.4012C175.45 38.5969 170.085 38.6574 168.528 38.5044C168.323 37.9243 168.261 15.455 168.477 14.3269L168.473 14.3198Z" fill="white"/>
<path d="M29.9487 30.5543C31.2934 31.508 32.668 32.4866 34.1097 33.508C33.767 33.878 33.5062 34.1806 33.2231 34.4653C29.6543 38.0524 25.2697 39.7499 20.0991 39.6502C17.1485 39.5933 14.2876 39.1448 11.5868 37.9741C7.28041 36.1058 4.30764 32.9849 2.51579 28.8568C1.77819 27.1594 1.31626 25.3516 0.746292 23.5865C0.679237 23.3765 0.697864 23.1346 0.697864 22.9103C0.694138 21.9994 0.64571 21.0847 0.705314 20.1773C1.02196 15.245 2.6648 10.8216 6.43104 7.30568C9.4485 4.48723 13.1514 2.93566 17.3013 2.36272C20.8553 1.87162 24.3049 2.24884 27.6277 3.6118C29.8368 4.5157 31.5989 5.98541 33.3609 7.60816C33.1896 7.7683 33.0443 7.93556 32.8692 8.06723C31.9975 8.7149 31.0997 9.32343 30.254 9.99957C29.7959 10.3661 29.427 10.4195 28.9056 10.1206C27.8326 9.50492 26.7299 8.93909 25.631 8.37327C24.1783 7.62952 22.6546 7.08505 20.9931 6.92134C16.724 6.50143 13.0173 7.75406 10.2159 10.7931C5.99892 15.3696 4.93722 20.6791 7.02708 26.4761C9.16166 32.4049 14.4962 34.9883 19.5253 35.0987C23.3847 35.1806 26.6927 33.878 29.3116 31.1059C29.4494 30.9565 29.5835 30.8035 29.7288 30.6611C29.766 30.6254 29.8331 30.6148 29.9561 30.5614L29.9487 30.5543Z" fill="white"/>
<path d="M63.3085 26.8603C63.275 34.0595 57.5231 39.4117 49.8305 39.344C41.7913 39.2764 36.6505 33.1733 36.7883 26.4475C36.9299 19.5367 42.7115 14.1595 50.177 14.1915C57.6238 14.2236 63.3458 19.7431 63.3085 26.8603ZM58.4471 26.8211C58.3501 22.0241 55.1353 18.6826 50.326 18.4796C46.3884 18.3124 43.1809 20.5508 42.149 24.1807C41.8249 25.3195 41.7317 26.4724 41.8174 27.6467C42.123 31.8781 45.2224 34.8175 49.6479 35.0666C53.4068 35.2765 56.6999 33.1982 57.8287 29.8139C58.149 28.8496 58.2496 27.8212 58.4471 26.8211Z" fill="white"/>
<path d="M79.8108 15.0315H84.3481V17.8961C84.8324 17.8891 84.9591 17.5546 85.1604 17.3446C87.943 14.4479 91.415 13.5653 95.3228 14.4016C98.7352 15.1312 100.728 17.3624 101.499 20.5759C101.704 21.4264 101.782 22.3232 101.786 23.1986C101.812 28.0633 101.801 32.9279 101.797 37.7962C101.797 38.0168 101.764 38.2375 101.741 38.5115H97.0663C97.0663 38.1947 97.0663 37.8958 97.0663 37.5934C97.0663 33.2411 97.0885 28.8853 97.0364 24.533C97.0252 23.6078 96.8502 22.6612 96.5745 21.7715C96.1014 20.252 94.9651 19.2734 93.4006 18.7751C89.7125 17.6044 86.1288 19.3837 85.0001 22.9282C84.5866 24.22 84.4488 25.5509 84.4413 26.8889C84.4152 30.4439 84.4115 34.0027 84.4041 37.5577C84.4041 37.8638 84.4041 38.1662 84.4041 38.5186H79.8145V15.0315H79.8108Z" fill="white"/>
<path d="M68.3709 38.497V14.9175H72.6513C72.8227 15.5509 72.886 37.1377 72.7183 38.497H68.3672H68.3709Z" fill="white"/>
<path d="M73.9888 6.23462C73.9738 8.15273 72.6215 9.44808 70.6247 9.45519C68.6317 9.46232 67.0597 7.98548 67.0933 6.13854C67.1268 4.31295 68.6803 2.89661 70.6322 2.90729C72.6401 2.9144 74.0036 4.26669 73.9888 6.23462Z" fill="white"/>
</g>
<defs>
<clipPath id="clip0_93_5336">
<rect width="224" height="39" fill="white" transform="translate(0.671387 0.711426)"/>
</clipPath>
</defs>
</svg>
