<svg width="196" height="136" viewBox="0 0 196 136" fill="none" xmlns="http://www.w3.org/2000/svg">
	<path d="M18.9563 125.441C18.9521 125.65 18.867 125.848 18.7196 125.994C18.5721 126.14 18.3741 126.221 18.1683 126.22H3.03379C3.41771 130.011 6.22638 133.475 10.1868 133.475C12.8944 133.475 14.8948 132.43 16.4103 130.237C16.5054 130.072 16.6574 129.95 16.8367 129.893C17.016 129.836 17.2098 129.849 17.3802 129.929C17.4903 129.979 17.5867 130.055 17.6607 130.152C17.7347 130.248 17.7841 130.362 17.8045 130.483C17.8407 130.667 17.8045 130.858 17.7035 131.015C16.188 133.7 13.1571 135.032 10.1666 135.032C5.07462 135.032 1.4375 130.421 1.4375 125.461C1.4375 120.501 5.07462 115.89 10.1666 115.89C15.2586 115.89 18.9563 120.501 18.9563 125.441ZM17.3398 124.682C17.0165 120.891 14.1472 117.427 10.1868 117.427C6.22638 117.427 3.41771 120.891 3.03379 124.682H17.3398Z" fill="#3B3B3B" />
	<path d="M37.3238 116.279C37.5254 116.286 37.7169 116.37 37.8595 116.515C38.0021 116.659 38.0851 116.854 38.0917 117.058C38.0933 117.161 38.0746 117.263 38.0365 117.358C37.9985 117.453 37.942 117.54 37.8704 117.613C37.7988 117.685 37.7135 117.743 37.6196 117.781C37.5257 117.82 37.4251 117.839 37.3238 117.837H33.2624V133.987C33.2592 134.193 33.1773 134.389 33.034 134.534C32.8907 134.68 32.6972 134.763 32.4945 134.766C32.293 134.759 32.1015 134.675 31.9589 134.53C31.8163 134.386 31.7333 134.191 31.7267 133.987V117.837H27.8269C27.7256 117.839 27.625 117.82 27.5311 117.781C27.4372 117.743 27.3519 117.685 27.2803 117.613C27.2087 117.54 27.1522 117.453 27.1142 117.358C27.0762 117.263 27.0574 117.161 27.0591 117.058C27.0622 116.853 27.1441 116.656 27.2874 116.511C27.4307 116.366 27.6242 116.283 27.8269 116.279H31.7267V110.356C31.7215 110.175 31.7794 109.998 31.8902 109.855C32.0011 109.713 32.1578 109.614 32.3329 109.578C32.4435 109.553 32.5581 109.555 32.6681 109.582C32.7781 109.609 32.8806 109.661 32.968 109.734C33.0554 109.807 33.1255 109.899 33.1729 110.003C33.2204 110.107 33.2441 110.221 33.2422 110.336V116.279H37.3238Z" fill="#3B3B3B" />
	<path d="M62.0966 124.088V133.864C62.09 134.068 62.007 134.263 61.8644 134.407C61.7218 134.552 61.5303 134.636 61.3287 134.643C61.2274 134.645 61.1269 134.625 61.033 134.587C60.9391 134.548 60.8538 134.491 60.7821 134.418C60.7105 134.346 60.654 134.259 60.616 134.164C60.578 134.069 60.5592 133.967 60.5609 133.864V124.088C60.5609 120.788 58.7221 117.489 55.085 117.489C50.4174 117.489 48.4169 121.608 48.6998 125.851C48.6998 125.953 48.7604 126.445 48.7604 126.506V133.844C48.7656 134.025 48.7077 134.202 48.5969 134.345C48.4861 134.487 48.3294 134.585 48.1543 134.622C48.0436 134.646 47.929 134.645 47.8191 134.618C47.7091 134.591 47.6066 134.539 47.5192 134.466C47.4317 134.393 47.3617 134.301 47.3142 134.197C47.2667 134.093 47.2431 133.979 47.245 133.864V101.708C47.2481 101.502 47.33 101.306 47.4733 101.16C47.6167 101.015 47.8101 100.932 48.0128 100.929C48.2144 100.935 48.4059 101.02 48.5485 101.164C48.6911 101.309 48.7741 101.503 48.7807 101.708V119.907C50.0739 117.55 52.4178 115.951 55.1254 115.951C59.5506 115.951 62.0966 119.907 62.0966 124.088V124.088Z" fill="#3B3B3B" />
	<path d="M89.2335 125.441C89.2293 125.65 89.1443 125.848 88.9968 125.994C88.8494 126.14 88.6513 126.221 88.4455 126.22H73.311C73.6949 130.011 76.5036 133.475 80.464 133.475C83.1717 133.475 85.1721 132.43 86.6875 130.237C86.7826 130.072 86.9346 129.95 87.1139 129.893C87.2933 129.836 87.487 129.849 87.6574 129.929C87.7676 129.979 87.8639 130.055 87.9379 130.152C88.0119 130.248 88.0613 130.362 88.0818 130.483C88.118 130.667 88.0817 130.858 87.9807 131.015C86.4653 133.7 83.4343 135.032 80.4438 135.032C75.3518 135.032 71.7147 130.421 71.7147 125.461C71.7147 120.501 75.3518 115.89 80.4438 115.89C85.5358 115.89 89.2335 120.501 89.2335 125.441ZM87.617 124.682C87.2937 120.891 84.4244 117.427 80.464 117.427C76.5036 117.427 73.6949 120.891 73.311 124.682H87.617Z" fill="#3B3B3B" />
	<path d="M107.823 116.997C107.834 117.098 107.824 117.201 107.794 117.299C107.764 117.397 107.714 117.487 107.647 117.564C107.581 117.641 107.499 117.703 107.408 117.747C107.316 117.79 107.217 117.814 107.116 117.816C102.671 118.472 100.67 122.161 100.67 126.445V133.782C100.676 133.963 100.618 134.141 100.507 134.283C100.396 134.425 100.239 134.524 100.064 134.561C99.9535 134.585 99.8389 134.583 99.7289 134.556C99.619 134.529 99.5164 134.477 99.429 134.404C99.3416 134.331 99.2716 134.239 99.2241 134.135C99.1766 134.031 99.1529 133.917 99.1549 133.802V117.058C99.1497 116.877 99.2076 116.699 99.3184 116.557C99.4292 116.415 99.5859 116.316 99.761 116.279C99.8717 116.255 99.9863 116.257 100.096 116.284C100.206 116.311 100.309 116.363 100.396 116.436C100.484 116.509 100.554 116.601 100.601 116.705C100.649 116.809 100.672 116.923 100.67 117.038V120.44C101.923 118.288 104.408 116.259 107.015 116.259C107.379 116.279 107.823 116.546 107.823 116.997V116.997Z" fill="#3B3B3B" />
	<path d="M132.697 125.441C132.693 125.65 132.608 125.848 132.46 125.994C132.313 126.14 132.115 126.221 131.909 126.22H116.775C117.159 130.011 119.967 133.475 123.928 133.475C126.635 133.475 128.636 132.43 130.151 130.237C130.246 130.072 130.398 129.95 130.578 129.893C130.757 129.836 130.951 129.849 131.121 129.929C131.231 129.979 131.327 130.055 131.402 130.152C131.476 130.248 131.525 130.362 131.545 130.483C131.582 130.667 131.545 130.858 131.444 131.015C129.929 133.7 126.898 135.032 123.907 135.032C118.815 135.032 115.178 130.421 115.178 125.461C115.178 120.501 118.815 115.89 123.907 115.89C128.999 115.89 132.677 120.501 132.697 125.441V125.441ZM131.06 124.682C130.737 120.891 127.868 117.427 123.907 117.427C119.947 117.427 117.138 120.891 116.754 124.682H131.06Z" fill="#3B3B3B" />
	<path d="M157.126 117.181V133.966C157.12 134.171 157.037 134.365 156.894 134.51C156.752 134.654 156.56 134.739 156.359 134.745C156.257 134.747 156.157 134.728 156.063 134.689C155.969 134.651 155.884 134.594 155.812 134.521C155.74 134.448 155.684 134.362 155.646 134.266C155.608 134.171 155.589 134.069 155.591 133.966V130.769C154.338 133.29 152.115 135.114 149.307 135.114C144.801 135.114 142.315 131.159 142.315 126.978V117.14C142.315 116.934 142.396 116.735 142.54 116.589C142.684 116.443 142.879 116.361 143.083 116.361C143.287 116.361 143.482 116.443 143.626 116.589C143.77 116.735 143.851 116.934 143.851 117.14V126.978C143.851 130.277 145.69 133.577 149.327 133.577C154.419 133.577 155.611 128.74 155.611 123.412V117.14C155.612 117.021 155.64 116.904 155.693 116.798C155.745 116.691 155.822 116.599 155.916 116.527C156.01 116.456 156.118 116.408 156.234 116.386C156.349 116.364 156.468 116.37 156.581 116.402C156.743 116.454 156.884 116.559 156.982 116.699C157.081 116.84 157.131 117.009 157.126 117.181V117.181Z" fill="#3B3B3B" />
	<path d="M195.438 124.027V133.864C195.431 134.069 195.348 134.263 195.205 134.408C195.063 134.552 194.871 134.636 194.67 134.643C194.568 134.645 194.468 134.626 194.374 134.587C194.28 134.549 194.195 134.491 194.123 134.419C194.052 134.346 193.995 134.259 193.957 134.164C193.919 134.069 193.9 133.967 193.902 133.864V124.027C193.902 120.727 192.063 117.489 188.426 117.489C183.88 117.489 182.142 122.428 182.142 126.281V133.864C182.135 134.069 182.052 134.263 181.91 134.408C181.767 134.552 181.576 134.636 181.374 134.643C181.273 134.645 181.172 134.626 181.078 134.587C180.984 134.549 180.899 134.491 180.827 134.419C180.756 134.346 180.699 134.259 180.661 134.164C180.623 134.069 180.605 133.967 180.606 133.864V124.027C180.606 120.727 178.767 117.489 175.13 117.489C170.523 117.489 168.624 121.178 168.786 126.056C168.786 126.158 168.846 126.384 168.786 126.445V133.844C168.791 134.025 168.733 134.202 168.622 134.345C168.511 134.487 168.354 134.586 168.179 134.623C168.069 134.647 167.954 134.645 167.844 134.618C167.734 134.591 167.632 134.539 167.544 134.466C167.457 134.393 167.387 134.301 167.339 134.197C167.292 134.093 167.268 133.979 167.27 133.864V117.058C167.265 116.877 167.323 116.7 167.434 116.557C167.544 116.415 167.701 116.317 167.876 116.28C167.987 116.255 168.102 116.257 168.211 116.284C168.321 116.311 168.424 116.363 168.511 116.436C168.599 116.509 168.669 116.601 168.716 116.705C168.764 116.809 168.787 116.923 168.786 117.038V119.846C170.079 117.489 172.423 115.952 175.13 115.952C178.222 115.952 180.606 117.94 181.576 120.85C182.829 118.001 185.254 115.952 188.406 115.952C192.892 115.952 195.438 119.846 195.438 124.027Z" fill="#3B3B3B" />
	<path d="M18.8568 125.588C18.8532 125.802 18.7653 126.005 18.6123 126.154C18.4593 126.302 18.2536 126.384 18.0403 126.382H3.00252C3.3881 130.102 6.17791 133.504 10.1245 133.504C12.8235 133.504 14.8195 132.483 16.3165 130.329C16.3862 130.215 16.4826 130.121 16.5973 130.054C16.712 129.987 16.8414 129.948 16.9742 129.943C17.0733 129.94 17.1719 129.958 17.264 129.994C17.356 130.031 17.4397 130.086 17.5098 130.156C17.5798 130.226 17.6349 130.31 17.6715 130.402C17.7081 130.494 17.7255 130.592 17.7227 130.691C17.7232 130.828 17.6838 130.962 17.6093 131.077C16.0897 133.708 13.073 135.001 10.1245 135.001C5.06652 135.001 1.4375 130.465 1.4375 125.634C1.4375 120.802 5.04384 116.266 10.1245 116.266C15.2051 116.266 18.8341 120.757 18.8568 125.588V125.588ZM17.2464 124.885C16.9289 121.165 14.071 117.763 10.1245 117.763C6.17791 117.763 3.3881 121.165 3.00252 124.885H17.2464Z" fill="white" stroke="white" stroke-width="1.0763" />
	<path d="M37.1379 116.629C37.3346 116.635 37.5216 116.715 37.6608 116.855C37.7999 116.994 37.8806 117.181 37.8863 117.377C37.8892 117.477 37.8717 117.575 37.8351 117.667C37.7985 117.759 37.7435 117.843 37.6734 117.913C37.6033 117.983 37.5197 118.038 37.4276 118.075C37.3355 118.111 37.2369 118.129 37.1379 118.126H33.1006V133.98C33.0988 134.178 33.0194 134.368 32.8794 134.508C32.7394 134.647 32.5501 134.727 32.3521 134.729C32.1554 134.723 31.9683 134.642 31.8292 134.503C31.69 134.364 31.6093 134.177 31.6036 133.98V118.126H27.7251C27.626 118.129 27.5274 118.111 27.4354 118.075C27.3433 118.038 27.2596 117.983 27.1896 117.913C27.1195 117.843 27.0645 117.759 27.0278 117.667C26.9912 117.575 26.9738 117.477 26.9766 117.377C26.9784 117.179 27.0578 116.99 27.1978 116.85C27.3378 116.71 27.5271 116.631 27.7251 116.629H31.6036V110.845C31.604 110.654 31.6727 110.468 31.7975 110.323C31.9222 110.177 32.0947 110.081 32.284 110.051C32.3899 110.037 32.4975 110.046 32.5996 110.078C32.7016 110.109 32.7957 110.162 32.8754 110.233C32.955 110.304 33.0184 110.392 33.0612 110.489C33.104 110.587 33.1252 110.693 33.1233 110.8V116.629H37.1379Z" fill="white" stroke="white" stroke-width="1.0763" />
	<path d="M61.7472 124.296V133.89C61.7415 134.087 61.6609 134.274 61.5217 134.413C61.3826 134.552 61.1955 134.633 60.9988 134.638C60.8997 134.641 60.8011 134.624 60.709 134.587C60.6169 134.55 60.5333 134.495 60.4632 134.425C60.3932 134.355 60.3381 134.272 60.3015 134.18C60.2649 134.087 60.2475 133.989 60.2503 133.89V124.296C60.2503 121.052 58.4131 117.831 54.8068 117.831C50.1798 117.831 48.1838 121.869 48.456 126.019C48.456 126.133 48.5013 126.609 48.5013 126.677V133.867C48.5009 134.059 48.4322 134.244 48.3075 134.39C48.1828 134.535 48.0102 134.631 47.8209 134.661C47.7151 134.675 47.6074 134.666 47.5054 134.635C47.4033 134.603 47.3092 134.55 47.2296 134.479C47.1499 134.408 47.0865 134.321 47.0437 134.223C47.0009 134.125 46.9798 134.019 46.9817 133.913V102.363C46.9835 102.165 47.0629 101.975 47.2029 101.835C47.3429 101.695 47.5322 101.616 47.7302 101.614C47.9269 101.62 48.114 101.701 48.2531 101.84C48.3923 101.979 48.4729 102.166 48.4786 102.363V120.19C49.7715 117.877 52.085 116.312 54.7841 116.312C59.2296 116.312 61.7472 120.19 61.7472 124.296Z" fill="white" stroke="white" stroke-width="1.0763" />
	<path d="M88.7606 125.588C88.757 125.802 88.6691 126.005 88.5161 126.154C88.3631 126.302 88.1574 126.384 87.9441 126.382H72.9063C73.2919 130.102 76.0817 133.504 80.0283 133.504C82.7274 133.504 84.7233 132.483 86.2203 130.329C86.29 130.215 86.3864 130.121 86.5011 130.054C86.6158 129.987 86.7452 129.948 86.878 129.943C86.9771 129.94 87.0757 129.958 87.1678 129.994C87.2599 130.031 87.3435 130.086 87.4136 130.156C87.4836 130.226 87.5387 130.31 87.5753 130.402C87.6119 130.494 87.6294 130.592 87.6265 130.691C87.6271 130.828 87.5876 130.962 87.5131 131.077C85.9935 133.708 82.9769 135.001 80.0283 135.001C74.9703 135.001 71.3413 130.465 71.3413 125.634C71.3413 120.802 74.9477 116.266 80.0283 116.266C85.0635 116.266 88.7379 120.757 88.7606 125.588V125.588ZM87.1275 124.885C86.81 121.165 83.9521 117.763 80.0056 117.763C76.059 117.763 73.2692 121.165 72.8837 124.885H87.1275Z" fill="white" stroke="white" stroke-width="1.0763" />
	<path d="M107.246 117.332C107.26 117.533 107.194 117.732 107.063 117.885C106.931 118.038 106.744 118.133 106.543 118.149C102.12 118.806 100.124 122.413 100.124 126.609V133.799C100.124 133.99 100.055 134.176 99.9302 134.321C99.8055 134.467 99.6329 134.563 99.4436 134.593C99.3377 134.607 99.2301 134.598 99.1281 134.566C99.026 134.535 98.9319 134.482 98.8523 134.411C98.7726 134.34 98.7092 134.252 98.6664 134.155C98.6236 134.057 98.6025 133.951 98.6044 133.844V117.445C98.6048 117.254 98.6735 117.069 98.7982 116.923C98.9229 116.778 99.0955 116.681 99.2848 116.652C99.3906 116.638 99.4983 116.646 99.6003 116.678C99.7024 116.709 99.7965 116.762 99.8761 116.833C99.9558 116.904 100.019 116.992 100.062 117.09C100.105 117.187 100.126 117.293 100.124 117.4V120.734C101.371 118.625 103.844 116.629 106.429 116.629C106.815 116.629 107.246 116.901 107.246 117.332Z" fill="white" stroke="white" stroke-width="1.0763" />
	<path d="M131.969 125.588C131.965 125.802 131.877 126.005 131.724 126.154C131.571 126.302 131.365 126.384 131.152 126.382H116.114C116.5 130.102 119.29 133.504 123.236 133.504C125.935 133.504 127.931 132.483 129.428 130.329C129.498 130.215 129.594 130.121 129.709 130.054C129.824 129.987 129.953 129.948 130.086 129.943C130.185 129.94 130.284 129.958 130.376 129.994C130.468 130.031 130.552 130.086 130.622 130.156C130.692 130.226 130.747 130.31 130.783 130.402C130.82 130.494 130.837 130.592 130.835 130.691C130.835 130.828 130.796 130.962 130.721 131.077C129.201 133.708 126.185 135.001 123.236 135.001C118.178 135.001 114.549 130.465 114.549 125.634C114.549 120.802 118.156 116.266 123.236 116.266C128.317 116.266 131.946 120.757 131.969 125.588V125.588ZM130.358 124.885C130.041 121.165 127.183 117.763 123.236 117.763C119.29 117.763 116.5 121.165 116.114 124.885H130.358Z" fill="white" stroke="white" stroke-width="1.0763" />
	<path d="M156.283 117.514V133.981C156.277 134.177 156.197 134.364 156.058 134.504C155.918 134.643 155.731 134.723 155.535 134.729C155.436 134.732 155.337 134.714 155.245 134.678C155.153 134.641 155.069 134.586 154.999 134.516C154.929 134.446 154.874 134.362 154.837 134.27C154.801 134.178 154.783 134.08 154.786 133.981V130.851C153.539 133.323 151.339 135.115 148.526 135.115C144.058 135.115 141.586 131.236 141.586 127.131V117.491C141.587 117.293 141.667 117.104 141.807 116.964C141.947 116.824 142.136 116.745 142.334 116.743C142.531 116.748 142.718 116.829 142.857 116.968C142.996 117.107 143.077 117.295 143.083 117.491V127.131C143.083 130.374 144.92 133.595 148.526 133.595C153.584 133.595 154.786 128.855 154.786 123.615V117.469C154.788 117.347 154.819 117.228 154.876 117.121C154.933 117.014 155.015 116.922 155.115 116.853C155.215 116.784 155.33 116.741 155.45 116.725C155.571 116.71 155.693 116.724 155.807 116.765C155.949 116.832 156.07 116.937 156.154 117.07C156.239 117.203 156.283 117.357 156.283 117.514V117.514Z" fill="white" stroke="white" stroke-width="1.0763" />
	<path d="M194.365 124.227V133.867C194.359 134.064 194.279 134.251 194.139 134.39C194 134.529 193.813 134.61 193.617 134.615C193.517 134.618 193.419 134.601 193.327 134.564C193.235 134.528 193.151 134.472 193.081 134.402C193.011 134.332 192.956 134.249 192.919 134.157C192.883 134.065 192.865 133.966 192.868 133.867V124.227C192.868 120.984 191.031 117.808 187.425 117.808C182.888 117.808 181.164 122.662 181.164 126.427V133.867C181.159 134.064 181.078 134.251 180.939 134.39C180.8 134.529 180.613 134.61 180.416 134.615C180.317 134.618 180.218 134.601 180.126 134.564C180.034 134.528 179.951 134.472 179.88 134.402C179.81 134.332 179.755 134.249 179.719 134.157C179.682 134.065 179.665 133.966 179.668 133.867V124.227C179.668 120.984 177.83 117.808 174.224 117.808C169.642 117.808 167.76 121.415 167.919 126.223C167.919 126.337 167.964 126.541 167.919 126.609V133.844C167.918 134.036 167.849 134.221 167.725 134.367C167.6 134.512 167.427 134.608 167.238 134.638C167.132 134.652 167.025 134.643 166.923 134.612C166.821 134.58 166.726 134.527 166.647 134.456C166.567 134.385 166.504 134.298 166.461 134.2C166.418 134.102 166.397 133.996 166.399 133.89V117.446C166.399 117.254 166.468 117.069 166.593 116.923C166.717 116.778 166.89 116.681 167.079 116.652C167.185 116.638 167.293 116.647 167.395 116.678C167.497 116.709 167.591 116.762 167.671 116.833C167.75 116.905 167.814 116.992 167.857 117.09C167.899 117.188 167.92 117.293 167.919 117.4V120.145C169.211 117.831 171.525 116.312 174.224 116.312C177.286 116.312 179.668 118.262 180.643 121.097C181.89 118.285 184.317 116.312 187.425 116.312C191.847 116.312 194.365 120.145 194.365 124.227Z" fill="white" stroke="white" stroke-width="1.0763" />
	<path opacity="0.6" d="M98.4476 31.041L73.1494 42.7026L98.4476 57.8894L123.766 42.7026L98.4476 31.041Z" fill="white" />
	<path opacity="0.45" d="M73.1494 42.7027L98.4476 57.8894V0.114258L73.1494 42.7027Z" fill="white" />
	<path opacity="0.8" d="M98.4476 0.114258V57.8894L123.746 42.7027L98.4476 0.114258Z" fill="white" />
	<path opacity="0.45" d="M73.1494 47.5806L98.4476 83.7336V62.7468L73.1494 47.5806Z" fill="white" />
	<path opacity="0.8" d="M98.4476 62.7468V83.7336L123.766 47.5806L98.4476 62.7468Z" fill="white" />
</svg>
