<svg width="186" height="60" viewBox="0 0 186 60" fill="none" xmlns="http://www.w3.org/2000/svg">
<path d="M34.8629 17.5729C34.858 18.4003 34.0984 18.9854 33.2772 18.899C31.2418 18.6844 29.3768 18.7022 27.6334 18.8841C23.8383 19.2801 20.6845 20.4522 17.7769 21.5331L17.7705 21.5353C17.5946 21.6008 17.4195 21.6659 17.2453 21.7304C14.1579 22.8738 11.313 23.8575 7.93772 23.9355C6.59126 23.9667 5.14069 23.8532 3.54335 23.5315C2.17337 23.2554 1.07884 22.2083 0.80738 20.8345C0.592277 19.746 0.479492 18.6205 0.479492 17.4687C0.479492 7.95356 8.17654 0.23999 17.6713 0.23999C27.1662 0.23999 34.8632 7.95356 34.8632 17.4687C34.8632 17.5035 34.8631 17.5382 34.8629 17.5729Z" fill="white"/>
<path d="M2.01099 26.1345C0.719995 25.8237 -0.458136 27.2139 0.17765 28.382L17.0528 59.3861C17.3243 59.885 18.039 59.885 18.3105 59.3861L36.9363 25.1659C37.5967 23.952 36.9612 22.4317 35.6084 22.1608C32.6651 21.5716 30.1575 21.5082 27.9255 21.741C24.501 22.0983 21.6569 23.1543 18.7043 24.2502C18.5479 24.3084 18.3912 24.3664 18.2341 24.4246C15.1432 25.5695 11.8993 26.7169 7.99936 26.8071C6.14576 26.8501 4.17138 26.6546 2.01099 26.1345Z" fill="white" fill-opacity="0.5"/>
<path d="M17.6772 25.2302C17.6772 24.8707 17.9013 24.5493 18.2379 24.4246C18.3951 24.3664 18.5518 24.3084 18.7082 24.2502C21.6608 23.1543 24.5049 22.0983 27.9294 21.741C30.1614 21.5082 32.669 21.5716 35.6121 22.1608C36.9651 22.4317 37.6006 23.952 36.9399 25.1659L18.3143 59.3861C18.1771 59.6383 17.9265 59.763 17.6772 59.7602V25.2302Z" fill="white"/>
<path fill-rule="evenodd" clip-rule="evenodd" d="M71.9075 15.2468C70.2553 14.7746 68.7213 14.5386 67.1866 14.5386C64.3542 14.5386 61.758 15.2468 59.3977 16.427C57.0372 17.7252 55.2668 19.4955 53.9685 21.856C52.6703 24.2163 52.0801 26.8129 52.0801 29.8813C52.0801 32.95 52.7884 35.5463 54.0866 37.9069C55.3844 40.2672 57.2728 42.0376 59.5152 43.3358C61.758 44.6341 64.2361 45.3422 67.0691 45.3422C69.6651 45.3422 72.0256 44.8702 74.1503 43.69C76.2744 42.6277 77.9266 40.9755 79.2251 38.7329C80.5234 36.4905 81.1136 33.8941 81.1136 30.8255V29.5274C81.1136 29.3626 81.1136 29.1721 81.1137 28.9681L81.1139 28.7233C81.1141 28.4504 80.8928 28.2291 80.6197 28.2291H68.3871C68.114 28.2291 67.8929 28.4504 67.8929 28.7233V33.0458C67.8929 33.3188 68.114 33.5401 68.3871 33.5401H73.9702C74.1717 33.5401 74.3262 33.7193 74.29 33.9172C74.173 34.5546 74.0084 35.1334 73.796 35.6645C73.3239 36.9627 72.4975 37.7888 71.3173 38.4969C70.2553 39.087 68.8394 39.4412 67.0691 39.4412C65.6525 39.4412 64.2361 38.9691 63.0558 38.261C61.758 37.4348 60.8135 36.3726 60.1052 34.9564C59.3977 33.5401 59.0432 31.8877 59.0432 29.9995C59.0432 28.111 59.3977 26.4588 60.1052 25.0426C60.8135 23.6262 61.758 22.446 63.0558 21.7379C64.3542 20.9117 65.7706 20.5577 67.3047 20.5577C68.7213 20.5577 70.1371 20.9117 71.3173 21.5019C72.3664 22.0264 73.3224 22.9238 74.1019 24.0285C74.263 24.2565 74.577 24.3222 74.8076 24.165L79.1983 21.1711C79.4128 21.0251 79.4786 20.7372 79.3374 20.5196C78.5308 19.2762 77.451 18.2267 76.2744 17.3711C74.858 16.427 73.5603 15.7188 71.9075 15.2468ZM109.709 16.2022L114.976 14.8151C115.289 14.7325 115.596 14.9689 115.596 15.293V44.3758C115.596 44.6488 115.374 44.87 115.101 44.87H109.835C109.562 44.87 109.341 44.6488 109.341 44.3758V16.6802C109.341 16.4557 109.492 16.2594 109.709 16.2022ZM171.837 28.465C172.664 27.9929 173.49 27.7568 174.434 27.7568C175.496 27.7568 176.322 28.111 177.03 28.465C177.739 28.8191 178.329 29.5272 178.801 30.4713C179.273 31.4155 179.509 32.4777 179.509 33.776C179.509 35.0743 179.273 36.1363 178.801 37.0807C178.447 38.0248 177.857 38.7329 177.03 39.205C176.322 39.677 175.378 39.9131 174.434 39.9131C173.49 39.9131 172.546 39.677 171.837 39.205C171.129 38.7329 170.539 38.0248 170.067 37.0807C169.595 36.1363 169.359 35.0743 169.359 33.776C169.359 32.4777 169.595 31.4155 170.067 30.4713C170.421 29.6453 171.011 28.937 171.837 28.465ZM180.335 23.6262C178.683 22.682 176.676 22.21 174.434 22.21C172.31 22.21 170.303 22.682 168.533 23.6262C166.762 24.5703 165.464 25.9865 164.402 27.7568C163.34 29.5272 162.868 31.5336 162.868 33.776C162.868 36.0184 163.458 38.0248 164.402 39.7951C165.346 41.5655 166.762 42.9817 168.533 43.9258C170.303 44.87 172.31 45.342 174.434 45.342C176.558 45.342 178.565 44.87 180.335 43.9258C182.105 42.9817 183.404 41.5655 184.466 39.7951C185.528 38.0248 186 36.0184 186 33.776C186 31.5336 185.41 29.5272 184.466 27.7568C183.522 25.9865 182.105 24.5703 180.335 23.6262ZM135.664 42.6203C135.711 42.5455 135.846 42.5799 135.846 42.6681V44.3759C135.846 44.649 136.067 44.8702 136.34 44.8702H141.607C141.88 44.8702 142.101 44.649 142.101 44.3759V23.4124C142.101 23.1396 141.88 22.9182 141.607 22.9182H136.34C136.067 22.9182 135.846 23.1396 135.846 23.4124V25.3121C135.846 25.4744 135.631 25.5423 135.532 25.4138C135.201 24.9828 134.832 24.5826 134.43 24.2165C133.132 22.9182 131.361 22.3281 129.237 22.3281C127.349 22.3281 125.696 22.8003 124.162 23.8626C122.746 24.8067 121.565 26.2229 120.739 27.9933C119.913 29.7636 119.559 31.7698 119.559 33.8943C119.559 36.0186 119.913 38.025 120.739 39.7953C121.565 41.5657 122.628 42.864 124.162 43.9262C125.578 44.9883 127.349 45.4603 129.237 45.4603C131.479 45.4603 133.132 44.7522 134.548 43.8081C135.088 43.4478 135.461 42.9456 135.664 42.6203ZM133.486 39.0872C132.66 39.5593 131.833 39.7953 130.889 39.7953C129.945 39.7953 129.119 39.5593 128.293 39.0872C127.585 38.6152 126.995 37.9071 126.522 36.9629C126.169 36.0186 125.932 34.9565 125.932 33.7762C125.932 32.596 126.05 31.6519 126.522 30.7076C126.995 29.8815 127.585 29.1734 128.293 28.7014C129.119 28.2293 129.945 27.9933 130.889 27.9933C131.833 27.9933 132.777 28.2293 133.486 28.7014C134.194 29.1734 134.784 29.7634 135.256 30.7076C135.61 31.5338 135.846 32.596 135.846 33.7762C135.846 34.9565 135.728 36.0186 135.256 36.9629C134.784 37.9071 134.194 38.6152 133.486 39.0872ZM155.836 27.757C155.744 27.757 155.671 27.8307 155.671 27.9218V36.3726C155.671 38.3789 156.497 39.441 158.149 39.441H160.016C160.288 39.441 160.51 39.6623 160.51 39.9354V44.3758C160.51 44.6488 160.288 44.8702 160.016 44.8702H157.323C154.845 44.8702 152.838 44.1619 151.54 42.7457C150.124 41.3295 149.416 39.3231 149.416 36.7265V27.9218C149.416 27.8307 149.342 27.757 149.251 27.757H145.599C145.26 27.757 145.022 27.4241 145.131 27.1034L146.442 23.253C146.51 23.0527 146.698 22.9181 146.91 22.9181H149.251C149.342 22.9181 149.416 22.8442 149.416 22.7533V16.845C149.416 16.6205 149.567 16.4242 149.784 16.367L155.257 14.9255C155.466 14.8704 155.671 15.028 155.671 15.2441V22.7533C155.671 22.8442 155.744 22.9181 155.836 22.9181H160.149C160.488 22.9181 160.726 23.251 160.617 23.5717L159.306 27.4221C159.237 27.6224 159.049 27.757 158.838 27.757H155.836ZM94.9901 22.21C97.1142 22.21 98.8846 22.682 100.419 23.6262C101.953 24.5703 103.251 25.9865 104.077 27.7568C105.022 29.5272 105.376 31.5336 105.376 33.776V34.8161C105.376 35.089 105.154 35.3103 104.881 35.3103H90.8747C90.6749 35.3103 90.5205 35.4868 90.5549 35.6838C90.658 36.2745 90.8034 36.7933 90.9768 37.1986C91.4494 38.1427 92.0394 38.851 92.7471 39.205C93.4554 39.5591 94.3999 39.9131 95.5801 39.9131C96.6421 39.9131 97.7042 39.677 98.4125 39.3231C99.0953 39.0303 99.6972 38.4959 100.219 37.8529C100.398 37.6318 100.724 37.5862 100.945 37.7655L104.534 40.6755C104.74 40.8429 104.779 41.1444 104.61 41.3501C103.604 42.5803 102.394 43.5176 100.891 44.1619C99.2387 44.87 97.468 45.2241 95.5801 45.2241C93.3373 45.2241 91.3313 44.752 89.5609 43.8077C87.7906 42.8636 86.4923 41.4474 85.5484 39.677C84.6038 37.9067 84.1318 35.9005 84.1318 33.6579C84.1318 31.4155 84.6038 29.4093 85.5484 27.6389C86.4923 25.8686 87.7906 24.5703 89.4428 23.5082C91.0949 22.682 92.8652 22.21 94.9901 22.21ZM91.0138 31.1796C90.8058 31.1796 90.6496 30.9892 90.6987 30.7873C90.9059 29.9383 91.2061 29.243 91.5669 28.701C92.2752 27.6387 93.4554 27.0487 94.9901 27.0487C96.4059 27.0487 97.5861 27.6387 98.2944 28.701C98.6472 29.2303 98.9411 29.9353 99.1477 30.7868C99.1967 30.989 99.0404 31.1796 98.8323 31.1796H91.0138Z" fill="white"/>
</svg>
