<svg width="188" height="33" viewBox="0 0 188 33" fill="none" xmlns="http://www.w3.org/2000/svg">
<path fill-rule="evenodd" clip-rule="evenodd" d="M44.6788 17.2717C44.4687 17.3635 43.8791 18.2864 44.698 19.5631C48.2708 25.133 61.4008 18.6414 54.8213 8.05739C52.3646 4.10547 48.5907 3.07932 44.5842 3.4616C47.7098 3.16294 50.7975 4.79667 52.915 8.2116C59.0791 18.1526 47.6015 22.9223 44.7195 18.984C44.1347 18.1848 44.5874 17.3487 44.6788 17.2717ZM42.5472 17.9855C43.264 16.651 44.373 16.6908 44.5591 16.8235C44.4455 16.7843 43.4814 16.8175 43.0688 17.7142C41.0353 22.1334 50.9821 29.5058 56.6704 19.2951C58.6244 15.7875 58.5219 12.3458 56.6956 9.83804C59.0361 13.0529 60.0177 16.7742 57.7595 20.8386C51.7117 31.7239 39.4196 23.8077 42.5472 17.9855ZM45.356 16.63C45.5661 16.5382 46.1557 15.6153 45.3368 14.3387C41.764 8.7687 28.634 15.2603 35.2135 25.8443C37.6702 29.7963 41.4441 30.8224 45.4506 30.4401C42.325 30.7388 39.2373 29.1051 37.1198 25.6901C30.9557 15.7491 42.4333 10.9794 45.3153 14.9177C45.9001 15.7169 45.4474 16.553 45.356 16.63ZM44.8979 16.5003C44.9219 16.2758 44.4025 15.3131 42.8668 15.371C36.1664 15.6232 35.3285 30.031 47.9558 29.7297C52.6707 29.6172 55.463 26.9221 57.129 23.325C55.8297 26.1314 52.8445 27.9394 48.773 28.0321C36.9206 28.3018 38.4514 16.1596 43.3669 15.6787C44.3644 15.5812 44.8757 16.3841 44.8979 16.5003ZM47.4793 15.9155C46.7625 17.25 45.6535 17.2102 45.4674 17.0775C45.581 17.1167 46.5451 17.0835 46.9577 16.1868C48.9912 11.7676 39.0444 4.39519 33.3562 14.6059C31.4021 18.1135 31.5046 21.5552 33.3309 24.063C30.9904 20.8481 30.0088 17.1268 32.267 13.0624C38.3148 2.17709 50.6069 10.0933 47.4793 15.9155ZM45.1278 17.4006C45.1038 17.6251 45.6232 18.5878 47.1589 18.5299C53.8594 18.2776 54.6972 3.86987 42.0699 4.17116C37.355 4.28365 34.5628 6.97881 32.8968 10.5759C34.1961 7.7695 37.1813 5.96148 41.2528 5.86883C53.1051 5.59913 51.5744 17.7413 46.6588 18.2222C45.6614 18.3197 45.15 17.5168 45.1278 17.4006Z" fill="white"/>
<path d="M1.10889 27.1478V6.80957H10.62C12.6538 6.80957 14.4085 7.53736 15.884 8.99294C17.3596 10.4286 18.0973 12.0836 18.0973 13.9579C18.0973 15.8521 17.3596 17.527 15.884 18.9826C14.4085 20.4183 12.6538 21.1361 10.62 21.1361H5.50554V27.1478H1.10889ZM9.96201 10.7277H5.50554V17.1881H9.96201C10.9989 17.1881 11.8762 16.879 12.594 16.2609C13.3118 15.6428 13.6708 14.8751 13.6708 13.9579C13.6708 13.0407 13.3019 12.273 12.5641 11.6549C11.8463 11.0367 10.9789 10.7277 9.96201 10.7277Z" fill="white"/>
<path d="M77.5622 27.1478H73.1655V6.80957H81.9289C83.1054 6.80957 84.1921 6.93918 85.189 7.19839C86.186 7.43766 87.0933 7.81651 87.9108 8.33494C88.7283 8.83343 89.3664 9.54128 89.825 10.4585C90.3035 11.3757 90.5428 12.4524 90.5428 13.6887C90.5428 14.6857 90.3434 15.5829 89.9446 16.3805C89.5458 17.1781 89.0075 17.8162 88.3295 18.2947C87.6715 18.7533 86.9836 19.1122 86.2658 19.3714C85.5679 19.6307 84.8501 19.8001 84.1123 19.8799L90.9017 27.1478H85.877L77.5622 18.0554V27.1478ZM77.5622 10.7277V16.4702H81.5999C82.3377 16.4702 83.0156 16.4104 83.6338 16.2908C84.2519 16.1512 84.8202 15.8521 85.3386 15.3935C85.877 14.9349 86.1461 14.3367 86.1461 13.599C86.1461 12.8612 85.8869 12.263 85.3685 11.8044C84.8501 11.3458 84.2818 11.0567 83.6637 10.937C83.0655 10.7975 82.3975 10.7277 81.6598 10.7277H77.5622Z" fill="white"/>
<path d="M112.631 10.7277H106.171V6.80957H123.518V10.7277H117.058V27.1478H112.631V10.7277Z" fill="white"/>
<path d="M134.748 27.1478L143.272 6.80957H148.656L157.18 27.1478H152.724L150.869 22.6315H141.059L139.235 27.1478H134.748ZM145.964 10.5781L142.554 18.8331H149.374L145.964 10.5781Z" fill="white"/>
<path d="M177.717 23.2297H187.408V27.1478H173.32V6.80957H177.717V23.2297Z" fill="white"/>
</svg>
