<svg width="261" height="39" viewBox="0 0 261 39" fill="none" xmlns="http://www.w3.org/2000/svg">
<path d="M167.795 0.903076H173.675V6.7538H181.648V12.2299H173.675V23.4588C173.675 25.898 174.919 27.1174 177.409 27.1174H181.648V32.5927H176.98C170.857 32.5927 167.795 29.5483 167.795 23.4588V12.2299H164.944V6.7538H167.795V0.903076Z" fill="white"/>
<path d="M162.273 19.7112C161.583 19.1815 160.818 18.7355 159.977 18.3738C159.135 18.0119 158.299 17.705 157.466 17.4528C156.633 17.2003 155.872 16.94 155.182 16.6709C154.493 16.4016 153.929 16.036 153.492 15.5734C153.054 15.1108 152.836 14.5344 152.836 13.8446C152.836 13.0539 153.084 12.4397 153.58 12.0025C154.076 11.5645 154.77 11.3464 155.662 11.3464C156.554 11.3464 157.26 11.6155 157.782 12.1536C158.303 12.692 158.564 13.4576 158.564 14.45H164.57C164.57 12.0113 163.741 10.0341 162.084 8.52034C160.427 7.00629 158.287 6.24902 155.662 6.24902C153.256 6.24902 151.271 6.95584 149.707 8.36874C148.143 9.78188 147.36 11.6069 147.36 13.8446C147.36 14.8878 147.49 15.8171 147.751 16.6329C148.012 17.4489 148.361 18.1216 148.799 18.6512C149.236 19.1815 149.736 19.6441 150.3 20.0392C150.863 20.4348 151.456 20.7546 152.079 20.9983C152.701 21.242 153.323 21.4697 153.946 21.6798C154.568 21.8901 155.161 22.0958 155.725 22.2979C156.288 22.4999 156.789 22.7268 157.226 22.9786C157.664 23.2311 158.013 23.5553 158.274 23.9508C158.534 24.3462 158.665 24.8129 158.665 25.3513C158.665 26.1922 158.408 26.8444 157.895 27.3065C157.382 27.7693 156.679 28.0004 155.789 28.0004C154.88 28.0004 154.16 27.7269 153.63 27.1807C153.1 26.634 152.836 25.8561 152.836 24.8463H146.88C146.88 27.3026 147.713 29.2924 149.378 30.8142C151.044 32.3368 153.181 33.0977 155.789 33.0977C158.395 33.0977 160.519 32.3826 162.159 30.9532C163.8 29.523 164.62 27.6558 164.62 25.3513C164.62 24.0388 164.401 22.9038 163.964 21.9445C163.527 20.9859 162.963 20.2413 162.273 19.7112Z" fill="white"/>
<path fill-rule="evenodd" clip-rule="evenodd" d="M133.157 6.24951C129.237 6.24951 126.02 7.50691 123.505 10.022C120.99 12.5367 119.732 15.754 119.732 19.6736C119.732 23.6101 120.986 26.8315 123.492 29.3382C125.999 31.845 129.221 33.0982 133.157 33.0982C136.118 33.0982 138.734 32.3999 141.004 31.0036C143.276 29.6073 144.764 27.7065 145.471 25.3011H138.86C137.716 27.0001 135.815 27.8493 133.157 27.8493C131.256 27.8493 129.666 27.3282 128.387 26.285C127.109 25.2419 126.259 23.7956 125.839 21.9449H146.404C146.539 20.9693 146.607 20.212 146.607 19.6736C146.607 15.754 145.344 12.5367 142.821 10.022C140.298 7.50691 137.077 6.24951 133.157 6.24951ZM125.99 16.8729C126.462 15.191 127.324 13.8746 128.577 12.9238C129.83 11.973 131.357 11.4982 133.157 11.4982C134.94 11.4982 136.459 11.973 137.712 12.9238C138.965 13.8746 139.811 15.191 140.248 16.8729H125.99Z" fill="white"/>
<path d="M120.191 6.75415L112.343 10.1608V6.75415H106.363V32.5933H112.343V16.116L120.191 12.911V6.75415Z" fill="white"/>
<path fill-rule="evenodd" clip-rule="evenodd" d="M185.815 10.0224C188.331 7.50691 191.548 6.24927 195.468 6.24927C199.388 6.24927 202.608 7.50691 205.132 10.0224C207.656 12.5367 208.917 15.7542 208.917 19.6739C208.917 23.6101 207.659 26.8312 205.144 29.338C202.63 31.8447 199.404 33.098 195.468 33.098C191.531 33.098 188.31 31.8447 185.803 29.338C183.297 26.8312 182.044 23.6101 182.044 19.6739C182.044 15.7542 183.301 12.5367 185.815 10.0224ZM195.468 27.6219C197.705 27.6219 199.505 26.899 200.867 25.4522C202.23 24.0054 202.911 22.079 202.911 19.6739C202.911 17.2685 202.23 15.3421 200.867 13.8953C199.505 12.449 197.705 11.7249 195.468 11.7249C193.197 11.7249 191.371 12.4529 189.992 13.908C188.612 15.363 187.923 17.2848 187.923 19.6739C187.923 22.0627 188.612 23.9845 189.992 25.4393C191.371 26.8946 193.197 27.6219 195.468 27.6219Z" fill="white"/>
<path fill-rule="evenodd" clip-rule="evenodd" d="M81.2339 29.3382C83.7406 31.8445 86.9618 33.0982 90.8982 33.0982C93.8759 33.0982 96.3573 32.2067 98.3427 30.4233V32.593H104.348V6.75427H98.3427V8.9242C96.2898 7.14107 93.8086 6.24951 90.8982 6.24951C86.9786 6.24951 83.7613 7.50667 81.2463 10.0222C78.7313 12.537 77.4741 15.754 77.4741 19.6736C77.4741 23.6101 78.7276 26.8315 81.2339 29.3382ZM85.4226 13.908C86.8024 12.4524 88.6269 11.7251 90.8982 11.7251C93.1357 11.7251 94.9356 12.4483 96.2983 13.8953C97.6607 15.3416 98.3427 17.268 98.3427 19.6736C98.3427 22.0795 97.6607 24.0052 96.2983 25.4522C94.9356 26.8985 93.1357 27.6221 90.8982 27.6221C88.6269 27.6221 86.8024 26.8951 85.4226 25.4398C84.0433 23.9847 83.3533 22.0627 83.3533 19.6736C83.3533 17.2846 84.0433 15.363 85.4226 13.908Z" fill="white"/>
<path d="M216.114 8.72214C217.763 7.07356 219.849 6.24927 222.372 6.24927C225.417 6.24927 227.911 7.26294 229.854 9.29028C231.797 11.3171 232.768 13.9204 232.768 17.0996V32.5935H226.813V17.0996C226.813 15.502 226.321 14.2063 225.338 13.2136C224.353 12.2211 223.07 11.7249 221.489 11.7249C219.84 11.7249 218.533 12.2172 217.565 13.2014C216.598 14.1851 216.114 15.4851 216.114 17.0996V32.5935H210.134V6.75403H216.114V8.72214Z" fill="white"/>
<path d="M70.0849 16.1155L77.9327 12.9112V6.75391L70.0849 10.1605V6.75391H64.1045V32.5931H70.0849V16.1155Z" fill="white"/>
<path fill-rule="evenodd" clip-rule="evenodd" d="M257.191 10.0215C259.714 12.5365 260.976 15.7537 260.976 19.6734C260.976 20.2118 260.908 20.969 260.774 21.9445H240.209C240.629 23.7951 241.479 25.2416 242.757 26.2848C244.036 27.3279 245.625 27.8488 247.526 27.8488C250.185 27.8488 252.085 26.9999 253.229 25.3008H259.84C259.134 27.7062 257.645 29.6071 255.374 31.0031C253.103 32.4 250.487 33.098 247.526 33.098C243.59 33.098 240.368 31.8447 237.862 29.338C235.355 26.8312 234.102 23.6099 234.102 19.6734C234.102 15.7537 235.359 12.5365 237.874 10.0215C240.389 7.50667 243.606 6.24927 247.526 6.24927C251.446 6.24927 254.667 7.50667 257.191 10.0215ZM242.946 12.9235C241.693 13.8741 240.831 15.1905 240.36 16.8727H254.617C254.18 15.1905 253.334 13.8741 252.081 12.9235C250.828 11.9728 249.309 11.498 247.526 11.498C245.727 11.498 244.2 11.9728 242.946 12.9235Z" fill="white"/>
<path fill-rule="evenodd" clip-rule="evenodd" d="M17.9248 0.916719L17.7468 1.22496L0.725952 16.0462L19.5166 32.607L26.5615 38.6134L35.3734 31.1839H35.3993L35.4239 31.1412L35.5263 31.0549L52.5997 16.0471L35.5774 1.2252L35.3993 0.916719H17.9248ZM38.2523 5.85832L48.9599 15.1817H43.6351L38.2523 5.85832ZM15.0717 5.85837L9.68895 15.1817H4.36471L15.0717 5.85837ZM4.34462 16.9193L15.226 26.5094L9.68924 16.9193H4.34462ZM20.5299 31.1839L20.6547 31.2939L25.793 35.6747V31.1839H20.5299ZM27.5306 35.5236L32.6777 31.1839H27.5306V35.5236ZM38.1316 26.4513L48.9755 16.9193H43.6348L38.1316 26.4513ZM39.0859 10.7774L41.6287 15.1817H31.4034L31.1608 14.7613L39.0859 10.7774ZM41.6284 16.9193L38.8352 21.7575L31.0752 17.4874L31.4031 16.9193H41.6284ZM11.6953 15.1817L14.4887 10.3435L22.2482 14.6134L21.9202 15.1817H11.6953ZM11.6956 16.9193L14.2383 21.3234L22.1631 17.3396L21.9205 16.9193H11.6956ZM33.3929 29.4463H27.5306V20.5911H28.2803L33.3929 29.4463ZM25.793 20.5911H25.0435L19.9309 29.4463H25.793V20.5911ZM23.5386 19.7225L23.0332 18.847L15.1085 22.8307L18.4263 28.5772L23.5386 19.7225ZM30.2064 18.9925L29.7851 19.7223L34.8977 28.5775L37.9662 23.2626L30.2064 18.9925ZM34.8977 3.52313L38.2157 9.27008L30.2906 13.254L29.7852 12.3783L34.8977 3.52313ZM33.3929 2.65432L28.2804 11.5095H27.5306V2.65432H33.3929ZM25.793 2.65432V11.5095H25.0435L19.9309 2.65432H25.793ZM18.4263 3.52334L23.5386 12.3781L23.1171 13.1082L15.3576 8.83838L18.4263 3.52334Z" fill="white"/>
</svg>
