<svg width="125" height="44" viewBox="0 0 125 44" fill="none" xmlns="http://www.w3.org/2000/svg">
<g clip-path="url(#clip0_93_4869)">
<path d="M61.982 10.1435H54.2611V30.8849H52.3651V10.1435H44.6638V8.55249H61.982V10.1435Z" fill="white"/>
<path d="M69.1165 31.2147C66.3546 31.2555 63.8135 29.7169 62.588 27.2586C61.9351 25.9644 61.6067 24.5344 61.6302 23.087V22.4273C61.6067 20.9391 61.9292 19.4665 62.5684 18.1199C63.1372 16.8976 64.0383 15.8557 65.1681 15.1125C66.2373 14.3985 67.4961 14.0144 68.7842 14.0066C70.817 14.0066 72.4199 14.6857 73.6122 16.0633C74.8045 17.4408 75.3909 19.3229 75.3909 21.7094V22.7378H63.448V23.087C63.448 24.9691 63.9953 26.5407 65.0704 27.7824C66.077 28.999 67.5899 29.6936 69.1751 29.6645C70.0782 29.6858 70.9754 29.4996 71.7944 29.1212C72.6153 28.7196 73.3249 28.1258 73.8663 27.3944L75.0195 28.2675C73.6904 30.2252 71.7162 31.2147 69.1165 31.2147ZM68.7842 15.5569C67.4472 15.5355 66.165 16.0865 65.2658 17.0703C64.3081 18.0792 63.7412 19.4374 63.5262 21.1448H73.5536V20.9508C73.4949 19.3598 73.0453 18.0598 72.1853 17.0509C71.3253 16.0419 70.1916 15.5569 68.7842 15.5569Z" fill="white"/>
<path d="M80.864 29.3521H91.7318V30.9043H78.577V29.5461L88.7217 15.8867H78.8898V14.2957H91.0477V15.6732L80.864 29.3521Z" fill="white"/>
<path d="M94.3901 22.3479C94.3667 20.8597 94.6892 19.387 95.3284 18.0405C95.907 16.8162 96.8217 15.782 97.9672 15.0525C99.1263 14.3307 100.471 13.9601 101.837 13.9853C104.066 13.9853 105.864 14.7614 107.252 16.3136C108.64 17.8659 109.324 19.9225 109.324 22.4837V22.8717C109.349 24.3657 109.027 25.8461 108.385 27.1985C107.813 28.4209 106.896 29.4531 105.747 30.169C104.584 30.8753 103.241 31.2401 101.876 31.2168C99.6677 31.2168 97.8499 30.4407 96.4621 28.8885C95.0743 27.3363 94.3901 25.2796 94.3901 22.7184V22.3479ZM96.2471 22.8523C96.2471 24.8314 96.7748 26.4612 97.7912 27.7418C98.8077 29.0223 100.176 29.6432 101.857 29.6432C103.438 29.6801 104.945 28.9758 105.923 27.7418C106.959 26.4612 107.467 24.7926 107.467 22.6971V22.3479C107.478 21.1488 107.24 19.9575 106.763 18.8554C106.345 17.8697 105.653 17.0218 104.769 16.4107C103.905 15.8266 102.881 15.522 101.837 15.5375C100.258 15.5084 98.7588 16.2205 97.7912 17.4584C96.7553 18.739 96.2275 20.427 96.2275 22.5031L96.2471 22.8523Z" fill="white"/>
<path d="M123.163 26.6765C123.186 25.8072 122.768 24.9826 122.048 24.484C121.306 23.9407 120.211 23.4945 118.706 23.184C117.516 22.9628 116.355 22.6058 115.246 22.1169C114.425 21.7094 113.819 21.2244 113.428 20.6423C113.016 20.0136 112.805 19.2763 112.823 18.5274C112.823 17.208 113.37 16.1409 114.484 15.2872C115.598 14.4334 117.005 14.0066 118.726 14.0066C120.582 14.0066 122.088 14.4723 123.221 15.3842C124.33 16.2456 124.961 17.5767 124.922 18.9737H123.065C123.073 18.0152 122.613 17.1129 121.833 16.5483C121.013 15.908 119.977 15.5782 118.726 15.5782C117.514 15.5782 116.536 15.8498 115.794 16.3737C115.09 16.8413 114.672 17.6291 114.679 18.4692C114.642 19.222 114.988 19.9418 115.598 20.39C116.204 20.8363 117.338 21.2632 118.96 21.6512C120.582 22.0393 121.794 22.4273 122.615 22.8542C123.337 23.2112 123.956 23.7467 124.414 24.4064C125.508 26.269 125.029 28.6517 123.299 29.9555C122.166 30.7898 120.68 31.2167 118.843 31.2167C116.888 31.2167 115.305 30.751 114.113 29.8197C112.92 28.8884 112.295 27.7048 112.295 26.269H114.152C114.191 27.2702 114.695 28.1957 115.52 28.772C116.36 29.3734 117.475 29.6645 118.862 29.6645C120.152 29.6645 121.188 29.3734 121.99 28.8302C122.772 28.2461 123.163 27.5282 123.163 26.6765Z" fill="white"/>
<path d="M31.0008 32.1461C30.5512 24.2492 20.5434 20.6597 19.5856 20.2911C19.5465 20.2717 19.5465 20.2329 19.5661 20.1941L29.8866 9.91071V8.80477C29.8808 8.62432 29.7361 8.48074 29.5543 8.47492H10.5356V2.2855V0.422852L3.51837 1.87805V2.92578H3.9093C3.9093 2.92578 5.6294 2.92578 5.6294 4.63321V8.45552H0.195465C0.089914 8.46328 0.00781861 8.54477 0 8.64955V11.0749H5.64894V24.2492C5.64894 28.382 8.32682 31.2535 13.018 30.8655C13.9836 30.7704 14.912 30.4367 15.7154 29.8954C16.0692 29.6703 16.2823 29.2842 16.2823 28.867V27.5671C14.7576 28.576 13.4676 28.5178 13.4676 28.5178C10.4965 28.5178 10.5551 24.7731 10.5551 24.7731V11.0749H24.2377L14.3862 20.9314C14.3667 22.2313 14.3471 23.2403 14.3471 23.2597C14.3432 23.2888 14.3647 23.314 14.3941 23.3179C14.398 23.3179 14.4019 23.3179 14.4058 23.3179C23.4363 24.8313 25.8796 30.6327 25.8796 32.3207C25.8796 32.3207 26.8569 40.528 18.5887 41.0907C18.5887 41.0907 13.1744 41.3235 12.2166 39.1698C12.1814 39.1 12.2127 39.0146 12.283 38.9816C12.2869 38.9797 12.2909 38.9777 12.2948 38.9758C13.2154 38.5935 13.8116 37.6971 13.7998 36.7057C13.7998 35.1147 12.8225 33.8147 10.7701 33.8147C9.10868 33.8147 7.74042 35.1147 7.74042 36.7057C7.74042 36.7057 6.95856 43.613 18.5692 43.419C31.8217 43.1861 31.0008 32.1461 31.0008 32.1461Z" fill="white"/>
</g>
<defs>
<clipPath id="clip0_93_4869">
<rect width="125" height="43" fill="white" transform="translate(0 0.422852)"/>
</clipPath>
</defs>
</svg>
