<svg width="222" height="40" viewBox="0 0 222 40" fill="none" xmlns="http://www.w3.org/2000/svg">
<path fill-rule="evenodd" clip-rule="evenodd" d="M39.0838 3.54532C30.0891 3.54532 22.7975 10.8369 22.7975 19.8316C22.7975 28.8263 30.0891 36.1179 39.0838 36.1179C48.0785 36.1179 55.3701 28.8263 55.3701 19.8316C55.3701 10.8369 48.0785 3.54532 39.0838 3.54532ZM19.2522 19.8316C19.2522 8.87892 28.1311 0 39.0838 0C50.0365 0 58.9154 8.87892 58.9154 19.8316C58.9154 30.7843 50.0365 39.6632 39.0838 39.6632C28.1311 39.6632 19.2522 30.7843 19.2522 19.8316Z" fill="#FCFAFB"/>
<path fill-rule="evenodd" clip-rule="evenodd" d="M25.2726 0.558071C23.7687 0.193311 22.1977 0 20.5816 0C9.62892 0 0.75 8.87892 0.75 19.8316C0.75 30.7843 9.62892 39.6632 20.5816 39.6632C22.1977 39.6632 23.7687 39.4699 25.2726 39.1052C24.022 38.2074 22.8624 37.191 21.8102 36.0723C21.4046 36.1025 20.9949 36.1179 20.5816 36.1179C11.5869 36.1179 4.29532 28.8263 4.29532 19.8316C4.29532 10.8369 11.5869 3.54532 20.5816 3.54532C20.9949 3.54532 21.4046 3.56071 21.8102 3.59096C22.8624 2.47228 24.022 1.45582 25.2726 0.558071Z" fill="#FCFAFB"/>
<path fill-rule="evenodd" clip-rule="evenodd" d="M32.6126 30.8089C35.2559 27.9136 36.868 24.0608 36.868 19.8314C36.868 15.602 35.2559 11.7492 32.6125 8.85386C33.6765 8.22533 34.8397 7.74706 36.073 7.44824C38.7891 10.8416 40.4133 15.1468 40.4133 19.8314C40.4133 24.516 38.7891 28.8212 36.073 32.2146C34.8397 31.9157 33.6765 31.4375 32.6126 30.8089Z" fill="white" fill-opacity="0.5"/>
<path d="M106.785 11.6812H104.966C104.477 10.2478 103.69 8.71211 102.603 7.07398C101.532 5.43586 100.54 4.55379 99.6259 4.42779C99.1219 4.36478 98.4997 4.30965 97.7594 4.2624C97.0191 4.21514 96.3812 4.19152 95.8457 4.19152H94.7352V30.4881C94.7352 31.0552 94.8376 31.5592 95.0423 32.0002C95.2471 32.4255 95.6488 32.7642 96.2473 33.0162C96.6096 33.1579 97.1688 33.3076 97.9248 33.4651C98.6966 33.6068 99.3503 33.7092 99.8858 33.7722V35.6151H81.6402V33.7722C82.097 33.725 82.7349 33.662 83.554 33.5832C84.3888 33.4887 84.9559 33.3785 85.2551 33.2524C85.8694 33.0004 86.2789 32.6618 86.4837 32.2365C86.6885 31.8112 86.7909 31.3072 86.7909 30.7244V4.19152H85.6804C85.1449 4.19152 84.5069 4.21514 83.7666 4.2624C83.0263 4.30965 82.4042 4.36478 81.9001 4.42779C80.9866 4.55379 79.9864 5.43586 78.8995 7.07398C77.8284 8.71211 77.0488 10.2478 76.5605 11.6812H74.7412V2.08874H106.785V11.6812Z" fill="white"/>
<path d="M149.49 35.6151H136.637C134.417 32.2129 132.566 29.5037 131.085 27.4875C129.62 25.4714 127.793 23.1402 125.604 20.494H124.304V30.6771C124.304 31.2442 124.407 31.7246 124.611 32.1184C124.832 32.5121 125.241 32.8429 125.84 33.1107C126.139 33.2367 126.604 33.3706 127.234 33.5123C127.88 33.6383 128.431 33.725 128.888 33.7722V35.6151H111.002V33.7722C111.459 33.725 112.058 33.662 112.798 33.5832C113.554 33.4887 114.09 33.3785 114.405 33.2524C115.003 33.0004 115.405 32.6854 115.61 32.3074C115.814 31.9136 115.917 31.4174 115.917 30.8189V7.16849C115.917 6.60145 115.83 6.12891 115.657 5.75088C115.484 5.37286 115.066 5.04208 114.405 4.75856C113.901 4.55379 113.302 4.38053 112.609 4.23877C111.932 4.09701 111.396 3.99463 111.002 3.93162V2.08874H129.809C134.015 2.08874 137.204 2.75028 139.378 4.07338C141.568 5.38073 142.662 7.36538 142.662 10.0273C142.662 12.3743 141.985 14.2644 140.63 15.6978C139.292 17.1154 137.244 18.2258 134.487 19.0291C135.558 20.4152 136.803 22.0219 138.22 23.849C139.654 25.6761 141.142 27.5426 142.686 29.4485C143.174 30.0628 143.836 30.8189 144.671 31.7167C145.521 32.5988 146.269 33.1422 146.915 33.347C147.277 33.4572 147.734 33.5517 148.285 33.6305C148.852 33.7092 147.481 33.7565 147.718 33.7722L149.49 35.6151ZM133.401 10.6889C133.401 8.45221 132.771 6.82196 131.51 5.79814C130.266 4.75856 128.486 4.23877 126.171 4.23877H124.304V18.2731H126.1C128.415 18.2731 130.211 17.6667 131.487 16.4538C132.763 15.241 133.401 13.3193 133.401 10.6889Z" fill="white"/>
<path d="M207.233 36.5129C204.776 36.5129 202.476 36.1192 200.334 35.3316C198.192 34.5283 196.326 33.3706 194.735 31.8585C193.175 30.3779 191.947 28.5507 191.049 26.3771C190.151 24.1876 189.702 21.7856 189.702 19.1709C189.702 16.5719 190.151 14.1699 191.049 11.9647C191.963 9.74381 193.238 7.82216 194.876 6.19979C196.483 4.60892 198.413 3.38033 200.665 2.51402C202.917 1.63195 205.327 1.19092 207.895 1.19092C209.753 1.19092 211.447 1.41931 212.975 1.87609C214.502 2.31713 215.794 2.82117 216.849 3.38821L218.314 2.08874H220.37L220.582 14.3274H218.503C217.322 10.5944 215.904 7.85367 214.25 6.10529C212.597 4.35691 210.58 3.48271 208.202 3.48271C205.241 3.48271 202.988 4.79006 201.445 7.40476C199.901 10.0037 199.129 13.658 199.129 18.3676C199.129 21.0295 199.389 23.3056 199.909 25.1957C200.445 27.0701 201.138 28.5822 201.988 29.7321C202.902 30.9291 203.981 31.8112 205.225 32.3783C206.469 32.9295 207.848 33.2052 209.36 33.2052C211.565 33.2052 213.526 32.6066 215.243 31.4096C216.975 30.2125 218.551 28.4011 219.968 25.9754L222 27.204C221.323 28.5901 220.551 29.8344 219.685 30.937C218.818 32.0239 217.818 32.961 216.684 33.7486C215.44 34.6149 214.061 35.2922 212.549 35.7805C211.053 36.2688 209.281 36.5129 207.233 36.5129Z" fill="white"/>
<path d="M184.103 32.6145C182.528 33.5596 180.197 34.4495 177.11 35.2843C174.038 36.1192 171.211 36.5366 168.628 36.5366C166.202 36.5366 163.926 36.1664 161.8 35.4261C159.673 34.6858 157.807 33.5753 156.2 32.0947C154.594 30.6299 153.326 28.8106 152.396 26.6369C151.483 24.4633 151.026 21.9746 151.026 19.1709C151.026 16.5562 151.459 14.1384 152.325 11.9175C153.192 9.69655 154.444 7.78279 156.082 6.17617C157.689 4.5853 159.642 3.35671 161.942 2.49039C164.257 1.62408 166.817 1.19092 169.62 1.19092C171.526 1.19092 173.29 1.42719 174.913 1.89972C176.535 2.35651 177.874 2.85267 178.929 3.38821L180.394 2.08874H182.45L182.662 14.3274H180.583C179.386 10.6574 177.953 7.93242 176.283 6.15254C174.613 4.37266 172.503 3.48271 169.951 3.48271C166.927 3.48271 164.588 4.80581 162.934 7.45201C161.296 10.0982 160.477 13.7446 160.477 18.3912C160.477 23.3213 161.28 27.1804 162.887 29.9683C164.509 32.7563 166.801 34.1503 169.762 34.1503C171.148 34.1503 172.377 33.9455 173.448 33.536C174.535 33.1107 175.377 32.6224 175.976 32.0711V25.2666C175.976 24.6996 175.873 24.227 175.669 23.849C175.464 23.4552 175.054 23.1166 174.44 22.833C173.968 22.6125 173.377 22.4314 172.668 22.2896C171.959 22.1479 171.369 22.0455 170.896 21.9825V20.1396H184.103C184.059 24.3004 183.919 28.4554 184.103 32.6145Z" fill="white"/>
</svg>
