<svg width="1111" height="1032" viewBox="0 0 1111 1032" fill="none" xmlns="http://www.w3.org/2000/svg">
<mask id="mask0_121_10909" style="mask-type:alpha" maskUnits="userSpaceOnUse" x="44" y="111" width="998" height="837">
<rect x="44.002" y="111.682" width="997.378" height="835.754" fill="url(#paint0_linear_121_10909)"/>
</mask>
<g mask="url(#mask0_121_10909)">
<path opacity="0.8" d="M223.986 768.507L496.872 555.98C513.375 543.128 537.526 554.032 538.8 574.909L565 1004.37M701.001 187.368L589.855 456.346C582.68 473.712 578.743 492.244 578.239 511.027L565 1004.37M958.206 264.075L661.773 446.888C618.845 473.361 591.601 519.177 588.84 569.535L565 1004.37M801.721 567.839L651.441 526.276C625.947 519.225 600.362 537.211 598.365 563.586L565 1004.37M834.859 768.507L608.917 547.311C602.79 541.313 592.451 545.301 591.939 553.859L565 1004.37M428 804.368L536.249 570.992C540.705 561.386 555.079 564.388 555.318 574.974L565 1004.37M156.3 326.56L448.38 458.809C500.248 482.294 534.926 532.481 538.547 589.303L565 1004.37M991.001 434.368L719.771 478.984C649.248 490.584 595.975 549.181 591.123 620.486L565 1004.37M395 264.075L525.803 443.466C544.384 468.949 554.694 499.523 555.337 531.054L565 1004.37M565 1004.37L527.532 557.863C525.486 533.482 503.116 516.004 478.964 519.915L255.274 556.147" stroke="url(#paint1_radial_121_10909)" stroke-width="2"/>
</g>
<ellipse cx="555.743" cy="516.298" rx="538.711" ry="155.13" transform="rotate(-24.1382 555.743 516.298)" stroke="#5361F8" stroke-width="2" stroke-dasharray="4 20"/>
<ellipse cx="555.743" cy="516.298" rx="538.711" ry="155.13" transform="rotate(-151.35 555.743 516.298)" stroke="#5361F8" stroke-width="2" stroke-dasharray="4 20"/>
<ellipse cx="555.743" cy="516.298" rx="538.711" ry="155.13" transform="rotate(-50.7551 555.743 516.298)" stroke="#5361F8" stroke-width="2" stroke-dasharray="4 20"/>
<ellipse cx="555.743" cy="516.298" rx="409.663" ry="155.13" transform="rotate(-107.118 555.743 516.298)" stroke="#5361F8" stroke-width="2" stroke-dasharray="4 20"/>
<defs>
<linearGradient id="paint0_linear_121_10909" x1="542.691" y1="649.758" x2="542.691" y2="972.264" gradientUnits="userSpaceOnUse">
<stop stop-color="white"/>
<stop offset="1" stop-color="white" stop-opacity="0"/>
</linearGradient>
<radialGradient id="paint1_radial_121_10909" cx="0" cy="0" r="1" gradientUnits="userSpaceOnUse" gradientTransform="translate(567.001 540.368) rotate(89.4894) scale(477.24 514.602)">
<stop stop-color="#5361F8" stop-opacity="0"/>
<stop offset="0.229167" stop-color="#5361F8"/>
<stop offset="0.427083" stop-color="#5361F8"/>
<stop offset="1" stop-color="#5361F8" stop-opacity="0"/>
</radialGradient>
</defs>
</svg>
