<svg width="90" height="85" viewBox="0 0 90 85" fill="none" xmlns="http://www.w3.org/2000/svg">
<path fill-rule="evenodd" clip-rule="evenodd" d="M24.0845 8.2395H20.2817V12.0423H24.0845V15.8451H20.2817V19.6479H24.0845V23.4507H20.2817L20.2817 42.4649H27.8873V8.2395L27.8873 12.0423H24.0845V8.2395ZM24.0845 23.4507V27.2535H27.8873V23.4507H24.0845ZM24.0845 19.6479V15.8451H27.8873V19.6479H24.0845Z" fill="white"/>
<rect x="39.2958" y="19.6479" width="3.80282" height="3.80282" fill="white"/>
<rect x="31.6901" y="31.6902" width="3.80282" height="3.80282" fill="white"/>
<rect x="11.4084" y="38.0281" width="3.80282" height="3.80282" fill="white"/>
<rect x="39.2958" y="45.6338" width="3.80282" height="3.80282" fill="white"/>
<rect y="45" width="3.80282" height="3.80282" fill="white"/>
<rect x="3.80282" y="54.5071" width="3.80282" height="3.80282" fill="white"/>
<rect x="82.3944" y="10.1409" width="3.80282" height="3.80282" fill="white"/>
<rect x="80.493" y="60.845" width="3.80282" height="3.80282" fill="white"/>
<rect x="86.1972" y="70.9858" width="3.80282" height="3.80282" fill="white"/>
<rect x="80.493" y="78.5916" width="3.80282" height="3.80282" fill="white"/>
<rect x="70.3521" width="3.80282" height="3.80282" fill="white"/>
<path fill-rule="evenodd" clip-rule="evenodd" d="M69.0845 8.2395H72.8873V12.0423H69.0845V8.23957V8.2395ZM72.8873 15.8451H69.0845V12.0423H65.2817V8.23957H60.8451V12.0423H57.0423L57.0423 8.23957H53.2394V12.0423H49.4366V15.8452V42.4649H57.0423V42.4649H69.0845H76.6901V34.8592H72.8873V31.0563H76.6901V27.2535H72.8873V23.4507H76.6901V19.6479H72.8873V15.8451ZM72.8873 15.8451H76.6901V12.0423H72.8873V15.8451ZM72.8873 19.6479H69.0845V15.8452H57.0423V34.8592H69.0845V31.0563H72.8873V27.2535H69.0845V23.4507H72.8873V19.6479ZM57.0423 12.0423H53.2394V15.8451H57.0423V12.0423ZM65.2817 12.0423H61.4789V15.8451H65.2817V12.0423Z" fill="white"/>
<path fill-rule="evenodd" clip-rule="evenodd" d="M49.4366 57.6759V84.2957H55.1408V84.2958H69.0845H76.6901V74.1549H72.8873V72.8873H69.0845V76.6901H57.0423L57.0423 57.6761H53.2394V53.8732H57.0423L57.0423 57.6759H61.4789V53.8732H65.2817V57.6759H69.0845V53.8732H72.8873V57.6759H76.6901V53.8732H72.8873V50.0704H76.6901V50.0703H57.0423H53.2394V53.8731H49.4366V57.6759ZM69.0845 53.8732H65.2817V50.0704H69.0845V53.8732ZM57.0423 53.8732V50.0704H60.8451V53.8732H57.0423ZM72.8873 70.3521H76.6901V66.5493H72.8873V65.2817H69.0845V66.5493H65.2817V62.7465H62.1127V70.3521H69.0845V69.0845V66.5493H72.8873V69.0845V70.3521Z" fill="white"/>
<path fill-rule="evenodd" clip-rule="evenodd" d="M10.7747 57.6759V70.352H15.2113V70.3521H26.6197V66.5493H30.4225V70.3521H34.2254V74.1549H30.4225V76.6901H11.4085V84.2958H30.4225H38.0282V77.9577H34.2254V74.1549L38.0282 74.1549L38.0282 70.3521H34.2254V66.5493H38.0282V62.7465H34.2254V66.5493H30.4225V62.7465H26.6197V66.5493H22.8169V62.7465H18.3803V57.6759H22.8169V53.8732H26.6197V57.6759H30.4225V53.8732H34.2254V57.6759H38.0282V50.0703H18.3803H14.5775V53.8731H10.7747V57.6759ZM34.2254 53.8732V50.0704H38.0282V53.8732H34.2254ZM30.4225 53.8732H26.6197V50.0704H30.4225V53.8732ZM18.3803 50.0704H22.1831V53.8732H18.3803V50.0704ZM18.3803 53.8732L18.3803 57.6761H14.5775V53.8732H18.3803Z" fill="white"/>
</svg>
