<svg width="165" height="44" viewBox="0 0 165 44" fill="none" xmlns="http://www.w3.org/2000/svg">
<g clip-path="url(#clip0_93_5329)">
<path d="M82.6013 9.38153V34.4649C82.6001 34.5595 82.5616 34.6499 82.494 34.7169C82.4264 34.7838 82.3351 34.822 82.2395 34.8232H79.6053C79.0006 34.8237 78.4056 34.6739 77.8746 34.3876C77.3435 34.1013 76.8935 33.6876 76.5658 33.1844L64.6105 14.8855L65.0206 24.0254V34.4649C65.02 34.5125 65.0099 34.5596 64.9909 34.6035C64.9719 34.6473 64.9443 34.687 64.9098 34.7202C64.8753 34.7535 64.8346 34.7797 64.7898 34.7974C64.7451 34.8151 64.6973 34.8238 64.6491 34.8232H61.1658C61.0702 34.822 60.9789 34.7838 60.9113 34.7169C60.8437 34.6499 60.8052 34.5595 60.804 34.4649V9.38153C60.8052 9.28688 60.8437 9.19645 60.9113 9.12952C60.9789 9.06258 61.0702 9.02443 61.1658 9.02319H63.7855C64.3895 9.02351 64.9838 9.17312 65.5145 9.45846C66.0453 9.74379 66.4957 10.1558 66.825 10.6572L78.7803 28.9274L78.4088 19.821V9.38153C78.4088 9.28649 78.4469 9.19535 78.5148 9.12815C78.5826 9.06095 78.6747 9.02319 78.7706 9.02319H82.254C82.347 9.02804 82.4347 9.06778 82.4992 9.13434C82.5637 9.20089 82.6002 9.28927 82.6013 9.38153Z" fill="white"/>
<path d="M118.202 34.823H114.516C114.458 34.8225 114.402 34.8083 114.351 34.7818C114.3 34.7552 114.256 34.7169 114.223 34.6702C114.19 34.6235 114.168 34.5696 114.161 34.5131C114.153 34.4566 114.159 34.399 114.178 34.3453L123.943 9.36704C123.985 9.26246 124.058 9.17324 124.153 9.11165C124.248 9.05005 124.36 9.0191 124.474 9.02304H129.091C129.2 9.02397 129.307 9.0572 129.397 9.11848C129.487 9.17976 129.557 9.2663 129.597 9.36704L139.333 34.3453C139.353 34.399 139.358 34.4566 139.351 34.5131C139.343 34.5696 139.322 34.6235 139.289 34.6702C139.256 34.7169 139.212 34.7552 139.161 34.7818C139.11 34.8083 139.053 34.8225 138.996 34.823H135.31C135.236 34.8234 135.164 34.8017 135.103 34.7607C135.042 34.7198 134.994 34.6616 134.967 34.5937L127.098 14.0493C127.073 13.9801 127.027 13.9203 126.966 13.8781C126.905 13.8358 126.832 13.8132 126.758 13.8132C126.684 13.8132 126.611 13.8358 126.55 13.8781C126.49 13.9203 126.443 13.9801 126.418 14.0493L118.549 34.5937C118.522 34.6624 118.474 34.7211 118.412 34.7621C118.35 34.8031 118.276 34.8243 118.202 34.823Z" fill="white"/>
<path d="M164.923 34.2451L157.599 24.981C161.734 24.207 164.151 21.4454 164.151 17.2075C164.151 12.339 160.952 9.02319 155.293 9.02319H145.079C145.008 9.02319 144.937 9.03719 144.871 9.06438C144.806 9.09157 144.746 9.13141 144.696 9.18161C144.645 9.23181 144.606 9.29136 144.579 9.35684C144.552 9.42231 144.538 9.49241 144.539 9.56308C144.539 10.4754 144.905 11.3504 145.556 11.9955C146.208 12.6407 147.091 13.0031 148.013 13.0031H154.868C158.289 13.0031 159.929 14.7374 159.929 17.241C159.929 19.7445 158.328 21.5171 154.868 21.5171H145.079C144.936 21.5183 144.798 21.5758 144.697 21.6769C144.596 21.778 144.539 21.9146 144.539 22.057V34.4792C144.539 34.5742 144.577 34.6654 144.645 34.7326C144.713 34.7998 144.805 34.8375 144.901 34.8375H148.384C148.48 34.8363 148.571 34.7981 148.639 34.7312C148.706 34.6643 148.745 34.5738 148.746 34.4792V25.2055H152.765L159.119 33.4185C159.459 33.858 159.898 34.2135 160.4 34.4572C160.902 34.7009 161.454 34.8262 162.014 34.8232H164.657C164.723 34.8196 164.787 34.7981 164.842 34.7612C164.896 34.7243 164.94 34.6733 164.967 34.6137C164.994 34.5541 165.005 34.4883 164.997 34.4233C164.989 34.3583 164.963 34.2967 164.923 34.2451Z" fill="white"/>
<path d="M107.187 9.02319H91.025C90.897 9.02319 90.7743 9.07353 90.6838 9.16313C90.5934 9.25273 90.5425 9.37426 90.5425 9.50097C90.5425 9.96087 90.634 10.4163 90.8117 10.8412C90.9895 11.2661 91.2499 11.6521 91.5783 11.9773C91.9067 12.3025 92.2966 12.5605 92.7256 12.7365C93.1547 12.9125 93.6145 13.0031 94.0789 13.0031H107.187C107.235 13.0037 107.282 12.9949 107.327 12.9771C107.371 12.9593 107.411 12.933 107.445 12.8996C107.478 12.8662 107.505 12.8264 107.523 12.7826C107.541 12.7389 107.55 12.692 107.549 12.6447V9.38153C107.549 9.33447 107.54 9.28787 107.522 9.2444C107.503 9.20092 107.477 9.16142 107.443 9.12815C107.41 9.09487 107.37 9.06848 107.326 9.05047C107.282 9.03246 107.235 9.02319 107.187 9.02319ZM107.187 30.8433H95.1259C95.0303 30.8421 94.939 30.8039 94.8714 30.737C94.8038 30.67 94.7653 30.5796 94.764 30.485V24.0159C94.764 23.9208 94.8022 23.8297 94.87 23.7625C94.9379 23.6953 95.0299 23.6575 95.1259 23.6575H106.275C106.371 23.6575 106.463 23.6198 106.531 23.5526C106.599 23.4854 106.637 23.3942 106.637 23.2992V20.0121C106.637 19.917 106.599 19.8259 106.531 19.7587C106.463 19.6915 106.371 19.6537 106.275 19.6537H91.0829C90.9391 19.655 90.8017 19.7124 90.7005 19.8136C90.5993 19.9147 90.5425 20.0513 90.5425 20.1936V34.2881C90.5425 34.43 90.5995 34.5661 90.7008 34.6665C90.8021 34.7668 90.9396 34.8232 91.0829 34.8232H107.187C107.283 34.8232 107.375 34.7854 107.443 34.7182C107.511 34.651 107.549 34.5599 107.549 34.4649V31.2016C107.55 31.1544 107.541 31.1075 107.523 31.0638C107.505 31.02 107.478 30.9802 107.445 30.9468C107.411 30.9134 107.371 30.8871 107.327 30.8693C107.282 30.8515 107.235 30.8427 107.187 30.8433Z" fill="white"/>
<path d="M34.8526 2.60654L25.7728 15.9509C25.6257 16.1435 25.5576 16.3841 25.5824 16.6244C25.6072 16.8646 25.7229 17.0867 25.9062 17.2459C26.0896 17.4051 26.3271 17.4896 26.5709 17.4825C26.8146 17.4754 27.0466 17.3771 27.2202 17.2074L36.1408 9.5391C36.1923 9.49231 36.2566 9.46153 36.3256 9.45058C36.3946 9.43962 36.4653 9.44896 36.529 9.47745C36.5927 9.50594 36.6466 9.55232 36.6839 9.61084C36.7213 9.66936 36.7404 9.73745 36.739 9.80665V33.8341C36.7383 33.907 36.7151 33.978 36.6726 34.0376C36.63 34.0971 36.5701 34.1424 36.5009 34.1673C36.4316 34.1923 36.3564 34.1957 36.2851 34.1771C36.2139 34.1585 36.1501 34.1189 36.1022 34.0634L9.08465 2.05232C8.65261 1.54462 8.11432 1.13597 7.50703 0.854655C6.89974 0.573343 6.23798 0.426092 5.56754 0.423096L4.62675 0.423096C3.39966 0.423096 2.22283 0.905829 1.35515 1.7651C0.48746 2.62437 0 3.78979 0 5.00498L0 38.8412C0 40.0564 0.48746 41.2218 1.35515 42.0811C2.22283 42.9404 3.39966 43.4231 4.62675 43.4231C5.41741 43.423 6.19485 43.2223 6.88489 42.84C7.57493 42.4578 8.15454 41.9068 8.56842 41.2397L17.6482 27.8953C17.7954 27.7027 17.8634 27.4621 17.8386 27.2218C17.8139 26.9816 17.6982 26.7595 17.5148 26.6003C17.3314 26.4411 17.094 26.3565 16.8502 26.3637C16.6064 26.3708 16.3744 26.4691 16.2009 26.6388L7.28026 34.3071C7.22875 34.3539 7.1645 34.3847 7.09548 34.3956C7.02647 34.4066 6.95572 34.3972 6.89202 34.3687C6.82832 34.3402 6.77447 34.2939 6.73713 34.2353C6.6998 34.1768 6.68064 34.1087 6.68202 34.0395V10.0121C6.68274 9.93915 6.70594 9.86816 6.7485 9.80861C6.79106 9.74907 6.85095 9.7038 6.92019 9.67887C6.98942 9.65394 7.06468 9.65053 7.13592 9.6691C7.20716 9.68766 7.27099 9.72731 7.31886 9.78276L34.3364 41.7939C34.7684 42.3016 35.3067 42.7102 35.914 42.9915C36.5213 43.2729 37.1831 43.4201 37.8535 43.4231H38.8184C40.0413 43.4168 41.212 42.9313 42.0745 42.0727C42.9369 41.2141 43.4211 40.0523 43.4211 38.8412V5.00498C43.4211 3.78979 42.9336 2.62437 42.0659 1.7651C41.1982 0.905829 40.0214 0.423096 38.7943 0.423096V0.423096C38.0036 0.42319 37.2262 0.623934 36.5362 1.00617C35.8461 1.38841 35.2665 1.9394 34.8526 2.60654Z" fill="white"/>
</g>
<defs>
<clipPath id="clip0_93_5329">
<rect width="165" height="43" fill="white" transform="translate(0 0.423096)"/>
</clipPath>
</defs>
</svg>
