<svg width="204" height="44" viewBox="0 0 204 44" fill="none" xmlns="http://www.w3.org/2000/svg">
<g clip-path="url(#clip0_93_5308)">
<path d="M63.3551 6.56421C60.9667 6.56421 58.6649 6.86684 57.7275 7.12267C56.3631 7.50954 56.0228 8.11168 55.766 9.35964L50.3518 34.5529C50.2652 35.0676 50.1816 35.4982 50.1816 35.9287C50.1816 37.1767 50.9922 37.991 52.3133 37.991C53.7643 37.991 54.3614 37.0457 54.6584 35.5824L56.1929 28.4035C57.2572 28.5314 58.6649 28.6625 60.6697 28.6625C69.4963 28.6625 74.994 23.8485 74.994 16.5822C74.994 10.2176 70.6008 6.56421 63.3551 6.56421ZM60.4562 24.5349C59.0918 24.5349 58.0245 24.4912 57.0468 24.3633L59.9024 10.9914C60.7965 10.8634 62.1207 10.6887 63.485 10.6887C68.1753 10.6887 70.5637 12.9257 70.5637 16.6228C70.5606 21.3526 67.1481 24.5349 60.4562 24.5349Z" fill="white"/>
<path d="M202.252 29.6921C201.528 29.6921 201.058 30.1227 200.164 31.1117C198.586 32.7465 197.605 33.6482 196.371 33.6482C195.263 33.6482 194.666 32.7465 194.666 31.2833C194.666 30.4659 194.836 29.4768 195.05 28.4036L196.627 20.9221H201.361C202.852 20.9221 203.749 20.061 203.749 18.5135C203.749 17.6524 203.196 17.0097 201.918 17.0097H197.478L198.246 13.5279C198.332 13.0131 198.416 12.5389 198.416 12.1083C198.416 10.9041 197.605 10.043 196.284 10.043C194.876 10.043 194.239 10.9883 193.939 12.4515L192.958 17.0097H190.953C189.419 17.0097 188.525 17.8708 188.525 19.4183C188.525 20.2794 189.122 20.9221 190.4 20.9221H192.148L190.57 28.3162C190.4 29.1337 190.186 30.4659 190.186 31.8417C190.186 35.3235 191.977 37.86 195.814 37.86C198.032 37.86 199.99 36.7431 201.485 35.4078C202.936 34.1193 204 32.5281 204 31.4954C204 30.5095 203.233 29.6921 202.252 29.6921Z" fill="white"/>
<path d="M104.197 9.10078C104.197 7.85282 103.343 7.0354 102.022 7.0354C100.614 7.0354 99.9766 7.98073 99.6765 9.44397L94.349 34.4219C94.2221 34.9367 94.1355 35.3672 94.1355 35.7978C94.1355 37.0458 94.9894 37.86 96.2671 37.86C97.7181 37.86 98.3555 36.9147 98.6556 35.4515L103.983 10.4767C104.07 9.95875 104.197 9.53132 104.197 9.10078Z" fill="white"/>
<path d="M180.295 16.5791C173.473 16.5791 168.826 23.4148 168.826 29.9073C168.826 30.029 168.83 30.1507 168.833 30.2692C167.762 31.9072 166.395 33.6044 165.457 33.6044C164.777 33.6044 164.52 32.9586 164.52 31.9696C164.52 30.7653 164.86 28.7436 165.244 26.9808L168.783 10.4703C168.87 9.95552 168.953 9.52498 168.953 9.09443C168.953 7.84647 168.143 7.02905 166.822 7.02905C165.371 7.02905 164.777 7.97438 164.477 9.43762L162.558 18.3793C161.534 17.306 160.04 16.5728 157.782 16.5728C153.252 16.5728 148.695 20.089 146.919 25.4833C144.964 30.5812 143.216 33.5982 141.836 33.5982C141.326 33.5982 141.025 33.1676 141.025 32.4375C141.025 30.2879 142.22 25.0434 142.73 22.5069C142.9 21.5616 142.987 21.1747 142.987 20.6162C142.987 18.7256 139.875 16.4886 135.825 16.4886C131.141 16.4886 126.899 19.4806 124.774 23.9233C121.615 29.5516 118.716 33.5982 117.28 33.5982C116.64 33.5982 116.426 32.7807 116.256 32.007L115.195 26.0823L121.717 20.7098C122.314 20.195 123.081 19.4619 123.081 18.5165C123.081 17.3559 122.314 16.5822 121.163 16.5822C120.309 16.5822 119.585 17.097 118.861 17.6991L109.057 25.867L112.34 10.4765C112.426 9.96176 112.553 9.53122 112.553 9.10067C112.553 7.85271 111.699 7.03529 110.378 7.03529C108.97 7.03529 108.333 7.98062 108.033 9.44386L102.705 34.4218C102.579 34.9366 102.492 35.3671 102.492 35.7977C102.492 37.0456 103.346 37.8599 104.624 37.8599C106.075 37.8599 106.712 36.9146 107.012 35.4514L107.696 32.2285L111.702 28.962L112.683 33.9476C113.067 35.9256 114.091 37.8599 116.733 37.8599C119.363 37.8599 121.432 35.4389 123.505 32.1661C124.133 35.5949 126.553 37.8599 129.909 37.8599C133.279 37.8599 135.58 35.8382 137.072 33.1302V33.2175C137.072 36.013 138.479 37.8599 140.951 37.8599C143.188 37.8599 145.044 36.4997 146.703 33.6106C147.643 36.1284 149.747 37.8599 152.674 37.8599C156.126 37.8599 158.598 35.754 160.176 32.8307V33.0896C160.176 36.1845 161.711 37.8631 164.226 37.8631C166.447 37.8631 168.335 36.5621 169.946 34.4468C171.172 36.5621 173.368 37.8631 176.335 37.8631C183.157 37.8631 187.804 31.0274 187.804 24.4912C187.801 19.8893 185.029 16.5791 180.295 16.5791ZM137.792 25.3086C136.555 30.681 133.913 33.7354 130.927 33.7354C128.922 33.7354 127.815 32.188 127.815 29.8667C127.815 25.3086 131.097 20.4072 135.487 20.4072C136.809 20.4072 137.833 20.7941 138.727 21.3525L137.792 25.3086ZM161.537 23.031C160.173 29.352 157.061 33.7354 153.651 33.7354C151.776 33.7354 150.666 32.2722 150.666 29.8667C150.666 25.268 153.821 20.4946 158.041 20.4946C159.663 20.4946 160.897 21.053 161.794 21.7831L161.537 23.031ZM176.843 33.7354C174.371 33.7354 173.347 31.929 173.347 29.6515C173.347 25.4802 176.202 20.7098 179.785 20.7098C182.257 20.7098 183.281 22.5163 183.281 24.7938C183.281 29.0057 180.425 33.7354 176.843 33.7354Z" fill="white"/>
<path d="M85.6089 16.5791C78.7871 16.5791 74.1401 23.4148 74.1401 29.9073C74.1401 34.5497 76.9122 37.86 81.6426 37.86C88.4645 37.86 93.1114 31.0243 93.1114 24.4881C93.1114 19.8893 90.3394 16.5791 85.6089 16.5791ZM82.1562 33.7355C79.6843 33.7355 78.6602 31.929 78.6602 29.6515C78.6602 25.4802 81.5158 20.7099 85.0984 20.7099C87.5704 20.7099 88.5944 22.5163 88.5944 24.7938C88.5914 29.0057 85.7358 33.7355 82.1562 33.7355Z" fill="white"/>
<path d="M20.512 9.22867C24.8571 9.22867 28.3796 7.16277 28.3796 4.61434C28.3796 2.06591 24.8571 0 20.512 0C16.1668 0 12.6444 2.06591 12.6444 4.61434C12.6444 7.16277 16.1668 9.22867 20.512 9.22867Z" fill="white"/>
<path d="M20.512 43.997C24.8571 43.997 28.3796 41.9311 28.3796 39.3826C28.3796 36.8342 24.8571 34.7683 20.512 34.7683C16.1668 34.7683 12.6444 36.8342 12.6444 39.3826C12.6444 41.9311 16.1668 43.997 20.512 43.997Z" fill="white"/>
<path d="M9.54794 15.6161C11.7205 11.8215 11.7064 7.71165 9.51645 6.43657C7.32648 5.1615 3.78995 7.20399 1.61738 10.9986C-0.55519 14.7932 -0.541089 18.903 1.64888 20.1781C3.83884 21.4532 7.37537 19.4107 9.54794 15.6161Z" fill="white"/>
<path d="M39.4032 32.998C41.5757 29.2033 41.5628 25.0942 39.3744 23.82C37.1859 22.5458 33.6505 24.589 31.478 28.3836C29.3054 32.1782 29.3183 36.2873 31.5068 37.5616C33.6953 38.8358 37.2306 36.7926 39.4032 32.998Z" fill="white"/>
<path d="M9.51755 37.5605C11.7075 36.2854 11.7216 32.1756 9.54904 28.381C7.37647 24.5864 3.83994 22.5439 1.64997 23.819C-0.539991 25.094 -0.554092 29.2038 1.61848 32.9985C3.79105 36.7931 7.32758 38.8356 9.51755 37.5605Z" fill="white"/>
<path d="M39.3762 20.179C41.5647 18.9048 41.5776 14.7957 39.405 11.0011C37.2324 7.20644 33.6971 5.16325 31.5086 6.43746C29.3201 7.71167 29.3072 11.8208 31.4798 15.6154C33.6524 19.41 37.1877 21.4532 39.3762 20.179Z" fill="white"/>
</g>
<defs>
<clipPath id="clip0_93_5308">
<rect width="204" height="44" fill="white"/>
</clipPath>
</defs>
</svg>
