<svg width="202" height="56" viewBox="0 0 202 56" fill="none" xmlns="http://www.w3.org/2000/svg">
<path d="M99.86 26.2806C97.7804 25.4756 95.2392 24.8051 92.2389 24.2667H92.1755C89.259 23.7714 87.0728 23.3168 85.6146 22.9029C84.1563 22.4914 83.01 21.9327 82.1731 21.2292C81.3361 20.5283 80.9202 19.5581 80.9202 18.3187C80.9202 16.5003 81.6303 15.1187 83.0429 14.1689C84.4581 13.219 86.3222 12.7441 88.6376 12.7441C91.1662 12.7441 93.2128 13.3613 94.7801 14.6032C96.1852 15.7156 97.0449 17.1302 97.3619 18.8419C97.3943 19.0096 97.4838 19.1608 97.6152 19.2697C97.7466 19.3785 97.9116 19.4383 98.0822 19.4387L105.199 19.4895C105.635 19.4946 105.985 19.134 105.942 18.7149C105.717 16.4615 104.907 14.3063 103.591 12.4648C102.11 10.3797 100.073 8.75682 97.4786 7.60127C94.8867 6.44317 91.9397 5.86413 88.6376 5.86413C85.5081 5.86413 82.6904 6.42286 80.1822 7.54032C77.6714 8.65524 75.7212 10.2019 74.3288 12.1854C72.9442 14.1392 72.2127 16.4818 72.239 18.8775C72.239 21.6025 72.8604 23.7917 74.1031 25.4425C75.3654 27.1099 77.0538 28.405 78.9902 29.1911C81.0039 30.0394 83.4284 30.7098 86.2562 31.2051L86.5783 31.266C89.576 31.8044 91.818 32.2819 93.299 32.6933C94.7776 33.1073 95.9442 33.6838 96.804 34.4279C97.6587 35.1695 98.0873 36.1829 98.0873 37.4629C98.0873 39.2813 97.3163 40.706 95.7743 41.7371C94.2298 42.7708 92.2364 43.2863 89.7916 43.2863C86.875 43.2863 84.519 42.5752 82.7183 41.1479C81.08 39.8527 80.1163 38.1892 79.8271 36.1549C79.8011 35.9822 79.7141 35.8244 79.582 35.7103C79.4499 35.5962 79.2814 35.5332 79.1069 35.5327L71.9981 35.4311C71.567 35.4235 71.217 35.774 71.25 36.1905C71.4528 38.6895 72.2644 40.9397 73.6846 42.946C75.2494 45.1556 77.4026 46.8902 80.1467 48.1524C82.8882 49.4121 86.0407 50.0394 89.5988 50.0394C92.9009 50.0394 95.858 49.4629 98.4753 48.3048C101.087 47.1492 103.137 45.5492 104.615 43.5048C106.081 41.5028 106.86 39.0791 106.834 36.5968C106.834 33.8692 106.19 31.6698 104.907 29.9962C103.621 28.3225 101.937 27.0857 99.86 26.2781V26.2806ZM143.56 42.979H142.449C141.805 42.979 141.3 42.814 140.938 42.4813C140.572 42.1511 140.39 41.6152 140.39 40.8711V29.0362C140.39 25.2775 139.147 22.4178 136.662 20.4571C134.176 18.4965 131.247 17.4959 126.659 17.4959C122.328 17.4959 118.944 18.4025 116.287 20.1778C113.865 21.7956 112.406 24.0127 111.904 26.8343C111.828 27.2736 112.17 27.6724 112.632 27.6724H119.168C119.495 27.6724 119.789 27.4692 119.875 27.1644C120.172 26.1181 120.831 25.2673 121.848 24.607C123.028 23.8451 124.427 23.4616 126.271 23.4616C129.748 23.4616 132.221 25.5263 132.221 28.6044V29.5644C132.221 29.9581 131.891 30.2756 131.486 30.2756H125.564C120.763 30.2756 117.118 31.1848 114.633 33.0032C112.148 34.8216 110.902 37.4019 110.902 40.7492C110.902 43.6394 112.038 45.9124 114.311 47.5632C116.015 48.8 118.054 49.5162 120.152 49.8286C121.754 50.0698 123.4 50.1562 125.008 49.9073C126.692 49.6483 128.059 48.9803 129.426 48.0279C130.656 47.1721 131.683 46.0749 132.617 44.739C133.073 43.9848 134.273 44.287 134.273 45.1606V46.2095C134.27 48.1194 135.876 49.6686 137.856 49.6686H143.56C143.752 49.6713 143.936 49.5981 144.074 49.4648C144.212 49.3316 144.291 49.1492 144.295 48.9575V43.6876C144.295 43.2965 143.966 42.9765 143.56 42.9765V42.979ZM132.224 36.5968C132.224 38.1257 131.891 39.4565 131.227 40.5917C129.832 42.974 127.341 44.2159 124.537 44.2159C122.908 44.2159 121.6 43.8451 120.613 43.1035C120.142 42.7668 119.761 42.3192 119.503 41.8001C119.245 41.2811 119.118 40.7065 119.135 40.127C119.135 38.7251 119.682 37.6381 120.775 36.8762C121.866 36.1143 123.421 35.7308 125.437 35.7308H131.486C131.891 35.7308 132.221 36.0483 132.221 36.4419V36.5968H132.224ZM167.384 6.31873H158.883C154.394 6.31873 150.76 9.82349 150.76 14.146V17.5848C150.76 17.9784 150.43 18.2959 150.022 18.2959H145.163C144.971 18.2925 144.785 18.3654 144.647 18.4987C144.509 18.632 144.429 18.8148 144.425 19.007V24.3352C144.425 24.7289 144.755 25.0463 145.16 25.0463H150.02C150.425 25.0463 150.755 25.3663 150.755 25.7575V48.9575C150.755 49.3511 151.085 49.6686 151.496 49.6686H158.122C158.528 49.6686 158.858 49.3511 158.858 48.9575V25.76C158.858 25.3663 159.19 25.0489 159.598 25.0489H167.321C167.727 25.0489 168.056 24.7289 168.056 24.3378V19.0044C168.056 18.6133 167.727 18.2933 167.321 18.2933H159.598C159.407 18.2967 159.221 18.2238 159.083 18.0905C158.944 17.9572 158.864 17.7744 158.86 17.5822V14.494C158.86 13.7067 159.52 13.0717 160.336 13.0717H167.384C167.576 13.0745 167.761 13.0012 167.899 12.868C168.036 12.7348 168.116 12.5524 168.12 12.3606V7.02984C168.12 6.63619 167.79 6.31873 167.384 6.31873V6.31873ZM199.849 24.701C198.43 22.4041 196.39 20.5567 193.966 19.3727C191.478 18.1333 188.604 17.4959 185.348 17.4959C182.091 17.4959 179.279 18.1867 176.793 19.5276C174.353 20.8245 172.342 22.8047 171.006 25.2267C169.636 27.6851 168.949 30.5651 168.949 33.8717C168.949 37.1733 169.657 39.9314 171.069 42.3898C172.487 44.8483 174.511 46.7378 177.146 48.0584C179.784 49.379 182.88 50.0394 186.441 50.0394C189.182 50.0394 191.64 49.5568 193.803 48.5867C195.967 47.6165 197.714 46.2832 199.043 44.5892C200.155 43.1909 200.951 41.5669 201.374 39.8298C201.397 39.7229 201.397 39.6119 201.371 39.5053C201.346 39.3987 201.297 39.2993 201.227 39.2146C201.158 39.1299 201.07 39.0621 200.971 39.0165C200.871 38.9708 200.763 38.9485 200.653 38.9511H193.999C193.845 38.9501 193.696 38.9967 193.571 39.0845C193.445 39.1723 193.35 39.297 193.299 39.4413C192.853 40.7486 191.976 41.8653 190.813 42.6083C189.482 43.4743 187.833 43.9086 185.86 43.9086C184.232 43.9086 182.807 43.5784 181.584 42.9181C180.381 42.2746 179.38 41.3092 178.693 40.1295C178.414 39.6571 178.186 39.1568 178.001 38.6413C177.808 38.0876 177.664 37.5183 177.569 36.9397C177.536 36.7371 177.506 36.5339 177.481 36.3302C177.43 35.9111 177.775 35.5429 178.216 35.5429H201.171C201.348 35.5472 201.521 35.4862 201.656 35.3716C201.792 35.2569 201.881 35.0965 201.906 34.9206C201.937 34.659 201.957 34.3924 201.97 34.1181C201.99 33.6229 202 33.1683 202 32.7568C202 29.7016 201.282 27.0171 199.847 24.7035L199.849 24.701ZM192.951 30.1537H178.571C178.102 30.1537 177.744 29.7321 177.848 29.2902C178.079 28.3149 178.477 27.4387 179.043 26.6514C179.771 25.6406 180.717 24.866 181.873 24.3302C183.063 23.7854 184.359 23.5097 185.667 23.5225C187.897 23.5225 189.74 24.1016 191.196 25.2571C192.449 26.2502 193.273 27.5936 193.671 29.2851C193.775 29.7295 193.423 30.1537 192.951 30.1537ZM54.7169 27.9822H48.4147C46.5329 27.9822 45.0087 29.4527 45.0087 31.266V40.0787C45.0087 41.8921 43.4819 43.3625 41.6001 43.3625H16.5279C14.6436 43.3625 13.1194 44.8305 13.1194 46.6438V52.7162C13.1194 54.5295 14.6436 56 16.5279 56H43.0508C44.9326 56 46.4365 54.5295 46.4365 52.7162V47.8476C46.4365 46.0343 47.9632 44.7492 49.845 44.7492H54.7144C56.5988 44.7492 58.123 43.2762 58.123 41.4654V31.2305C58.123 29.4171 56.5988 27.9848 54.7169 27.9848V27.9822ZM13.1168 15.9213C13.1168 14.1079 14.6436 12.6375 16.5254 12.6375H41.5823C43.4667 12.6375 44.9909 11.167 44.9909 9.35365V3.28381C44.9909 1.47048 43.4667 0 41.5823 0H15.0722C13.1904 0 11.6662 1.47048 11.6662 3.28381V7.9619C11.6662 9.77524 10.1394 11.2432 8.25763 11.2432H3.40855C1.52675 11.2432 0 12.7136 0 14.527V24.7721C0 26.5854 1.53182 27.9822 3.41363 27.9822H9.7159C11.6002 27.9822 13.1245 26.5117 13.1245 24.6984L13.1194 15.9213H13.1168ZM26.0967 21.6H32.1505C34.1236 21.6 35.7239 23.1441 35.7239 25.0438V30.8749C35.7239 32.7746 34.1211 34.3187 32.1479 34.3187H26.0967C24.1236 34.3187 22.5233 32.7746 22.5233 30.8749V25.0438C22.5233 23.1416 24.1262 21.6 26.0967 21.6V21.6Z" fill="white"/>
</svg>
